G04*
G04 #@! TF.GenerationSoftware,Altium Limited,Altium Designer,21.1.0 (24)*
G04*
G04 Layer_Physical_Order=1*
G04 Layer_Color=255*
%FSLAX44Y44*%
%MOMM*%
G71*
G04*
G04 #@! TF.SameCoordinates,11EEB628-8EEC-4D1F-BDFF-B4013DCA5F77*
G04*
G04*
G04 #@! TF.FilePolarity,Positive*
G04*
G01*
G75*
%ADD12C,0.4000*%
%ADD14C,0.2540*%
%ADD15C,0.5000*%
%ADD16C,0.3000*%
%ADD17R,1.2000X1.6500*%
%ADD18C,0.3000*%
%ADD19R,1.5000X1.6000*%
%ADD20R,0.8500X0.9500*%
%ADD21R,2.7000X1.3000*%
%ADD22R,1.2000X1.2000*%
%ADD23R,1.2000X1.2000*%
%ADD24R,0.9000X1.0000*%
%ADD25R,2.1500X1.0000*%
%ADD26R,2.1500X3.2500*%
%ADD27R,0.9000X0.8000*%
%ADD28O,1.2000X0.6000*%
%ADD29R,0.9500X0.8500*%
%ADD30R,2.5000X1.7000*%
%ADD31R,1.0000X0.9000*%
%ADD52C,1.0000*%
%ADD53C,1.5000*%
%ADD54C,2.0000*%
%ADD55C,0.8000*%
%ADD56C,0.6000*%
%ADD57R,1.5840X2.7290*%
%ADD58R,1.5000X3.9622*%
%ADD59O,2.1000X1.4000*%
%ADD60R,1.5000X1.5000*%
%ADD61C,1.5000*%
%ADD62C,1.9050*%
%ADD63C,3.0000*%
%ADD64C,0.6000*%
G36*
X162400Y247207D02*
X162697Y246181D01*
X156038Y239522D01*
X155596Y238860D01*
X155441Y238080D01*
X155441Y205180D01*
X146573D01*
X146206Y206132D01*
X146142Y206450D01*
X147210Y208049D01*
X147598Y210000D01*
X147210Y211951D01*
X146105Y213605D01*
X144748Y214512D01*
X141748Y217511D01*
Y220100D01*
X141399Y221856D01*
X141270Y222049D01*
Y228120D01*
X115770D01*
Y214120D01*
X132868D01*
X132921Y213855D01*
X133916Y212366D01*
X137680Y208602D01*
X137790Y208049D01*
X138858Y206450D01*
X138794Y206132D01*
X138427Y205180D01*
X136140D01*
X135681Y205120D01*
X115770D01*
Y193773D01*
X114623Y193277D01*
X113799Y193949D01*
X113799Y215900D01*
X113644Y216680D01*
X113202Y217342D01*
X112540Y217784D01*
X112020Y217887D01*
Y218020D01*
X50540D01*
Y217939D01*
X48260D01*
X47480Y217784D01*
X46818Y217342D01*
X46376Y216680D01*
X46221Y215900D01*
X46221Y184747D01*
X45266Y183909D01*
X44140Y184058D01*
X37140D01*
X34790Y183748D01*
X32601Y182841D01*
X31583Y182060D01*
X25000D01*
X23173Y181820D01*
X21470Y181115D01*
X20008Y179993D01*
X12507Y172492D01*
X11386Y171030D01*
X10680Y169327D01*
X10440Y167500D01*
Y32500D01*
X10680Y30673D01*
X11386Y28970D01*
X12507Y27508D01*
X15840Y24176D01*
Y17740D01*
X15900Y17281D01*
Y5740D01*
X34900D01*
Y24740D01*
X29960D01*
Y27100D01*
X29720Y28927D01*
X29014Y30630D01*
X27892Y32092D01*
X24560Y35424D01*
Y84100D01*
X31557D01*
X32601Y83299D01*
X34790Y82392D01*
X37140Y82082D01*
X44140D01*
X46490Y82392D01*
X48679Y83299D01*
X50559Y84741D01*
X52001Y86621D01*
X52908Y88811D01*
X53218Y91160D01*
X52908Y93509D01*
X52001Y95699D01*
X50559Y97579D01*
X48679Y99021D01*
X46490Y99928D01*
X44140Y100238D01*
X37140D01*
X34790Y99928D01*
X32601Y99021D01*
X31557Y98220D01*
X24560D01*
Y164576D01*
X27924Y167940D01*
X31531D01*
X32601Y167118D01*
X34790Y166212D01*
X37140Y165902D01*
X44140D01*
X46490Y166212D01*
X48679Y167118D01*
X50559Y168561D01*
X51671Y170010D01*
X59288D01*
X61629Y170476D01*
X61935Y170681D01*
X79368D01*
X80480Y169411D01*
Y162530D01*
X96520D01*
Y159990D01*
X80480D01*
Y152220D01*
X81020Y152040D01*
Y135040D01*
X112020D01*
Y137076D01*
X115156Y140212D01*
X115163Y140209D01*
X116203Y139464D01*
X115912Y137998D01*
Y128670D01*
X114250D01*
Y115170D01*
X115912D01*
Y113430D01*
X114250D01*
Y99930D01*
X124621D01*
X125107Y98757D01*
X124159Y97808D01*
X119820D01*
X117869Y97420D01*
X116215Y96315D01*
X115110Y94661D01*
X114722Y92710D01*
X115110Y90759D01*
X116215Y89105D01*
X117869Y88000D01*
X119820Y87612D01*
X125820D01*
X127771Y88000D01*
X129425Y89105D01*
X130530Y90759D01*
X130640Y91312D01*
X134994Y95666D01*
X135989Y97155D01*
X136338Y98911D01*
Y99930D01*
X148572D01*
X149058Y98757D01*
X134071Y83770D01*
X129193D01*
X127771Y84720D01*
X125820Y85108D01*
X119820D01*
X117869Y84720D01*
X116215Y83615D01*
X116191Y83579D01*
X110348D01*
X109270Y84657D01*
Y93110D01*
X96810D01*
Y93650D01*
X91290D01*
Y86360D01*
X90020D01*
Y85090D01*
X83230D01*
Y79070D01*
X82730Y78660D01*
X82730D01*
Y72390D01*
X89770D01*
Y69850D01*
X82730D01*
Y63580D01*
X82998D01*
X83770Y62630D01*
X83770Y62310D01*
Y49130D01*
X85331D01*
Y43180D01*
X85603Y41814D01*
X86377Y40657D01*
X98031Y29002D01*
Y24045D01*
X96809Y23538D01*
X94824Y22016D01*
X93302Y20031D01*
X92345Y17720D01*
X92018Y15240D01*
X92345Y12760D01*
X93302Y10449D01*
X94824Y8465D01*
X96809Y6942D01*
X99120Y5985D01*
X101600Y5658D01*
X104080Y5985D01*
X106391Y6942D01*
X108376Y8465D01*
X109898Y10449D01*
X110856Y12760D01*
X111182Y15240D01*
X110856Y17720D01*
X109898Y20031D01*
X108376Y22016D01*
X106391Y23538D01*
X105169Y24045D01*
Y30480D01*
X104897Y31846D01*
X104123Y33003D01*
X92469Y44658D01*
Y48232D01*
X93367Y49130D01*
X96270Y49130D01*
X97540Y49130D01*
X109270D01*
Y62630D01*
X109270D01*
X109653Y63741D01*
X116191D01*
X116215Y63705D01*
X117869Y62600D01*
X119820Y62212D01*
X125820D01*
X127771Y62600D01*
X129425Y63705D01*
X130530Y65359D01*
X130918Y67310D01*
X130530Y69261D01*
X129425Y70915D01*
X127771Y72020D01*
X125820Y72408D01*
X119820D01*
X117869Y72020D01*
X116215Y70915D01*
X116191Y70879D01*
X109770D01*
Y76441D01*
X116191D01*
X116215Y76405D01*
X117869Y75300D01*
X119820Y74912D01*
X125820D01*
X127771Y75300D01*
X129425Y76405D01*
X129577Y76633D01*
X135549D01*
X136915Y76904D01*
X138072Y77678D01*
X159673Y99279D01*
X160108Y99930D01*
X165150D01*
Y113430D01*
X153420D01*
X152650Y113430D01*
Y113430D01*
X152150D01*
Y113430D01*
X128020D01*
X127250Y113430D01*
Y113430D01*
X126750D01*
Y113430D01*
X125088D01*
Y115170D01*
X126750D01*
Y115170D01*
X127250D01*
Y115170D01*
X139150D01*
Y114920D01*
X151380D01*
X152150Y114920D01*
X153420Y114920D01*
X165650D01*
Y117332D01*
X167090D01*
Y114920D01*
X167090D01*
Y113680D01*
X167090D01*
Y99680D01*
X169002D01*
Y93714D01*
X168802Y92710D01*
X169190Y90759D01*
X170295Y89105D01*
X171949Y88000D01*
X173900Y87612D01*
X179900D01*
X181851Y88000D01*
X183505Y89105D01*
X184610Y90759D01*
X184998Y92710D01*
X184610Y94661D01*
X183505Y96315D01*
X181851Y97420D01*
X179900Y97808D01*
X178178D01*
Y99680D01*
X180050D01*
Y99140D01*
X185820D01*
Y106680D01*
X187090D01*
Y107950D01*
X194130D01*
Y114220D01*
X194130D01*
Y114380D01*
X194130D01*
Y120650D01*
X187090D01*
Y121920D01*
X185820D01*
Y129460D01*
X180050D01*
Y128920D01*
X167090D01*
Y126508D01*
X165650D01*
Y128920D01*
X153420D01*
X152650Y128920D01*
X151908Y129883D01*
Y147500D01*
Y154940D01*
X151559Y156696D01*
X150564Y158184D01*
X149359Y159389D01*
X149359Y172720D01*
X149359Y172720D01*
Y182880D01*
X149359Y182880D01*
X149204Y183660D01*
X148762Y184322D01*
X148762Y184322D01*
X143682Y189402D01*
X143102Y189790D01*
X143089Y189883D01*
X143799Y191060D01*
X155441D01*
X155441Y157480D01*
X155596Y156700D01*
X156038Y156038D01*
X156700Y155596D01*
X157480Y155441D01*
X189655D01*
X193676Y151420D01*
X193370Y150150D01*
X193370D01*
Y144630D01*
X200660D01*
Y143360D01*
X201930D01*
Y136570D01*
X207950D01*
X208360Y136070D01*
Y136070D01*
X214630D01*
Y143110D01*
X215900D01*
Y144380D01*
X223440D01*
Y149091D01*
X224623Y150361D01*
X279400Y150361D01*
X280180Y150516D01*
X280842Y150958D01*
X281284Y151620D01*
X281439Y152400D01*
X281439Y185921D01*
X360000Y185921D01*
Y169679D01*
X345440D01*
X344660Y169524D01*
X343998Y169082D01*
X337812Y162896D01*
X336059Y162914D01*
X335660Y163329D01*
Y165000D01*
X335958Y165389D01*
X336916Y167700D01*
X337242Y170180D01*
X336916Y172660D01*
X335958Y174971D01*
X335660Y175360D01*
Y178180D01*
X332840D01*
X332451Y178478D01*
X330140Y179436D01*
X327660Y179762D01*
X318980D01*
Y180680D01*
X289980D01*
Y159680D01*
X295218D01*
Y145546D01*
X295544Y143066D01*
X296502Y140755D01*
X296531Y140716D01*
X296408Y140072D01*
X295034Y139650D01*
X293542Y141142D01*
X293542Y141142D01*
X292880Y141584D01*
X292100Y141739D01*
X276860D01*
X276080Y141584D01*
X275418Y141142D01*
X274976Y140480D01*
X274821Y139700D01*
Y126099D01*
X273915Y125625D01*
X273551Y125543D01*
X272980Y125924D01*
X272200Y126079D01*
X260031D01*
X259646Y126337D01*
X258280Y126609D01*
X254028D01*
X253130Y127507D01*
X253130Y129290D01*
X253130Y130560D01*
Y132471D01*
X258280D01*
X259646Y132743D01*
X260090Y133040D01*
X268280D01*
Y145040D01*
X255280D01*
Y139609D01*
X253130D01*
Y142290D01*
X226930D01*
Y130560D01*
X226930Y129790D01*
X226930Y128520D01*
Y116790D01*
X226930D01*
X227378Y115708D01*
X220005Y108334D01*
X211680D01*
X210404Y108080D01*
X209322Y107358D01*
X203519Y101554D01*
X203200Y101618D01*
X201249Y101230D01*
X199595Y100125D01*
X198490Y98471D01*
X198102Y96520D01*
X198490Y94569D01*
X199595Y92915D01*
X201249Y91810D01*
X203200Y91422D01*
X205151Y91810D01*
X206805Y92915D01*
X207558Y94043D01*
X209002D01*
X209755Y92915D01*
X211409Y91810D01*
X213360Y91422D01*
X215311Y91810D01*
X216965Y92915D01*
X217146Y93186D01*
X219599D01*
X222176Y90609D01*
X223258Y89886D01*
X224534Y89633D01*
X226930D01*
Y83770D01*
X246881D01*
Y78740D01*
X246881Y59431D01*
X245611Y59144D01*
X245023Y60023D01*
X242523Y62523D01*
X241366Y63297D01*
X240000Y63569D01*
X238380D01*
Y71750D01*
X231110D01*
Y60960D01*
X229840D01*
Y59690D01*
X221300D01*
Y52587D01*
X217460D01*
X215809Y54238D01*
Y56750D01*
X218490D01*
Y70250D01*
X209629D01*
X209143Y71423D01*
X210053Y72333D01*
X210151Y72479D01*
X212013Y74342D01*
X212139Y74530D01*
X218490D01*
Y88030D01*
X206760D01*
X205990Y88030D01*
Y88030D01*
X205490D01*
Y88030D01*
X192990D01*
Y85358D01*
X188990D01*
X187429Y85048D01*
X186566Y84471D01*
X182223D01*
X181851Y84720D01*
X179900Y85108D01*
X173900D01*
X171949Y84720D01*
X171004Y84088D01*
X166370D01*
X166370Y84088D01*
X164809Y83778D01*
X163486Y82894D01*
X163486Y82894D01*
X147116Y66524D01*
X146232Y65201D01*
X145922Y63640D01*
X145922Y63640D01*
Y39929D01*
X130193Y24200D01*
X129480Y24495D01*
X127000Y24822D01*
X124520Y24495D01*
X122209Y23538D01*
X120225Y22016D01*
X118702Y20031D01*
X117745Y17720D01*
X117418Y15240D01*
X117745Y12760D01*
X118702Y10449D01*
X120225Y8465D01*
X122209Y6942D01*
X124520Y5985D01*
X127000Y5658D01*
X129480Y5985D01*
X131791Y6942D01*
X133775Y8465D01*
X135298Y10449D01*
X136256Y12760D01*
X136582Y15240D01*
X136256Y17720D01*
X135960Y18433D01*
X152884Y35356D01*
X152884Y35356D01*
X153768Y36679D01*
X154078Y38240D01*
Y61951D01*
X168059Y75932D01*
X171004D01*
X171949Y75300D01*
X173900Y74912D01*
X179900D01*
X181851Y75300D01*
X183369Y76314D01*
X188102D01*
X188103Y76314D01*
X189663Y76625D01*
X190527Y77202D01*
X192990D01*
Y74530D01*
X200407D01*
X201066Y73260D01*
X200653Y72642D01*
X200381Y71277D01*
Y70250D01*
X192990D01*
X191962Y70833D01*
X191177Y71358D01*
X189421Y71707D01*
X182319D01*
X181851Y72020D01*
X179900Y72408D01*
X173900D01*
X171949Y72020D01*
X170295Y70915D01*
X169190Y69261D01*
X168802Y67310D01*
X169190Y65359D01*
X170295Y63705D01*
X171949Y62600D01*
X173900Y62212D01*
X179900D01*
X181501Y62530D01*
X187521D01*
X187894Y62157D01*
X189383Y61163D01*
X191138Y60813D01*
X192990D01*
Y56750D01*
X204720D01*
X205490Y56750D01*
Y56750D01*
X205990D01*
Y56750D01*
X208671D01*
Y52760D01*
X208943Y51394D01*
X209717Y50237D01*
X211193Y48760D01*
X210707Y47587D01*
X191970D01*
X184989Y54567D01*
X184998Y54610D01*
X184610Y56561D01*
X183505Y58215D01*
X181851Y59320D01*
X179900Y59708D01*
X173900D01*
X171949Y59320D01*
X170295Y58215D01*
X169190Y56561D01*
X168802Y54610D01*
X168928Y53976D01*
X168122Y52995D01*
X166513D01*
X166105Y53605D01*
X164451Y54710D01*
X162500Y55098D01*
X160549Y54710D01*
X158895Y53605D01*
X157790Y51951D01*
X157402Y50000D01*
X157790Y48049D01*
X158895Y46395D01*
X160549Y45290D01*
X162500Y44902D01*
X164451Y45290D01*
X165300Y45857D01*
X168414D01*
X177877Y36394D01*
X179034Y35621D01*
X180400Y35349D01*
X241800D01*
X242208Y34146D01*
X241441Y33558D01*
X239518Y31052D01*
X238309Y28133D01*
X237896Y25000D01*
X238309Y21867D01*
X239518Y18948D01*
X241441Y16442D01*
X243948Y14518D01*
X246867Y13309D01*
X250000Y12896D01*
X253133Y13309D01*
X256052Y14518D01*
X258559Y16442D01*
X260482Y18948D01*
X261691Y21867D01*
X262104Y25000D01*
X261691Y28133D01*
X260482Y31052D01*
X258559Y33558D01*
X256052Y35482D01*
X253133Y36691D01*
X250000Y37104D01*
X248787Y36944D01*
X248193Y38147D01*
X251478Y41431D01*
X267500D01*
X268866Y41703D01*
X270023Y42477D01*
X285023Y57477D01*
X285797Y58634D01*
X286069Y60000D01*
Y71022D01*
X287170Y72123D01*
X317250D01*
Y68942D01*
X328980D01*
X329750Y68942D01*
X331020Y68942D01*
X332931D01*
Y65626D01*
X328500D01*
Y45626D01*
X347500D01*
Y65626D01*
X340069D01*
Y68942D01*
X342750D01*
Y82442D01*
X331020D01*
X330250Y82442D01*
X328980Y82442D01*
X317250D01*
Y79261D01*
X285692D01*
X284326Y78989D01*
X283169Y78215D01*
X279977Y75023D01*
X279203Y73866D01*
X278931Y72500D01*
Y61478D01*
X277533Y60079D01*
X276359Y60565D01*
Y87398D01*
X277533Y87884D01*
X277958Y87458D01*
X278620Y87016D01*
X279400Y86861D01*
X360000D01*
Y2549D01*
X2549Y2549D01*
Y247451D01*
X49099D01*
X50000Y246181D01*
Y238790D01*
X66040D01*
Y237520D01*
X67310D01*
Y228480D01*
X95250D01*
Y237520D01*
X96520D01*
Y238790D01*
X112560D01*
Y246181D01*
X112560Y246560D01*
X113461Y247451D01*
X162221Y247451D01*
X162400Y247207D01*
D02*
G37*
G36*
X386588Y233812D02*
X386588Y187960D01*
X279400Y187960D01*
X279400Y152400D01*
X195580Y152400D01*
X190500Y157480D01*
X157480D01*
X157480Y238080D01*
X164400Y245000D01*
X375400Y245000D01*
X386588Y233812D01*
D02*
G37*
G36*
X111760Y193040D02*
X116840Y187960D01*
X142240Y187960D01*
X147320Y182880D01*
Y172720D01*
X147320Y172720D01*
X147320Y154940D01*
X127000Y154940D01*
X109220Y137160D01*
X83820Y137160D01*
Y149860D01*
X111760D01*
X116840Y154940D01*
Y170180D01*
X114300Y172720D01*
X48260Y172720D01*
X48260Y215900D01*
X111760Y215900D01*
X111760Y193040D01*
D02*
G37*
G36*
X373380Y162560D02*
Y149860D01*
X370840Y147320D01*
X355600D01*
X332740Y124460D01*
X276860D01*
Y139700D01*
X292100D01*
X297180Y134620D01*
X312420D01*
X317500Y139700D01*
Y149860D01*
X327660Y160020D01*
X337820Y160020D01*
X345440Y167640D01*
X368300D01*
X373380Y162560D01*
D02*
G37*
G36*
X335280Y119380D02*
X368300D01*
X373380Y114300D01*
Y101600D01*
X360680Y88900D01*
X279400D01*
X276860Y91440D01*
Y121920D01*
X332740D01*
X335280Y119380D01*
D02*
G37*
G36*
X274320Y121920D02*
Y58420D01*
X266700Y50800D01*
X254000D01*
X248920Y55880D01*
X248920Y78740D01*
X248920Y92211D01*
X256278Y99568D01*
X267208D01*
X268529Y100889D01*
X268529Y110947D01*
X266192Y113284D01*
X259080Y113284D01*
X257280Y115084D01*
X257280Y124040D01*
X272200D01*
X274320Y121920D01*
D02*
G37*
%LPC*%
G36*
X112560Y236250D02*
X97790D01*
Y228480D01*
X112560D01*
Y236250D01*
D02*
G37*
G36*
X64770D02*
X50000D01*
Y228480D01*
X64770D01*
Y236250D01*
D02*
G37*
G36*
X25000Y237104D02*
X21867Y236691D01*
X18948Y235482D01*
X16442Y233559D01*
X14518Y231052D01*
X13309Y228133D01*
X12896Y225000D01*
X13309Y221867D01*
X14518Y218948D01*
X16442Y216441D01*
X18948Y214518D01*
X21867Y213309D01*
X25000Y212896D01*
X28133Y213309D01*
X31052Y214518D01*
X33558Y216441D01*
X35482Y218948D01*
X36691Y221867D01*
X37104Y225000D01*
X36691Y228133D01*
X35482Y231052D01*
X33558Y233559D01*
X31052Y235482D01*
X28133Y236691D01*
X25000Y237104D01*
D02*
G37*
G36*
X44140Y149602D02*
X41910D01*
Y141250D01*
X53595D01*
X53434Y142471D01*
X52473Y144791D01*
X50944Y146784D01*
X48951Y148313D01*
X46630Y149275D01*
X44140Y149602D01*
D02*
G37*
G36*
X39370D02*
X37140D01*
X34650Y149275D01*
X32329Y148313D01*
X30336Y146784D01*
X28807Y144791D01*
X27846Y142471D01*
X27685Y141250D01*
X39370D01*
Y149602D01*
D02*
G37*
G36*
X199390Y142090D02*
X193370D01*
Y136570D01*
X199390D01*
Y142090D01*
D02*
G37*
G36*
X223440Y141840D02*
X217170D01*
Y136070D01*
X223440D01*
Y141840D01*
D02*
G37*
G36*
X53595Y138710D02*
X41910D01*
Y130358D01*
X44140D01*
X46630Y130686D01*
X48951Y131647D01*
X50944Y133176D01*
X52473Y135169D01*
X53434Y137490D01*
X53595Y138710D01*
D02*
G37*
G36*
X39370D02*
X27685D01*
X27846Y137490D01*
X28807Y135169D01*
X30336Y133176D01*
X32329Y131647D01*
X34650Y130686D01*
X37140Y130358D01*
X39370D01*
Y138710D01*
D02*
G37*
G36*
X194130Y129460D02*
X188360D01*
Y123190D01*
X194130D01*
Y129460D01*
D02*
G37*
G36*
X112560Y124580D02*
X97790D01*
Y116810D01*
X112560D01*
Y124580D01*
D02*
G37*
G36*
X95250D02*
X80480D01*
Y116810D01*
X95250D01*
Y124580D01*
D02*
G37*
G36*
X112560Y114270D02*
X97790D01*
Y106500D01*
X112560D01*
Y114270D01*
D02*
G37*
G36*
X95250D02*
X80480D01*
Y106500D01*
X95250D01*
Y114270D01*
D02*
G37*
G36*
X194130Y105410D02*
X188360D01*
Y99140D01*
X194130D01*
Y105410D01*
D02*
G37*
G36*
X88750Y93650D02*
X83230D01*
Y87630D01*
X88750D01*
Y93650D01*
D02*
G37*
G36*
X228570Y71750D02*
X221300D01*
Y62230D01*
X228570D01*
Y71750D01*
D02*
G37*
G36*
X44140Y65782D02*
X41910D01*
Y57430D01*
X53595D01*
X53434Y58650D01*
X52473Y60971D01*
X50944Y62964D01*
X48951Y64493D01*
X46630Y65455D01*
X44140Y65782D01*
D02*
G37*
G36*
X39370D02*
X37140D01*
X34650Y65455D01*
X32329Y64493D01*
X30336Y62964D01*
X28807Y60971D01*
X27846Y58650D01*
X27685Y57430D01*
X39370D01*
Y65782D01*
D02*
G37*
G36*
X312040Y66166D02*
X303270D01*
Y56896D01*
X312040D01*
Y66166D01*
D02*
G37*
G36*
X300730D02*
X291960D01*
Y56896D01*
X300730D01*
Y66166D01*
D02*
G37*
G36*
X125820Y60258D02*
X124090D01*
Y55880D01*
X131216D01*
X131039Y56772D01*
X129814Y58604D01*
X127982Y59829D01*
X125820Y60258D01*
D02*
G37*
G36*
X121550D02*
X119820D01*
X117658Y59829D01*
X115826Y58604D01*
X114601Y56772D01*
X114424Y55880D01*
X121550D01*
Y60258D01*
D02*
G37*
G36*
X131216Y53340D02*
X124090D01*
Y48962D01*
X125820D01*
X127982Y49391D01*
X129814Y50616D01*
X131039Y52448D01*
X131216Y53340D01*
D02*
G37*
G36*
X121550D02*
X114424D01*
X114601Y52448D01*
X115826Y50616D01*
X117658Y49391D01*
X119820Y48962D01*
X121550D01*
Y53340D01*
D02*
G37*
G36*
X53595Y54890D02*
X41910D01*
Y46538D01*
X44140D01*
X46630Y46866D01*
X48951Y47827D01*
X50944Y49356D01*
X52473Y51349D01*
X53434Y53670D01*
X53595Y54890D01*
D02*
G37*
G36*
X39370D02*
X27685D01*
X27846Y53670D01*
X28807Y51349D01*
X30336Y49356D01*
X32329Y47827D01*
X34650Y46866D01*
X37140Y46538D01*
X39370D01*
Y54890D01*
D02*
G37*
G36*
X312040Y54356D02*
X303270D01*
Y45086D01*
X312040D01*
Y54356D01*
D02*
G37*
G36*
X300730D02*
X291960D01*
Y45086D01*
X300730D01*
Y54356D01*
D02*
G37*
G36*
X312040Y42544D02*
X303270D01*
Y33274D01*
X312040D01*
Y42544D01*
D02*
G37*
G36*
X300730D02*
X291960D01*
Y33274D01*
X300730D01*
Y42544D01*
D02*
G37*
G36*
X312040Y30734D02*
X303270D01*
Y21464D01*
X312040D01*
Y30734D01*
D02*
G37*
G36*
X300730D02*
X291960D01*
Y21464D01*
X300730D01*
Y30734D01*
D02*
G37*
G36*
X347500Y42004D02*
X328500D01*
Y22004D01*
X332931D01*
Y19840D01*
X332033Y18942D01*
X330250Y18942D01*
X328980Y18942D01*
X317250D01*
Y17958D01*
X316268Y17152D01*
X315576Y17290D01*
X313625Y16902D01*
X311971Y15797D01*
X310866Y14143D01*
X310478Y12192D01*
X310866Y10241D01*
X311971Y8587D01*
X313625Y7482D01*
X315576Y7094D01*
X316268Y7232D01*
X317250Y6426D01*
Y5442D01*
X328980D01*
X329750Y5442D01*
X331020Y5442D01*
X342750D01*
Y18942D01*
X340069D01*
Y22004D01*
X347500D01*
Y42004D01*
D02*
G37*
G36*
X52070Y25199D02*
Y16510D01*
X60759D01*
X60582Y17861D01*
X59570Y20303D01*
X57961Y22401D01*
X55863Y24010D01*
X53421Y25022D01*
X52070Y25199D01*
D02*
G37*
G36*
X49530D02*
X48179Y25022D01*
X45737Y24010D01*
X43639Y22401D01*
X42030Y20303D01*
X41018Y17861D01*
X40841Y16510D01*
X49530D01*
Y25199D01*
D02*
G37*
G36*
X177800Y24822D02*
X175320Y24495D01*
X173009Y23538D01*
X171024Y22016D01*
X169502Y20031D01*
X168545Y17720D01*
X168218Y15240D01*
X168545Y12760D01*
X169502Y10449D01*
X171024Y8465D01*
X173009Y6942D01*
X175320Y5985D01*
X177800Y5658D01*
X180280Y5985D01*
X182591Y6942D01*
X184575Y8465D01*
X186098Y10449D01*
X187055Y12760D01*
X187382Y15240D01*
X187055Y17720D01*
X186098Y20031D01*
X184575Y22016D01*
X182591Y23538D01*
X180280Y24495D01*
X177800Y24822D01*
D02*
G37*
G36*
X152400D02*
X149920Y24495D01*
X147609Y23538D01*
X145625Y22016D01*
X144102Y20031D01*
X143145Y17720D01*
X142818Y15240D01*
X143145Y12760D01*
X144102Y10449D01*
X145625Y8465D01*
X147609Y6942D01*
X149920Y5985D01*
X152400Y5658D01*
X154880Y5985D01*
X157191Y6942D01*
X159175Y8465D01*
X160698Y10449D01*
X161656Y12760D01*
X161982Y15240D01*
X161656Y17720D01*
X160698Y20031D01*
X159175Y22016D01*
X157191Y23538D01*
X154880Y24495D01*
X152400Y24822D01*
D02*
G37*
G36*
X76200D02*
X73720Y24495D01*
X71409Y23538D01*
X69425Y22016D01*
X67902Y20031D01*
X66944Y17720D01*
X66618Y15240D01*
X66944Y12760D01*
X67902Y10449D01*
X69425Y8465D01*
X71409Y6942D01*
X73720Y5985D01*
X76200Y5658D01*
X78680Y5985D01*
X80991Y6942D01*
X82975Y8465D01*
X84498Y10449D01*
X85456Y12760D01*
X85782Y15240D01*
X85456Y17720D01*
X84498Y20031D01*
X82975Y22016D01*
X80991Y23538D01*
X78680Y24495D01*
X76200Y24822D01*
D02*
G37*
G36*
X60759Y13970D02*
X52070D01*
Y5281D01*
X53421Y5458D01*
X55863Y6470D01*
X57961Y8079D01*
X59570Y10177D01*
X60582Y12619D01*
X60759Y13970D01*
D02*
G37*
G36*
X49530D02*
X40841D01*
X41018Y12619D01*
X42030Y10177D01*
X43639Y8079D01*
X45737Y6470D01*
X48179Y5458D01*
X49530Y5281D01*
Y13970D01*
D02*
G37*
%LPD*%
D12*
X150000Y63640D02*
X166370Y80010D01*
X127000Y15240D02*
X150000Y38240D01*
Y63640D01*
X166370Y80010D02*
X176900D01*
X177283Y80393D01*
X188103D01*
X188990Y81280D02*
X199240D01*
X188103Y80393D02*
X188990Y81280D01*
X198353Y80393D02*
X199240Y81280D01*
D14*
X203200Y96520D02*
X211680Y105000D01*
X301459Y44356D02*
X302000Y43815D01*
X211680Y105000D02*
X221386D01*
X232854Y116468D01*
Y122214D02*
X233680Y123040D01*
X232854Y116468D02*
Y122214D01*
X220980Y96520D02*
X224534Y92966D01*
X213360Y96520D02*
X220980D01*
X215900Y143110D02*
X216082Y142928D01*
X224534Y92966D02*
X230733D01*
X233680Y90020D01*
D15*
X137160Y215611D02*
Y220100D01*
Y215611D02*
X142500Y210271D01*
Y210000D02*
Y210271D01*
X187100Y106690D02*
X194985D01*
X187090Y106680D02*
X187100Y106690D01*
X194985D02*
X194995Y106699D01*
X315576Y12192D02*
X323500D01*
X122820Y54610D02*
X134339D01*
X187090Y121920D02*
X195014D01*
X200660Y135436D02*
Y143360D01*
X216082Y135004D02*
Y142928D01*
X147320Y147500D02*
Y154940D01*
Y123590D02*
Y147500D01*
X136290Y145970D02*
X139240Y148920D01*
X145650Y121920D02*
X147320Y123590D01*
X139240Y148920D02*
Y149400D01*
X142240Y160020D02*
X147320Y154940D01*
X136290Y137160D02*
Y145970D01*
X124790Y144379D02*
X129540Y149129D01*
Y149400D01*
X197490Y65402D02*
X199240Y63651D01*
X189421Y67119D02*
X191138Y65402D01*
X197490D01*
X199240Y63500D02*
Y63651D01*
X177091Y67119D02*
X189421D01*
X176900Y67310D02*
X177091Y67119D01*
X173590Y106680D02*
Y121920D01*
Y93291D02*
Y106680D01*
X174171Y92710D02*
X176900D01*
X173590Y93291D02*
X174171Y92710D01*
X159150Y121920D02*
X173590D01*
X120500Y106680D02*
Y121920D01*
X123128Y137998D02*
X124790Y139660D01*
Y144379D01*
X120500Y121920D02*
Y137998D01*
X120790D02*
X123128D01*
X133500Y121920D02*
X145650D01*
X133500Y106680D02*
X145900D01*
X122820Y92710D02*
X125549D01*
X131750Y98911D01*
Y104930D01*
X133500Y106680D01*
D16*
X212240Y52760D02*
X215982Y49018D01*
X179900Y54610D02*
X190492Y44018D01*
X241518D02*
X251800Y54300D01*
X190492Y44018D02*
X241518D01*
X215982Y49018D02*
X239018D01*
X242500Y52500D01*
X243918Y38918D02*
X250000Y45000D01*
X267500D01*
X180400Y38918D02*
X243918D01*
X282500Y72500D02*
X285692Y75692D01*
X323500D01*
X282500Y60000D02*
Y72500D01*
X267500Y45000D02*
X282500Y60000D01*
X251800Y54300D02*
X253340D01*
X242500Y52500D02*
Y57500D01*
X240000Y60000D02*
X242500Y57500D01*
X169892Y49426D02*
X180400Y38918D01*
X212240Y52760D02*
Y63500D01*
X235000Y60000D02*
X240000D01*
X253340Y54300D02*
X257840Y58800D01*
Y60960D01*
X336500Y30504D02*
X338000Y32004D01*
X336500Y12192D02*
Y30504D01*
Y57126D02*
Y75692D01*
Y57126D02*
X338000Y55626D01*
X176900Y54610D02*
X179900D01*
X163074Y49426D02*
X169892D01*
X162500Y50000D02*
X163074Y49426D01*
X259473Y103553D02*
X261940Y106020D01*
X246380Y103020D02*
X246913Y103553D01*
X259473D01*
X246380Y136040D02*
X258280D01*
X233680D02*
X246380D01*
X258280D02*
X261280Y139040D01*
X261780D01*
X258280Y123040D02*
X261280Y120040D01*
X246380Y123040D02*
X258280D01*
X261280Y120040D02*
X261780D01*
X258440Y90020D02*
X261440Y87020D01*
X261940D01*
X246380Y90020D02*
X258440D01*
X233680Y103020D02*
X246380D01*
X103020Y85860D02*
X108870Y80010D01*
X103020Y85860D02*
Y86360D01*
X108870Y80010D02*
X122820D01*
X103020Y55880D02*
Y66120D01*
X104210Y67310D01*
X122820D01*
X88900Y43180D02*
Y54760D01*
X90020Y55880D01*
X88900Y43180D02*
X101600Y30480D01*
Y15240D02*
Y30480D01*
X209490Y76865D02*
Y78530D01*
X212240Y81280D01*
X207530Y74905D02*
X209490Y76865D01*
X207530Y74857D02*
Y74905D01*
X203950Y68507D02*
Y71277D01*
X207530Y74857D01*
X201990Y66750D02*
X202193D01*
X203950Y68507D01*
X199240Y64000D02*
X201990Y66750D01*
X199240Y63500D02*
Y64000D01*
X135549Y80201D02*
X157150Y101802D01*
Y104930D02*
X158900Y106680D01*
X157150Y101802D02*
Y104930D01*
X123011Y80201D02*
X135549D01*
X122820Y80010D02*
X123011Y80201D01*
X0Y250000D02*
X500000Y250000D01*
X0Y0D02*
Y250000D01*
X500000Y0D02*
Y250000D01*
X0Y0D02*
X500000Y0D01*
D17*
X257840Y60960D02*
D03*
X229840D02*
D03*
D18*
X240000Y60000D02*
D03*
X235000D02*
D03*
D19*
X338000Y55626D02*
D03*
X302000D02*
D03*
X338000Y32004D02*
D03*
X302000D02*
D03*
D20*
X336500Y75692D02*
D03*
X323500D02*
D03*
X120500Y106680D02*
D03*
X133500D02*
D03*
X145900D02*
D03*
X158900D02*
D03*
X336500Y12192D02*
D03*
X323500D02*
D03*
X212240Y63500D02*
D03*
X199240D02*
D03*
X199240Y81280D02*
D03*
X212240D02*
D03*
X90020Y86360D02*
D03*
X103020D02*
D03*
X103020Y55880D02*
D03*
X90020D02*
D03*
X133500Y121920D02*
D03*
X120500D02*
D03*
D21*
X96520Y143540D02*
D03*
Y115540D02*
D03*
X66040Y237520D02*
D03*
Y209520D02*
D03*
X96520D02*
D03*
Y237520D02*
D03*
Y189260D02*
D03*
Y161260D02*
D03*
D22*
X304800Y143840D02*
D03*
X327660Y170180D02*
D03*
D23*
X304800Y115240D02*
D03*
X327660Y141580D02*
D03*
D24*
X89770Y71120D02*
D03*
X103270D02*
D03*
X187090Y106680D02*
D03*
X173590D02*
D03*
X187090Y121920D02*
D03*
X173590D02*
D03*
X145650D02*
D03*
X159150D02*
D03*
X136290Y137160D02*
D03*
X122790D02*
D03*
D25*
X128520Y221120D02*
D03*
Y198120D02*
D03*
Y175120D02*
D03*
D26*
X187020Y198120D02*
D03*
D27*
X261780Y139040D02*
D03*
Y120040D02*
D03*
X281780Y129540D02*
D03*
X261940Y106020D02*
D03*
Y87020D02*
D03*
X281940Y96520D02*
D03*
D28*
X122820Y92710D02*
D03*
Y80010D02*
D03*
Y67310D02*
D03*
Y54610D02*
D03*
X176900Y92710D02*
D03*
Y80010D02*
D03*
Y67310D02*
D03*
Y54610D02*
D03*
D29*
X246380Y123040D02*
D03*
Y136040D02*
D03*
Y90020D02*
D03*
Y103020D02*
D03*
X233680Y123040D02*
D03*
Y136040D02*
D03*
Y90020D02*
D03*
Y103020D02*
D03*
X200660Y156360D02*
D03*
Y143360D02*
D03*
D30*
X304480Y170180D02*
D03*
X264480D02*
D03*
D31*
X215900Y143110D02*
D03*
Y156610D02*
D03*
D52*
X17500Y32500D02*
Y167500D01*
X17500Y91160D02*
X40640D01*
X17500Y91160D02*
X17500Y91160D01*
X25000Y175000D02*
X40620D01*
X40640Y174980D01*
X17500Y167500D02*
X25000Y175000D01*
X22900Y17740D02*
X25400Y15240D01*
X22900Y17740D02*
Y27100D01*
X17500Y32500D02*
X22900Y27100D01*
X352928Y155748D02*
X358948D01*
X360680Y157480D01*
X326720Y140640D02*
X327660Y141580D01*
X136140Y198120D02*
X162560D01*
D53*
X304800Y145546D02*
Y169860D01*
X304480Y170180D02*
X304800Y169860D01*
X304480Y170180D02*
X327660D01*
D54*
X259080Y195580D02*
X261980Y192680D01*
X263480Y170180D02*
X264480D01*
X261980Y171680D02*
X263480Y170180D01*
X261980Y171680D02*
Y192680D01*
X385920Y143796D02*
Y185580D01*
X360680Y132080D02*
X374204D01*
X385920Y143796D01*
X373380Y198120D02*
X385920Y185580D01*
X199140Y198120D02*
X204220Y193040D01*
D55*
X59288Y176128D02*
X60960Y177800D01*
X40640Y174980D02*
X41788Y176128D01*
X59288D01*
D56*
X482600Y25400D02*
Y106680D01*
X472440Y15240D02*
X482600Y25400D01*
X457200Y15240D02*
X472440D01*
X452120Y50800D02*
Y116840D01*
X431800Y30480D02*
X452120Y50800D01*
X431800Y15240D02*
Y30480D01*
X396240Y96520D02*
X457200Y157480D01*
X396240Y25400D02*
Y96520D01*
Y25400D02*
X406400Y15240D01*
X467360Y132080D02*
X482600D01*
X452120Y116840D02*
X467360Y132080D01*
X457200Y157480D02*
X482600D01*
D57*
X227920Y66355D02*
D03*
D58*
X302000Y43815D02*
D03*
D59*
X40640Y91160D02*
D03*
Y56160D02*
D03*
Y174980D02*
D03*
Y139980D02*
D03*
D60*
X406400Y15240D02*
D03*
X25400D02*
D03*
D61*
X431800D02*
D03*
X457200D02*
D03*
X177800D02*
D03*
X152400D02*
D03*
X127000D02*
D03*
X101600D02*
D03*
X50800D02*
D03*
X76200D02*
D03*
D62*
X482600Y132080D02*
D03*
X360680D02*
D03*
Y157480D02*
D03*
Y106680D02*
D03*
X482600D02*
D03*
Y157480D02*
D03*
D63*
X421640Y207137D02*
D03*
Y57023D02*
D03*
D64*
X187500Y135000D02*
D03*
X142500Y210000D02*
D03*
X194995Y106699D02*
D03*
X203200Y96520D02*
D03*
X287500Y25000D02*
D03*
Y37500D02*
D03*
Y50000D02*
D03*
X213360Y96520D02*
D03*
X100000Y100000D02*
D03*
X87500D02*
D03*
X72500Y45000D02*
D03*
Y60000D02*
D03*
Y75000D02*
D03*
Y90000D02*
D03*
Y105000D02*
D03*
Y120000D02*
D03*
Y135000D02*
D03*
Y150000D02*
D03*
Y165000D02*
D03*
X42500Y237500D02*
D03*
X120000D02*
D03*
X102500Y225000D02*
D03*
X87500D02*
D03*
X72500D02*
D03*
X57500D02*
D03*
X242500Y77500D02*
D03*
X235000D02*
D03*
X227500Y77500D02*
D03*
X162500Y50000D02*
D03*
X315576Y12192D02*
D03*
X134339Y54610D02*
D03*
X195014Y121920D02*
D03*
X200660Y135436D02*
D03*
X216082Y135004D02*
D03*
X139240Y149400D02*
D03*
X129540D02*
D03*
M02*
