G04*
G04 #@! TF.GenerationSoftware,Altium Limited,Altium Designer,21.1.0 (24)*
G04*
G04 Layer_Color=16777215*
%FSLAX44Y44*%
%MOMM*%
G71*
G04*
G04 #@! TF.SameCoordinates,11EEB628-8EEC-4D1F-BDFF-B4013DCA5F77*
G04*
G04*
G04 #@! TF.FilePolarity,Positive*
G04*
G01*
G75*
%ADD10C,0.2000*%
%ADD11C,0.2500*%
%ADD12C,0.4000*%
%ADD13C,0.1500*%
%ADD14C,0.2540*%
%ADD15C,0.5000*%
%ADD16C,0.3000*%
G36*
X57545Y37408D02*
X55566Y36485D01*
X51430Y35081D01*
X47165Y34136D01*
X42824Y33660D01*
X38456D01*
X34114Y34136D01*
X29850Y35081D01*
X25714Y36485D01*
X23735Y37408D01*
X23735D01*
X57545D01*
D02*
G37*
G36*
Y121228D02*
X55566Y120305D01*
X51430Y118901D01*
X47165Y117956D01*
X42824Y117480D01*
X38456D01*
X34114Y117956D01*
X29850Y118901D01*
X25714Y120305D01*
X23735Y121228D01*
X23735D01*
X57545D01*
D02*
G37*
G36*
X356969Y61902D02*
X357210D01*
X357469Y61883D01*
X357729Y61846D01*
X357988Y61809D01*
X358025D01*
X358099Y61791D01*
X358228Y61772D01*
X358395Y61735D01*
X358599Y61680D01*
X358803Y61624D01*
X359247Y61494D01*
Y59162D01*
X359228D01*
X359191Y59198D01*
X359136Y59236D01*
X359062Y59273D01*
X358858Y59384D01*
X358617Y59495D01*
X358599D01*
X358562Y59513D01*
X358488Y59550D01*
X358414Y59587D01*
X358191Y59661D01*
X357932Y59735D01*
X357914D01*
X357877Y59754D01*
X357803Y59773D01*
X357729Y59791D01*
X357506Y59847D01*
X357247Y59884D01*
X357229D01*
X357192Y59902D01*
X357118D01*
X357025Y59921D01*
X356821Y59939D01*
X356432D01*
X356321Y59921D01*
X356081Y59902D01*
X355803Y59847D01*
X355784D01*
X355747Y59828D01*
X355673Y59809D01*
X355599Y59791D01*
X355414Y59717D01*
X355210Y59606D01*
X355192D01*
X355173Y59587D01*
X355081Y59513D01*
X354951Y59402D01*
X354840Y59254D01*
X354822Y59217D01*
X354785Y59124D01*
X354729Y58976D01*
X354710Y58791D01*
Y58773D01*
Y58736D01*
Y58680D01*
X354729Y58625D01*
X354766Y58439D01*
X354859Y58273D01*
Y58254D01*
X354896Y58236D01*
X354970Y58143D01*
X355099Y57995D01*
X355266Y57847D01*
X355284D01*
X355321Y57810D01*
X355377Y57773D01*
X355451Y57736D01*
X355673Y57606D01*
X355933Y57458D01*
X355951D01*
X356007Y57421D01*
X356081Y57384D01*
X356192Y57347D01*
X356321Y57291D01*
X356469Y57217D01*
X356821Y57069D01*
X356858Y57051D01*
X356932Y57014D01*
X357062Y56958D01*
X357229Y56884D01*
X357414Y56791D01*
X357617Y56699D01*
X358025Y56458D01*
X358043Y56439D01*
X358117Y56403D01*
X358210Y56328D01*
X358340Y56254D01*
X358488Y56143D01*
X358636Y56014D01*
X358951Y55736D01*
X358969Y55717D01*
X359006Y55662D01*
X359080Y55588D01*
X359173Y55477D01*
X359266Y55347D01*
X359358Y55199D01*
X359543Y54829D01*
X359562Y54810D01*
X359580Y54736D01*
X359617Y54643D01*
X359654Y54495D01*
X359691Y54329D01*
X359710Y54125D01*
X359747Y53884D01*
Y53643D01*
Y53625D01*
Y53607D01*
Y53495D01*
X359728Y53310D01*
X359710Y53088D01*
X359654Y52847D01*
X359599Y52569D01*
X359506Y52310D01*
X359377Y52051D01*
X359358Y52033D01*
X359321Y51940D01*
X359228Y51829D01*
X359117Y51681D01*
X358988Y51514D01*
X358821Y51347D01*
X358636Y51181D01*
X358414Y51014D01*
X358395Y50996D01*
X358303Y50959D01*
X358173Y50884D01*
X358006Y50792D01*
X357803Y50699D01*
X357562Y50625D01*
X357284Y50533D01*
X356988Y50459D01*
X356951D01*
X356858Y50440D01*
X356692Y50403D01*
X356469Y50385D01*
X356229Y50347D01*
X355933Y50311D01*
X355618Y50292D01*
X355136D01*
X354951Y50311D01*
X354710D01*
X354451Y50329D01*
X354155Y50366D01*
X353525Y50459D01*
X353488D01*
X353396Y50496D01*
X353229Y50514D01*
X353044Y50570D01*
X352803Y50644D01*
X352581Y50718D01*
X352340Y50810D01*
X352099Y50922D01*
Y53421D01*
X352137Y53403D01*
X352211Y53329D01*
X352359Y53218D01*
X352525Y53106D01*
X352748Y52958D01*
X353007Y52810D01*
X353266Y52681D01*
X353562Y52551D01*
X353581D01*
X353599Y52533D01*
X353692Y52514D01*
X353859Y52458D01*
X354062Y52421D01*
X354303Y52366D01*
X354581Y52310D01*
X354877Y52292D01*
X355173Y52273D01*
X355340D01*
X355451Y52292D01*
X355729Y52310D01*
X356007Y52347D01*
X356025D01*
X356062Y52366D01*
X356136Y52384D01*
X356210Y52421D01*
X356414Y52495D01*
X356599Y52588D01*
X356618D01*
X356636Y52625D01*
X356729Y52699D01*
X356858Y52810D01*
X356951Y52958D01*
Y52977D01*
X356969Y52995D01*
X357025Y53088D01*
X357062Y53236D01*
X357080Y53403D01*
Y53421D01*
Y53458D01*
X357062Y53514D01*
Y53607D01*
X356988Y53792D01*
X356951Y53903D01*
X356877Y53995D01*
Y54014D01*
X356840Y54032D01*
X356747Y54162D01*
X356581Y54310D01*
X356358Y54477D01*
X356340Y54495D01*
X356303Y54514D01*
X356229Y54551D01*
X356155Y54606D01*
X356044Y54680D01*
X355914Y54755D01*
X355599Y54903D01*
X355581Y54921D01*
X355525Y54940D01*
X355433Y54977D01*
X355321Y55032D01*
X355173Y55088D01*
X355007Y55162D01*
X354636Y55310D01*
X354618D01*
X354581Y55328D01*
X354507Y55366D01*
X354414Y55403D01*
X354303Y55458D01*
X354192Y55532D01*
X353896Y55680D01*
X353581Y55884D01*
X353248Y56106D01*
X352951Y56384D01*
X352674Y56662D01*
Y56680D01*
X352655Y56699D01*
X352581Y56810D01*
X352470Y56976D01*
X352359Y57199D01*
X352248Y57476D01*
X352137Y57810D01*
X352062Y58162D01*
X352044Y58569D01*
Y58587D01*
Y58606D01*
Y58717D01*
X352062Y58884D01*
X352081Y59087D01*
X352137Y59328D01*
X352192Y59587D01*
X352285Y59847D01*
X352396Y60087D01*
X352414Y60124D01*
X352470Y60198D01*
X352544Y60310D01*
X352655Y60458D01*
X352785Y60624D01*
X352951Y60791D01*
X353136Y60958D01*
X353340Y61124D01*
X353377Y61143D01*
X353451Y61198D01*
X353581Y61272D01*
X353747Y61346D01*
X353951Y61458D01*
X354192Y61550D01*
X354451Y61643D01*
X354747Y61717D01*
X354766D01*
X354785Y61735D01*
X354896Y61754D01*
X355044Y61791D01*
X355266Y61828D01*
X355507Y61865D01*
X355803Y61883D01*
X356099Y61920D01*
X356747D01*
X356969Y61902D01*
D02*
G37*
G36*
X372672D02*
X372857D01*
X373060Y61883D01*
X373283Y61865D01*
X373764Y61791D01*
X374301Y61717D01*
X374838Y61587D01*
X375375Y61420D01*
Y59050D01*
X375356D01*
X375319Y59087D01*
X375245Y59124D01*
X375134Y59162D01*
X375005Y59236D01*
X374856Y59291D01*
X374690Y59365D01*
X374486Y59439D01*
X374264Y59495D01*
X374023Y59569D01*
X373745Y59643D01*
X373468Y59698D01*
X372857Y59773D01*
X372172Y59809D01*
X372023D01*
X371912Y59791D01*
X371783Y59773D01*
X371616Y59754D01*
X371264Y59680D01*
X370857Y59550D01*
X370431Y59365D01*
X370209Y59254D01*
X370005Y59124D01*
X369783Y58958D01*
X369598Y58773D01*
X369579Y58754D01*
X369561Y58717D01*
X369505Y58661D01*
X369450Y58587D01*
X369375Y58476D01*
X369283Y58365D01*
X369190Y58217D01*
X369116Y58050D01*
X369024Y57865D01*
X368931Y57662D01*
X368839Y57439D01*
X368764Y57199D01*
X368653Y56662D01*
X368635Y56365D01*
X368616Y56051D01*
Y56032D01*
Y55977D01*
Y55884D01*
X368635Y55773D01*
Y55625D01*
X368672Y55458D01*
X368727Y55069D01*
X368839Y54625D01*
X368987Y54180D01*
X369209Y53755D01*
X369357Y53551D01*
X369505Y53366D01*
X369524Y53347D01*
X369542Y53329D01*
X369598Y53273D01*
X369672Y53218D01*
X369764Y53144D01*
X369875Y53070D01*
X369987Y52977D01*
X370135Y52903D01*
X370486Y52718D01*
X370894Y52569D01*
X371375Y52458D01*
X371635Y52440D01*
X371912Y52421D01*
X372060D01*
X372227Y52440D01*
X372431Y52458D01*
X372672Y52477D01*
X372912Y52533D01*
X373134Y52588D01*
X373357Y52681D01*
Y54884D01*
X371098D01*
Y56902D01*
X375893D01*
Y51236D01*
X375875Y51218D01*
X375819Y51199D01*
X375727Y51144D01*
X375597Y51088D01*
X375430Y51014D01*
X375245Y50940D01*
X375023Y50848D01*
X374764Y50773D01*
X374486Y50681D01*
X374171Y50588D01*
X373820Y50514D01*
X373468Y50440D01*
X373079Y50385D01*
X372672Y50329D01*
X372227Y50311D01*
X371783Y50292D01*
X371672D01*
X371524Y50311D01*
X371338D01*
X371116Y50347D01*
X370838Y50366D01*
X370561Y50422D01*
X370227Y50477D01*
X369894Y50551D01*
X369542Y50662D01*
X369190Y50773D01*
X368839Y50922D01*
X368487Y51088D01*
X368135Y51292D01*
X367820Y51533D01*
X367505Y51792D01*
X367487Y51810D01*
X367431Y51866D01*
X367357Y51940D01*
X367265Y52070D01*
X367154Y52218D01*
X367005Y52403D01*
X366876Y52625D01*
X366728Y52866D01*
X366580Y53144D01*
X366450Y53458D01*
X366320Y53792D01*
X366191Y54162D01*
X366098Y54569D01*
X366024Y54995D01*
X365969Y55440D01*
X365950Y55921D01*
Y55958D01*
Y56032D01*
X365969Y56180D01*
Y56365D01*
X366006Y56588D01*
X366043Y56847D01*
X366098Y57143D01*
X366172Y57458D01*
X366246Y57791D01*
X366357Y58143D01*
X366506Y58495D01*
X366672Y58865D01*
X366857Y59217D01*
X367098Y59569D01*
X367357Y59921D01*
X367654Y60235D01*
X367672Y60254D01*
X367728Y60310D01*
X367839Y60384D01*
X367968Y60495D01*
X368135Y60624D01*
X368339Y60772D01*
X368579Y60921D01*
X368857Y61087D01*
X369172Y61235D01*
X369524Y61383D01*
X369894Y61532D01*
X370301Y61661D01*
X370727Y61772D01*
X371190Y61846D01*
X371690Y61902D01*
X372209Y61920D01*
X372505D01*
X372672Y61902D01*
D02*
G37*
G36*
X365080Y59754D02*
X364135D01*
Y52458D01*
X365080D01*
Y50496D01*
X360654D01*
Y52458D01*
X361599D01*
Y59754D01*
X360654D01*
Y61717D01*
X365080D01*
Y59754D01*
D02*
G37*
G36*
X373597Y26416D02*
X370801D01*
X368950Y33600D01*
Y33619D01*
X368931Y33693D01*
X368894Y33823D01*
X368876Y33971D01*
X368839Y34156D01*
X368801Y34378D01*
X368783Y34600D01*
X368764Y34860D01*
X368727D01*
Y34822D01*
X368709Y34730D01*
Y34600D01*
X368690Y34415D01*
X368653Y34211D01*
X368616Y34008D01*
X368579Y33804D01*
X368524Y33600D01*
X366617Y26416D01*
X363709D01*
X360765Y37637D01*
X363524D01*
X365098Y30156D01*
Y30138D01*
X365117Y30064D01*
X365135Y29971D01*
X365154Y29823D01*
X365172Y29638D01*
X365209Y29416D01*
X365228Y29156D01*
X365246Y28879D01*
X365283D01*
Y28897D01*
X365302Y28990D01*
Y29101D01*
X365320Y29268D01*
X365357Y29453D01*
X365395Y29675D01*
X365450Y29934D01*
X365524Y30193D01*
X367561Y37637D01*
X370264D01*
X372098Y30101D01*
Y30082D01*
X372116Y30027D01*
X372135Y29916D01*
X372153Y29786D01*
X372190Y29619D01*
X372209Y29397D01*
X372246Y29156D01*
X372283Y28879D01*
X372301D01*
Y28916D01*
Y28990D01*
X372320Y29119D01*
X372338Y29268D01*
X372357Y29471D01*
X372394Y29675D01*
X372468Y30138D01*
X374023Y37637D01*
X376578D01*
X373597Y26416D01*
D02*
G37*
G36*
X382374Y37619D02*
X382652Y37582D01*
X382948Y37545D01*
X383300Y37470D01*
X383670Y37378D01*
X384059Y37248D01*
X384430Y37100D01*
X384800Y36896D01*
X385152Y36637D01*
X385466Y36341D01*
X385726Y36008D01*
X385929Y35582D01*
X386003Y35359D01*
X386059Y35119D01*
X386077Y34860D01*
X386096Y34582D01*
Y34563D01*
Y34489D01*
Y34360D01*
X386077Y34230D01*
X386059Y34063D01*
X386022Y33878D01*
X385911Y33489D01*
Y33471D01*
X385874Y33397D01*
X385837Y33304D01*
X385781Y33193D01*
X385707Y33045D01*
X385615Y32897D01*
X385392Y32582D01*
X385374Y32564D01*
X385337Y32527D01*
X385263Y32452D01*
X385170Y32360D01*
X385059Y32249D01*
X384930Y32138D01*
X384763Y32008D01*
X384596Y31897D01*
X384578Y31878D01*
X384522Y31860D01*
X384430Y31804D01*
X384300Y31730D01*
X384152Y31675D01*
X383967Y31601D01*
X383578Y31453D01*
Y31416D01*
X383596D01*
X383615Y31397D01*
X383726Y31360D01*
X383874Y31267D01*
X384041Y31156D01*
X384059D01*
X384078Y31119D01*
X384189Y31045D01*
X384337Y30916D01*
X384504Y30749D01*
X384522Y30730D01*
X384541Y30712D01*
X384633Y30601D01*
X384781Y30453D01*
X384930Y30249D01*
X384948Y30230D01*
X384967Y30212D01*
X385059Y30082D01*
X385170Y29916D01*
X385281Y29731D01*
X387411Y26416D01*
X384504D01*
X382763Y29286D01*
Y29305D01*
X382726Y29342D01*
X382689Y29397D01*
X382633Y29490D01*
X382522Y29675D01*
X382374Y29879D01*
Y29897D01*
X382337Y29916D01*
X382263Y30027D01*
X382152Y30175D01*
X382022Y30323D01*
X381985Y30360D01*
X381911Y30434D01*
X381782Y30527D01*
X381633Y30601D01*
X381596Y30619D01*
X381504Y30656D01*
X381374Y30693D01*
X381208Y30712D01*
X380541D01*
Y26416D01*
X378004D01*
Y37637D01*
X382189D01*
X382374Y37619D01*
D02*
G37*
G36*
X356284D02*
X356395D01*
X356673Y37582D01*
X356988Y37526D01*
X357358Y37452D01*
X357747Y37341D01*
X358136Y37193D01*
X358525Y37008D01*
X358914Y36767D01*
X359284Y36470D01*
X359599Y36119D01*
X359877Y35711D01*
X359988Y35471D01*
X360080Y35230D01*
X360154Y34971D01*
X360210Y34674D01*
X360247Y34378D01*
X360265Y34045D01*
Y34026D01*
Y33971D01*
Y33878D01*
X360247Y33767D01*
X360228Y33619D01*
X360210Y33452D01*
X360173Y33267D01*
X360117Y33063D01*
X359969Y32638D01*
X359877Y32415D01*
X359747Y32175D01*
X359617Y31953D01*
X359451Y31730D01*
X359266Y31508D01*
X359043Y31304D01*
X359025Y31286D01*
X358988Y31267D01*
X358914Y31212D01*
X358821Y31138D01*
X358691Y31064D01*
X358543Y30971D01*
X358377Y30879D01*
X358173Y30786D01*
X357951Y30693D01*
X357710Y30601D01*
X357451Y30508D01*
X357155Y30434D01*
X356840Y30360D01*
X356507Y30305D01*
X356155Y30286D01*
X355784Y30268D01*
X354581D01*
Y26416D01*
X352044D01*
Y37637D01*
X356192D01*
X356284Y37619D01*
D02*
G37*
G36*
X21048Y93122D02*
X24566D01*
Y91641D01*
X21048D01*
Y88160D01*
X19585D01*
Y91641D01*
X16104D01*
Y93122D01*
X19585D01*
Y96603D01*
X21048D01*
Y93122D01*
D02*
G37*
G36*
Y176942D02*
X24566D01*
Y175461D01*
X21048D01*
Y171980D01*
X19585D01*
Y175461D01*
X16104D01*
Y176942D01*
X19585D01*
Y180424D01*
X21048D01*
Y176942D01*
D02*
G37*
%LPC*%
G36*
X381671Y35748D02*
X380541D01*
Y32619D01*
X381745D01*
X381893Y32638D01*
X382078Y32675D01*
X382300Y32730D01*
X382522Y32823D01*
X382726Y32934D01*
X382930Y33082D01*
X382948Y33101D01*
X383004Y33175D01*
X383096Y33267D01*
X383189Y33415D01*
X383263Y33582D01*
X383356Y33786D01*
X383411Y34008D01*
X383430Y34267D01*
Y34286D01*
Y34323D01*
X383411Y34397D01*
Y34508D01*
X383337Y34730D01*
X383282Y34878D01*
X383207Y35008D01*
X383115Y35137D01*
X383004Y35285D01*
X382856Y35397D01*
X382689Y35526D01*
X382485Y35619D01*
X382245Y35693D01*
X381985Y35730D01*
X381671Y35748D01*
D02*
G37*
G36*
X355562Y35693D02*
X354581D01*
Y32193D01*
X355655D01*
X355747Y32212D01*
X355877Y32230D01*
X356044Y32249D01*
X356210Y32286D01*
X356395Y32341D01*
X356581Y32415D01*
X356766Y32508D01*
X356951Y32619D01*
X357136Y32767D01*
X357284Y32934D01*
X357414Y33138D01*
X357506Y33378D01*
X357580Y33637D01*
X357599Y33952D01*
Y33971D01*
Y34026D01*
X357580Y34119D01*
X357562Y34230D01*
X357543Y34360D01*
X357488Y34508D01*
X357432Y34656D01*
X357340Y34822D01*
X357229Y34989D01*
X357099Y35137D01*
X356932Y35285D01*
X356747Y35415D01*
X356507Y35526D01*
X356229Y35619D01*
X355914Y35674D01*
X355562Y35693D01*
D02*
G37*
%LPD*%
D10*
X80640Y73660D02*
G03*
X80640Y73660I-40000J0D01*
G01*
X23735Y37408D02*
G03*
X57545Y37408I16905J36252D01*
G01*
X80640Y157480D02*
G03*
X80640Y157480I-40000J0D01*
G01*
X23735Y121228D02*
G03*
X57545Y121228I16905J36252D01*
G01*
X497500Y225000D02*
G03*
X497500Y225000I-22500J0D01*
G01*
X272500Y25000D02*
G03*
X272500Y25000I-22500J0D01*
G01*
X47500Y225000D02*
G03*
X47500Y225000I-22500J0D01*
G01*
X243840Y49960D02*
Y71960D01*
X220840Y49960D02*
Y52960D01*
Y49960D02*
X266840D01*
Y52960D01*
Y68960D02*
Y71960D01*
X220840D02*
X266840D01*
X220840Y68960D02*
Y71960D01*
X23735Y37408D02*
X57545D01*
X304800Y123540D02*
Y126540D01*
Y133540D02*
Y135540D01*
X300800Y126540D02*
X309800D01*
X304800Y133540D02*
X309800Y126540D01*
X300800D02*
X304800Y133540D01*
X299800D02*
X309800D01*
X393700Y2540D02*
X469900D01*
Y27940D01*
X393700D02*
X469900D01*
X393700Y2540D02*
Y27940D01*
X12700D02*
X190500D01*
X12700Y2540D02*
Y27940D01*
Y2540D02*
X190500D01*
Y27940D01*
X327660Y149880D02*
Y152880D01*
Y159880D02*
Y161880D01*
X323660Y152880D02*
X332660D01*
X327660Y159880D02*
X332660Y152880D01*
X323660D02*
X327660Y159880D01*
X322660D02*
X332660D01*
X23735Y121228D02*
X57545D01*
X142270Y164620D02*
Y231620D01*
X173270Y164620D02*
Y231620D01*
X142270D02*
X173270D01*
X142270Y164620D02*
X173270D01*
X269780Y144040D02*
X278780D01*
Y136790D02*
Y144040D01*
X269780Y115040D02*
X278780D01*
Y122290D01*
X264780Y126540D02*
Y132540D01*
X269940Y111020D02*
X278940D01*
Y103770D02*
Y111020D01*
X269940Y82020D02*
X278940D01*
Y89270D01*
X264940Y93520D02*
Y99520D01*
X133860Y53660D02*
Y93660D01*
X165860Y53660D02*
Y93660D01*
X133860D02*
X165860D01*
X133860Y53660D02*
X165860D01*
X279480Y170180D02*
X281480D01*
X288480D02*
X289480D01*
X281480Y165180D02*
Y174180D01*
Y165180D02*
X288480Y170180D01*
X281480Y174180D02*
X288480Y170180D01*
Y165180D02*
Y175180D01*
X321980Y153670D02*
Y167640D01*
X247650Y153670D02*
X321980D01*
X320040Y167640D02*
X321980D01*
X320040Y153670D02*
Y167640D01*
Y172720D02*
Y186690D01*
Y172720D02*
X321980D01*
X247650Y153670D02*
Y158430D01*
X321980Y172720D02*
Y186690D01*
X247650Y181930D02*
Y186690D01*
X321980D01*
X318754Y85501D02*
Y94499D01*
X323252D01*
X324752Y92999D01*
Y90000D01*
X323252Y88500D01*
X318754D01*
X321753D02*
X324752Y85501D01*
X327751D02*
X330750D01*
X329250D01*
Y94499D01*
X327751Y92999D01*
X341246Y94499D02*
X335248D01*
Y90000D01*
X338247Y91500D01*
X339747D01*
X341246Y90000D01*
Y87001D01*
X339747Y85501D01*
X336748D01*
X335248Y87001D01*
X279433Y48128D02*
X288431D01*
Y52627D01*
X286931Y54127D01*
X280933D01*
X279433Y52627D01*
Y48128D01*
Y63123D02*
Y57126D01*
X283932D01*
X282432Y60125D01*
Y61624D01*
X283932Y63123D01*
X286931D01*
X288431Y61624D01*
Y58625D01*
X286931Y57126D01*
X318081Y109342D02*
X327079D01*
Y113841D01*
X325579Y115340D01*
X319581D01*
X318081Y113841D01*
Y109342D01*
X327079Y122838D02*
X318081D01*
X322580Y118340D01*
Y124338D01*
X45598Y209902D02*
X47097Y211402D01*
Y214401D01*
X45598Y215900D01*
X39599D01*
X38100Y214401D01*
Y211402D01*
X39599Y209902D01*
X47097Y206903D02*
Y200905D01*
X45598D01*
X39599Y206903D01*
X38100D01*
X202619Y7742D02*
X193622D01*
Y12241D01*
X195121Y13741D01*
X198120D01*
X199620Y12241D01*
Y7742D01*
X202619Y22738D02*
Y16739D01*
X196621Y22738D01*
X195121D01*
X193622Y21238D01*
Y18239D01*
X195121Y16739D01*
X390578Y9242D02*
X381581D01*
Y13741D01*
X383081Y15240D01*
X386080D01*
X387579Y13741D01*
Y9242D01*
X390578Y18239D02*
Y21238D01*
Y19739D01*
X381581D01*
X383081Y18239D01*
X155521Y141658D02*
X149523D01*
Y137160D01*
X152522D01*
X149523D01*
Y132662D01*
X158520Y141658D02*
Y132662D01*
X163019D01*
X164519Y134161D01*
Y135660D01*
X163019Y137160D01*
X158520D01*
X163019D01*
X164519Y138659D01*
Y140159D01*
X163019Y141658D01*
X158520D01*
X167518Y132662D02*
X170517D01*
X169017D01*
Y141658D01*
X167518Y140159D01*
X279941Y24506D02*
X288939D01*
Y29005D01*
X287439Y30505D01*
X281441D01*
X279941Y29005D01*
Y24506D01*
X281441Y33503D02*
X279941Y35003D01*
Y38002D01*
X281441Y39502D01*
X282941D01*
X284440Y38002D01*
Y36502D01*
Y38002D01*
X285940Y39502D01*
X287439D01*
X288939Y38002D01*
Y35003D01*
X287439Y33503D01*
X64831Y74119D02*
X63332Y75619D01*
X60333D01*
X58833Y74119D01*
Y68121D01*
X60333Y66621D01*
X63332D01*
X64831Y68121D01*
X67830Y66621D02*
X70829D01*
X69330D01*
Y75619D01*
X67830Y74119D01*
X75328Y66621D02*
X78327D01*
X76827D01*
Y75619D01*
X75328Y74119D01*
X202468Y109895D02*
X200968Y111394D01*
X197969D01*
X196470Y109895D01*
Y103897D01*
X197969Y102397D01*
X200968D01*
X202468Y103897D01*
X205467Y102397D02*
X208466D01*
X206966D01*
Y111394D01*
X205467Y109895D01*
X212964D02*
X214464Y111394D01*
X217463D01*
X218963Y109895D01*
Y103897D01*
X217463Y102397D01*
X214464D01*
X212964Y103897D01*
Y109895D01*
X178841Y140159D02*
X177341Y141658D01*
X174342D01*
X172842Y140159D01*
Y134161D01*
X174342Y132662D01*
X177341D01*
X178841Y134161D01*
X181840D02*
X183339Y132662D01*
X186338D01*
X187838Y134161D01*
Y140159D01*
X186338Y141658D01*
X183339D01*
X181840Y140159D01*
Y138659D01*
X183339Y137160D01*
X187838D01*
X122961Y155399D02*
X121461Y156898D01*
X118462D01*
X116962Y155399D01*
Y149401D01*
X118462Y147901D01*
X121461D01*
X122961Y149401D01*
X125960Y155399D02*
X127459Y156898D01*
X130458D01*
X131958Y155399D01*
Y153899D01*
X130458Y152400D01*
X131958Y150900D01*
Y149401D01*
X130458Y147901D01*
X127459D01*
X125960Y149401D01*
Y150900D01*
X127459Y152400D01*
X125960Y153899D01*
Y155399D01*
X127459Y152400D02*
X130458D01*
X193582Y90396D02*
Y99393D01*
X198081D01*
X199580Y97894D01*
Y94895D01*
X198081Y93395D01*
X193582D01*
X196581D02*
X199580Y90396D01*
X202579D02*
X205578D01*
X204079D01*
Y99393D01*
X202579Y97894D01*
X216075Y90396D02*
X210077D01*
X216075Y96394D01*
Y97894D01*
X214575Y99393D01*
X211576D01*
X210077Y97894D01*
X124338Y240382D02*
X125837Y241882D01*
Y244881D01*
X124338Y246380D01*
X118340D01*
X116840Y244881D01*
Y241882D01*
X118340Y240382D01*
X125837Y231385D02*
X124338Y234384D01*
X121339Y237383D01*
X118340D01*
X116840Y235883D01*
Y232884D01*
X118340Y231385D01*
X119839D01*
X121339Y232884D01*
Y237383D01*
X175260Y47097D02*
Y39599D01*
X176759Y38100D01*
X179758D01*
X181258Y39599D01*
Y47097D01*
X184257Y38100D02*
X187256D01*
X185757D01*
Y47097D01*
X184257Y45598D01*
X452120Y202037D02*
X458118D01*
X455119D01*
Y193040D01*
X461117D02*
X464116D01*
X462617D01*
Y202037D01*
X461117Y200538D01*
X293320Y7112D02*
Y16109D01*
X297819D01*
X299318Y14610D01*
Y11610D01*
X297819Y10111D01*
X293320D01*
X296319D02*
X299318Y7112D01*
X302317D02*
X305316D01*
X303817D01*
Y16109D01*
X302317Y14610D01*
X314313Y7112D02*
Y16109D01*
X309815Y11610D01*
X315813D01*
X195780Y47220D02*
Y56217D01*
X200278D01*
X201778Y54717D01*
Y51719D01*
X200278Y50219D01*
X195780D01*
X198779D02*
X201778Y47220D01*
X204777D02*
X207776D01*
X206277D01*
Y56217D01*
X204777Y54717D01*
X212275D02*
X213774Y56217D01*
X216773D01*
X218273Y54717D01*
Y53218D01*
X216773Y51719D01*
X215274D01*
X216773D01*
X218273Y50219D01*
Y48720D01*
X216773Y47220D01*
X213774D01*
X212275Y48720D01*
X276860Y48260D02*
X267863D01*
Y52758D01*
X269363Y54258D01*
X272362D01*
X273861Y52758D01*
Y48260D01*
Y51259D02*
X276860Y54258D01*
Y57257D02*
Y60256D01*
Y58757D01*
X267863D01*
X269363Y57257D01*
X276860Y64755D02*
Y67754D01*
Y66254D01*
X267863D01*
X269363Y64755D01*
X248920Y144780D02*
X239923D01*
Y149278D01*
X241422Y150778D01*
X244422D01*
X245921Y149278D01*
Y144780D01*
Y147779D02*
X248920Y150778D01*
Y153777D02*
Y156776D01*
Y155277D01*
X239923D01*
X241422Y153777D01*
Y161275D02*
X239923Y162774D01*
Y165773D01*
X241422Y167273D01*
X247421D01*
X248920Y165773D01*
Y162774D01*
X247421Y161275D01*
X241422D01*
X241300Y73660D02*
Y82657D01*
X245798D01*
X247298Y81158D01*
Y78158D01*
X245798Y76659D01*
X241300D01*
X244299D02*
X247298Y73660D01*
X250297Y75160D02*
X251797Y73660D01*
X254796D01*
X256295Y75160D01*
Y81158D01*
X254796Y82657D01*
X251797D01*
X250297Y81158D01*
Y79658D01*
X251797Y78158D01*
X256295D01*
X76200Y96520D02*
Y105517D01*
X80698D01*
X82198Y104018D01*
Y101018D01*
X80698Y99519D01*
X76200D01*
X79199D02*
X82198Y96520D01*
X85197Y104018D02*
X86697Y105517D01*
X89696D01*
X91195Y104018D01*
Y102518D01*
X89696Y101018D01*
X91195Y99519D01*
Y98020D01*
X89696Y96520D01*
X86697D01*
X85197Y98020D01*
Y99519D01*
X86697Y101018D01*
X85197Y102518D01*
Y104018D01*
X86697Y101018D02*
X89696D01*
X236220Y144780D02*
X227223D01*
Y149278D01*
X228722Y150778D01*
X231721D01*
X233221Y149278D01*
Y144780D01*
Y147779D02*
X236220Y150778D01*
X227223Y153777D02*
Y159775D01*
X228722D01*
X234720Y153777D01*
X236220D01*
X60960Y50800D02*
Y59797D01*
X65458D01*
X66958Y58298D01*
Y55299D01*
X65458Y53799D01*
X60960D01*
X63959D02*
X66958Y50800D01*
X75955Y59797D02*
X72956Y58298D01*
X69957Y55299D01*
Y52299D01*
X71457Y50800D01*
X74456D01*
X75955Y52299D01*
Y53799D01*
X74456Y55299D01*
X69957D01*
X220840Y74500D02*
Y83497D01*
X225338D01*
X226838Y81998D01*
Y78998D01*
X225338Y77499D01*
X220840D01*
X223839D02*
X226838Y74500D01*
X235835Y83497D02*
X229837D01*
Y78998D01*
X232836Y80498D01*
X234336D01*
X235835Y78998D01*
Y75999D01*
X234336Y74500D01*
X231337D01*
X229837Y75999D01*
X144780Y88900D02*
Y97897D01*
X149278D01*
X150778Y96398D01*
Y93399D01*
X149278Y91899D01*
X144780D01*
X147779D02*
X150778Y88900D01*
X158276D02*
Y97897D01*
X153777Y93399D01*
X159775D01*
X96520Y96520D02*
Y105517D01*
X101018D01*
X102518Y104018D01*
Y101018D01*
X101018Y99519D01*
X96520D01*
X99519D02*
X102518Y96520D01*
X105517Y104018D02*
X107017Y105517D01*
X110016D01*
X111515Y104018D01*
Y102518D01*
X110016Y101018D01*
X108516D01*
X110016D01*
X111515Y99519D01*
Y98020D01*
X110016Y96520D01*
X107017D01*
X105517Y98020D01*
X205740Y116840D02*
X196743D01*
Y121339D01*
X198242Y122838D01*
X201241D01*
X202741Y121339D01*
Y116840D01*
Y119839D02*
X205740Y122838D01*
Y131835D02*
Y125837D01*
X199742Y131835D01*
X198242D01*
X196743Y130336D01*
Y127337D01*
X198242Y125837D01*
X149860Y152400D02*
Y161397D01*
X154359D01*
X155858Y159898D01*
Y156898D01*
X154359Y155399D01*
X149860D01*
X152859D02*
X155858Y152400D01*
X158857D02*
X161856D01*
X160357D01*
Y161397D01*
X158857Y159898D01*
X288060Y143158D02*
X282062D01*
X280563Y141658D01*
Y138659D01*
X282062Y137160D01*
X288060D01*
X289560Y138659D01*
Y141658D01*
X286561Y140159D02*
X289560Y143158D01*
Y141658D02*
X288060Y143158D01*
X282062Y146157D02*
X280563Y147657D01*
Y150656D01*
X282062Y152155D01*
X283562D01*
X285061Y150656D01*
Y149156D01*
Y150656D01*
X286561Y152155D01*
X288060D01*
X289560Y150656D01*
Y147657D01*
X288060Y146157D01*
X288500Y80998D02*
X282502D01*
X281003Y79499D01*
Y76500D01*
X282502Y75000D01*
X288500D01*
X290000Y76500D01*
Y79499D01*
X287001Y77999D02*
X290000Y80998D01*
Y79499D02*
X288500Y80998D01*
X290000Y89995D02*
Y83997D01*
X284002Y89995D01*
X282502D01*
X281003Y88496D01*
Y85497D01*
X282502Y83997D01*
X153318Y237719D02*
Y243718D01*
X151819Y245217D01*
X148820D01*
X147320Y243718D01*
Y237719D01*
X148820Y236220D01*
X151819D01*
X150319Y239219D02*
X153318Y236220D01*
X151819D02*
X153318Y237719D01*
X156317Y236220D02*
X159316D01*
X157817D01*
Y245217D01*
X156317Y243718D01*
X331363Y109220D02*
X340360D01*
Y113719D01*
X338861Y115218D01*
X332862D01*
X331363Y113719D01*
Y109220D01*
X340360Y124215D02*
Y118217D01*
X334362Y124215D01*
X332862D01*
X331363Y122716D01*
Y119717D01*
X332862Y118217D01*
X256540Y156317D02*
Y147320D01*
X261038D01*
X262538Y148820D01*
Y154818D01*
X261038Y156317D01*
X256540D01*
X265537Y147320D02*
X268536D01*
X267037D01*
Y156317D01*
X265537Y154818D01*
X68702Y158398D02*
X67203Y156898D01*
Y153899D01*
X68702Y152400D01*
X74700D01*
X76200Y153899D01*
Y156898D01*
X74700Y158398D01*
X67203Y167395D02*
Y161397D01*
X71701D01*
X70202Y164396D01*
Y165896D01*
X71701Y167395D01*
X74700D01*
X76200Y165896D01*
Y162897D01*
X74700Y161397D01*
X68702Y117758D02*
X67203Y116258D01*
Y113259D01*
X68702Y111760D01*
X74700D01*
X76200Y113259D01*
Y116258D01*
X74700Y117758D01*
X76200Y125256D02*
X67203D01*
X71701Y120757D01*
Y126755D01*
X213482Y122838D02*
X211983Y121339D01*
Y118340D01*
X213482Y116840D01*
X219480D01*
X220980Y118340D01*
Y121339D01*
X219480Y122838D01*
X213482Y125837D02*
X211983Y127337D01*
Y130336D01*
X213482Y131835D01*
X214982D01*
X216481Y130336D01*
Y128836D01*
Y130336D01*
X217981Y131835D01*
X219480D01*
X220980Y130336D01*
Y127337D01*
X219480Y125837D01*
X5202Y110138D02*
X3703Y108638D01*
Y105639D01*
X5202Y104140D01*
X11200D01*
X12700Y105639D01*
Y108638D01*
X11200Y110138D01*
X12700Y119135D02*
Y113137D01*
X6702Y119135D01*
X5202D01*
X3703Y117636D01*
Y114637D01*
X5202Y113137D01*
Y193958D02*
X3703Y192458D01*
Y189459D01*
X5202Y187960D01*
X11200D01*
X12700Y189459D01*
Y192458D01*
X11200Y193958D01*
X12700Y196957D02*
Y199956D01*
Y198457D01*
X3703D01*
X5202Y196957D01*
D11*
X129770Y231620D02*
G03*
X129770Y231620I-1250J0D01*
G01*
X113750Y92500D02*
G03*
X113750Y92500I-1250J0D01*
G01*
D12*
X143860Y85660D02*
G03*
X143860Y85660I-2000J0D01*
G01*
D13*
X349210Y44626D02*
Y47626D01*
X292060Y44626D02*
X349210D01*
X292060D02*
Y53086D01*
Y58166D02*
Y66626D01*
X349210D01*
Y63626D02*
Y66626D01*
X320000Y44626D02*
Y66626D01*
Y55626D02*
X325080Y51816D01*
X320000Y55626D02*
X325080Y59436D01*
X317460Y55626D02*
X320000D01*
X325080D02*
X327620D01*
X325080Y51816D02*
Y59436D01*
X290790Y66626D02*
X292060D01*
X290790Y58166D02*
Y66626D01*
Y58166D02*
X292060D01*
X290790Y44626D02*
X292060D01*
X290790D02*
Y53086D01*
X292060D01*
X330000Y68692D02*
Y82692D01*
X342700Y68692D02*
Y70612D01*
X317300Y68692D02*
X342700D01*
X317300D02*
Y70612D01*
Y80772D02*
Y82692D01*
X342700D01*
Y80772D02*
Y82692D01*
X80270Y105790D02*
X84020D01*
X80270D02*
Y153290D01*
X84020D01*
X109020D02*
X112770D01*
Y105790D02*
Y153290D01*
X109020Y105790D02*
X112770D01*
X80270Y129540D02*
X112770D01*
X127000Y99680D02*
Y113680D01*
X114300Y111760D02*
Y113680D01*
X139700D01*
Y111760D02*
Y113680D01*
Y99680D02*
Y101600D01*
X114300Y99680D02*
X139700D01*
X114300D02*
Y101600D01*
X311550Y105410D02*
X314960D01*
X294640D02*
X298050D01*
X314960D02*
Y152400D01*
X294640Y105410D02*
Y152400D01*
X307340D02*
X314960D01*
X307340D02*
Y153670D01*
X314960D01*
Y152400D02*
Y153670D01*
X294640Y152400D02*
Y153670D01*
X302260D01*
Y152400D02*
Y153670D01*
X294640Y152400D02*
X302260D01*
X82520Y64120D02*
Y67120D01*
Y64120D02*
X110520D01*
Y67120D01*
Y75120D02*
Y78120D01*
X82520D02*
X110520D01*
X82520Y75120D02*
Y78120D01*
X96520Y64120D02*
Y78120D01*
X349210Y21004D02*
Y24004D01*
X292060Y21004D02*
X349210D01*
X292060D02*
Y29464D01*
Y34544D02*
Y43004D01*
X349210D01*
Y40004D02*
Y43004D01*
X320000Y21004D02*
Y43004D01*
Y32004D02*
X325080Y28194D01*
X320000Y32004D02*
X325080Y35814D01*
X317460Y32004D02*
X320000D01*
X325080D02*
X327620D01*
X325080Y28194D02*
Y35814D01*
X290790Y43004D02*
X292060D01*
X290790Y34544D02*
Y43004D01*
Y34544D02*
X292060D01*
X290790Y21004D02*
X292060D01*
X290790D02*
Y29464D01*
X292060D01*
X194340Y110680D02*
Y113680D01*
X166340D02*
X194340D01*
X166340Y110680D02*
Y113680D01*
Y99680D02*
Y102680D01*
Y99680D02*
X194340D01*
Y102680D01*
X180340Y99680D02*
Y113680D01*
X194340Y125920D02*
Y128920D01*
X166340D02*
X194340D01*
X166340Y125920D02*
Y128920D01*
Y114920D02*
Y117920D01*
Y114920D02*
X194340D01*
Y117920D01*
X180340Y114920D02*
Y128920D01*
X138400Y114920D02*
Y117920D01*
Y114920D02*
X166400D01*
Y117920D01*
Y125920D02*
Y128920D01*
X138400D02*
X166400D01*
X138400Y125920D02*
Y128920D01*
X152400Y114920D02*
Y128920D01*
X143540Y141160D02*
Y144160D01*
X115540D02*
X143540D01*
X115540Y141160D02*
Y144160D01*
Y130160D02*
Y133160D01*
Y130160D02*
X143540D01*
Y133160D01*
X129540Y130160D02*
Y144160D01*
X334410Y131750D02*
X337820D01*
X317500D02*
X320910D01*
X337820D02*
Y178740D01*
X317500Y131750D02*
Y178740D01*
X330200D02*
X337820D01*
X330200D02*
Y180010D01*
X337820D01*
Y178740D02*
Y180010D01*
X317500Y178740D02*
Y180010D01*
X325120D01*
Y178740D02*
Y180010D01*
X317500Y178740D02*
X325120D01*
X152400Y99680D02*
Y113680D01*
X139700Y111760D02*
Y113680D01*
X165100D01*
Y111760D02*
Y113680D01*
Y99680D02*
Y101600D01*
X139700Y99680D02*
X165100D01*
X139700D02*
Y101600D01*
X49790Y223520D02*
X82290D01*
X49790Y247270D02*
X53540D01*
X49790Y199770D02*
Y247270D01*
Y199770D02*
X53540D01*
X78540D02*
X82290D01*
Y247270D01*
X78540D02*
X82290D01*
X330000Y5192D02*
Y19192D01*
X342700Y5192D02*
Y7112D01*
X317300Y5192D02*
X342700D01*
X317300D02*
Y7112D01*
Y17272D02*
Y19192D01*
X342700D01*
Y17272D02*
Y19192D01*
X205740Y56500D02*
Y70500D01*
X218440Y56500D02*
Y58420D01*
X193040Y56500D02*
X218440D01*
X193040D02*
Y58420D01*
Y68580D02*
Y70500D01*
X218440D01*
Y68580D02*
Y70500D01*
X205740Y74280D02*
Y88280D01*
X193040Y86360D02*
Y88280D01*
X218440D01*
Y86360D02*
Y88280D01*
Y74280D02*
Y76200D01*
X193040Y74280D02*
X218440D01*
X193040D02*
Y76200D01*
X239380Y129540D02*
X253380D01*
X239380Y116840D02*
X241300D01*
X239380D02*
Y142240D01*
X241300D01*
X251460D02*
X253380D01*
Y116840D02*
Y142240D01*
X251460Y116840D02*
X253380D01*
X239380Y96520D02*
X253380D01*
X239380Y83820D02*
X241300D01*
X239380D02*
Y109220D01*
X241300D01*
X251460D02*
X253380D01*
Y83820D02*
Y109220D01*
X251460Y83820D02*
X253380D01*
X96520Y79360D02*
Y93360D01*
X83820Y91440D02*
Y93360D01*
X109220D01*
Y91440D02*
Y93360D01*
Y79360D02*
Y81280D01*
X83820Y79360D02*
X109220D01*
X83820D02*
Y81280D01*
X226680Y129540D02*
X240680D01*
X226680Y116840D02*
X228600D01*
X226680D02*
Y142240D01*
X228600D01*
X238760D02*
X240680D01*
Y116840D02*
Y142240D01*
X238760Y116840D02*
X240680D01*
X96520Y48880D02*
Y62880D01*
X109220Y48880D02*
Y50800D01*
X83820Y48880D02*
X109220D01*
X83820D02*
Y50800D01*
Y60960D02*
Y62880D01*
X109220D01*
Y60960D02*
Y62880D01*
X226680Y96520D02*
X240680D01*
X226680Y83820D02*
X228600D01*
X226680D02*
Y109220D01*
X228600D01*
X238760D02*
X240680D01*
Y83820D02*
Y109220D01*
X238760Y83820D02*
X240680D01*
X193660Y149860D02*
X207660D01*
X205740Y162560D02*
X207660D01*
Y137160D02*
Y162560D01*
X205740Y137160D02*
X207660D01*
X193660D02*
X195580D01*
X193660D02*
Y162560D01*
X195580D01*
X127000Y114920D02*
Y128920D01*
X139700Y114920D02*
Y116840D01*
X114300Y114920D02*
X139700D01*
X114300D02*
Y116840D01*
Y127000D02*
Y128920D01*
X139700D01*
Y127000D02*
Y128920D01*
X109020Y247270D02*
X112770D01*
Y199770D02*
Y247270D01*
X109020Y199770D02*
X112770D01*
X80270D02*
X84020D01*
X80270D02*
Y247270D01*
X84020D01*
X80270Y223520D02*
X112770D01*
X80270Y151510D02*
X84020D01*
X80270D02*
Y199010D01*
X84020D01*
X109020D02*
X112770D01*
Y151510D02*
Y199010D01*
X109020Y151510D02*
X112770D01*
X80270Y175260D02*
X112770D01*
X219900Y135860D02*
X222900D01*
Y163860D01*
X219900D02*
X222900D01*
X208900D02*
X211900D01*
X208900Y135860D02*
Y163860D01*
Y135860D02*
X211900D01*
X208900Y149860D02*
X222900D01*
D14*
X142181Y130578D02*
X149860Y149860D01*
D15*
X15240Y45720D02*
X50800D01*
Y33020D02*
X62850Y45070D01*
X162560Y33020D02*
X167640Y38100D01*
X152400Y33020D02*
X164450Y45070D01*
X142240Y33020D02*
X154290Y45070D01*
X132080Y33020D02*
X144130Y45070D01*
X121920Y33020D02*
X133970Y45070D01*
X111760Y33020D02*
X123810Y45070D01*
X101600Y33020D02*
X113650Y45070D01*
X91440Y33020D02*
X103490Y45070D01*
X81280Y33020D02*
X93330Y45070D01*
X71120Y33020D02*
X83170Y45070D01*
X60960Y33020D02*
X73010Y45070D01*
D16*
X346583Y77089D02*
Y187071D01*
X396240D02*
Y228600D01*
X447040D01*
Y187071D02*
Y228600D01*
X396240Y35560D02*
Y77089D01*
Y35560D02*
X447040D01*
Y77089D01*
X496697D02*
Y187071D01*
X346583Y77089D02*
X396240D01*
X447040D02*
X497840D01*
X346583Y187071D02*
X396240D01*
X447040D02*
X496697D01*
X0Y250000D02*
X500000Y250000D01*
X0Y0D02*
Y250000D01*
X500000Y0D02*
Y250000D01*
X0Y0D02*
X500000Y0D01*
M02*
