G04*
G04 #@! TF.GenerationSoftware,Altium Limited,Altium Designer,21.1.0 (24)*
G04*
G04 Layer_Color=32896*
%FSLAX44Y44*%
%MOMM*%
G71*
G04*
G04 #@! TF.SameCoordinates,11EEB628-8EEC-4D1F-BDFF-B4013DCA5F77*
G04*
G04*
G04 #@! TF.FilePolarity,Positive*
G04*
G01*
G75*
%ADD10C,0.2000*%
%ADD15C,0.5000*%
%ADD16C,0.3000*%
%ADD52C,1.0000*%
%ADD65R,2.3016X0.2000*%
%ADD66R,2.3027X0.2000*%
%ADD67R,2.3005X0.2016*%
%ADD68R,2.3008X0.2010*%
%ADD69R,2.3250X0.2000*%
G36*
X301207Y73434D02*
X301318Y73420D01*
X301401Y73378D01*
X301484Y73337D01*
X301540Y73295D01*
X301581Y73267D01*
X301609Y73240D01*
X301623Y73226D01*
X301692Y73143D01*
X301748Y73060D01*
X301775Y72962D01*
X301803Y72879D01*
X301817Y72810D01*
X301831Y72754D01*
Y72713D01*
Y72699D01*
X301817Y72588D01*
X301803Y72491D01*
X301762Y72394D01*
X301720Y72324D01*
X301692Y72255D01*
X301651Y72214D01*
X301637Y72186D01*
X301623Y72172D01*
X301540Y72102D01*
X301443Y72047D01*
X301360Y72019D01*
X301276Y71992D01*
X301207Y71978D01*
X301151Y71964D01*
X301096D01*
X300985Y71978D01*
X300888Y71992D01*
X300791Y72033D01*
X300721Y72075D01*
X300652Y72102D01*
X300611Y72144D01*
X300583Y72158D01*
X300569Y72172D01*
X300500Y72255D01*
X300444Y72352D01*
X300403Y72435D01*
X300375Y72519D01*
X300361Y72588D01*
X300347Y72643D01*
Y72685D01*
Y72699D01*
X300361Y72810D01*
X300375Y72907D01*
X300416Y73004D01*
X300458Y73073D01*
X300500Y73143D01*
X300527Y73184D01*
X300555Y73212D01*
X300569Y73226D01*
X300652Y73295D01*
X300749Y73351D01*
X300833Y73392D01*
X300916Y73420D01*
X300985Y73434D01*
X301040Y73448D01*
X301096D01*
X301207Y73434D01*
D02*
G37*
G36*
X279447Y64031D02*
X278851D01*
X278435Y64641D01*
X278338Y64544D01*
X278227Y64461D01*
X278005Y64322D01*
X277894Y64267D01*
X277811Y64225D01*
X277756Y64211D01*
X277742Y64198D01*
X277561Y64142D01*
X277395Y64100D01*
X277242Y64073D01*
X277090Y64059D01*
X276979Y64045D01*
X276882Y64031D01*
X276798D01*
X276535Y64045D01*
X276271Y64073D01*
X276036Y64114D01*
X275814Y64184D01*
X275606Y64253D01*
X275412Y64336D01*
X275245Y64419D01*
X275079Y64517D01*
X274940Y64600D01*
X274815Y64683D01*
X274718Y64766D01*
X274621Y64836D01*
X274552Y64905D01*
X274510Y64946D01*
X274482Y64974D01*
X274469Y64988D01*
X274316Y65182D01*
X274177Y65376D01*
X274067Y65598D01*
X273969Y65806D01*
X273872Y66028D01*
X273803Y66250D01*
X273706Y66680D01*
X273664Y66874D01*
X273636Y67054D01*
X273623Y67221D01*
X273609Y67359D01*
X273595Y67470D01*
Y67568D01*
Y67623D01*
Y67637D01*
X273609Y67900D01*
X273636Y68164D01*
X273678Y68414D01*
X273734Y68635D01*
X273789Y68857D01*
X273872Y69051D01*
X273942Y69232D01*
X274025Y69398D01*
X274108Y69551D01*
X274177Y69689D01*
X274261Y69800D01*
X274316Y69897D01*
X274372Y69967D01*
X274413Y70022D01*
X274441Y70050D01*
X274455Y70064D01*
X274621Y70230D01*
X274802Y70383D01*
X274982Y70508D01*
X275162Y70619D01*
X275356Y70716D01*
X275536Y70785D01*
X275731Y70854D01*
X275897Y70896D01*
X276063Y70938D01*
X276216Y70965D01*
X276355Y70993D01*
X276466Y71007D01*
X276563Y71021D01*
X276702D01*
X276868Y71007D01*
X277034Y70993D01*
X277201Y70951D01*
X277339Y70924D01*
X277450Y70882D01*
X277547Y70841D01*
X277603Y70827D01*
X277631Y70813D01*
X277783Y70743D01*
X277922Y70660D01*
X278033Y70591D01*
X278116Y70535D01*
X278172Y70480D01*
X278227Y70438D01*
X278241Y70411D01*
X278255Y70397D01*
Y73670D01*
X279447D01*
Y64031D01*
D02*
G37*
G36*
X356750Y64156D02*
X355557D01*
Y69149D01*
X355460Y69273D01*
X355363Y69384D01*
X355252Y69495D01*
X355141Y69578D01*
X355044Y69648D01*
X354961Y69703D01*
X354905Y69731D01*
X354892Y69745D01*
X354725Y69828D01*
X354572Y69897D01*
X354420Y69939D01*
X354281Y69981D01*
X354170Y69995D01*
X354087Y70008D01*
X354018D01*
X353782Y69995D01*
X353560Y69939D01*
X353380Y69870D01*
X353241Y69787D01*
X353116Y69703D01*
X353033Y69634D01*
X352978Y69578D01*
X352964Y69565D01*
X352839Y69384D01*
X352742Y69204D01*
X352686Y69010D01*
X352631Y68816D01*
X352603Y68649D01*
X352589Y68511D01*
Y68455D01*
Y68414D01*
Y68400D01*
Y68386D01*
Y64156D01*
X351397D01*
Y68386D01*
Y68608D01*
X351424Y68816D01*
X351494Y69204D01*
X351591Y69537D01*
X351646Y69676D01*
X351702Y69814D01*
X351757Y69925D01*
X351813Y70022D01*
X351868Y70119D01*
X351910Y70189D01*
X351951Y70244D01*
X351979Y70286D01*
X351993Y70300D01*
X352007Y70314D01*
X352132Y70438D01*
X352257Y70549D01*
X352381Y70646D01*
X352520Y70730D01*
X352811Y70854D01*
X353075Y70938D01*
X353311Y70979D01*
X353421Y70993D01*
X353505Y71007D01*
X353588Y71021D01*
X353685D01*
X353893Y71007D01*
X354101Y70979D01*
X354281Y70938D01*
X354448Y70896D01*
X354586Y70854D01*
X354697Y70813D01*
X354767Y70785D01*
X354794Y70771D01*
X354975Y70674D01*
X355141Y70563D01*
X355266Y70466D01*
X355377Y70369D01*
X355460Y70286D01*
X355516Y70216D01*
X355543Y70161D01*
X355557Y70147D01*
Y73670D01*
X356750D01*
Y64156D01*
D02*
G37*
G36*
X293538D02*
X292345D01*
Y69149D01*
X292248Y69273D01*
X292151Y69384D01*
X292040Y69495D01*
X291929Y69578D01*
X291832Y69648D01*
X291749Y69703D01*
X291693Y69731D01*
X291679Y69745D01*
X291513Y69828D01*
X291360Y69897D01*
X291208Y69939D01*
X291069Y69981D01*
X290958Y69995D01*
X290875Y70008D01*
X290806D01*
X290570Y69995D01*
X290348Y69939D01*
X290168Y69870D01*
X290029Y69787D01*
X289904Y69703D01*
X289821Y69634D01*
X289765Y69578D01*
X289752Y69565D01*
X289627Y69384D01*
X289530Y69204D01*
X289474Y69010D01*
X289419Y68816D01*
X289391Y68649D01*
X289377Y68511D01*
Y68455D01*
Y68414D01*
Y68400D01*
Y68386D01*
Y64156D01*
X288185D01*
Y68386D01*
Y68608D01*
X288212Y68816D01*
X288282Y69204D01*
X288379Y69537D01*
X288434Y69676D01*
X288490Y69814D01*
X288545Y69925D01*
X288601Y70022D01*
X288656Y70119D01*
X288698Y70189D01*
X288739Y70244D01*
X288767Y70286D01*
X288781Y70300D01*
X288795Y70314D01*
X288920Y70438D01*
X289044Y70549D01*
X289169Y70646D01*
X289308Y70730D01*
X289599Y70854D01*
X289863Y70938D01*
X290098Y70979D01*
X290209Y70993D01*
X290292Y71007D01*
X290376Y71021D01*
X290473D01*
X290681Y71007D01*
X290889Y70979D01*
X291069Y70938D01*
X291236Y70896D01*
X291374Y70854D01*
X291485Y70813D01*
X291555Y70785D01*
X291582Y70771D01*
X291763Y70674D01*
X291929Y70563D01*
X292054Y70466D01*
X292165Y70369D01*
X292248Y70286D01*
X292303Y70216D01*
X292331Y70161D01*
X292345Y70147D01*
Y73670D01*
X293538D01*
Y64156D01*
D02*
G37*
G36*
X251516Y71007D02*
X251697Y70979D01*
X251863Y70938D01*
X252030Y70882D01*
X252321Y70730D01*
X252584Y70577D01*
X252778Y70411D01*
X252862Y70327D01*
X252931Y70258D01*
X252987Y70203D01*
X253028Y70161D01*
X253042Y70133D01*
X253056Y70119D01*
X253458Y70896D01*
X254235D01*
Y64156D01*
X253042D01*
Y69135D01*
X252973Y69246D01*
X252875Y69357D01*
X252792Y69468D01*
X252695Y69551D01*
X252612Y69620D01*
X252543Y69689D01*
X252487Y69717D01*
X252473Y69731D01*
X252321Y69828D01*
X252182Y69897D01*
X252043Y69939D01*
X251933Y69981D01*
X251835Y69995D01*
X251752Y70008D01*
X251697D01*
X251475Y69995D01*
X251281Y69967D01*
X251114Y69911D01*
X250976Y69870D01*
X250865Y69814D01*
X250781Y69759D01*
X250726Y69731D01*
X250712Y69717D01*
X250587Y69606D01*
X250490Y69468D01*
X250421Y69343D01*
X250365Y69218D01*
X250338Y69107D01*
X250324Y69010D01*
Y68954D01*
Y68927D01*
Y64156D01*
X249131D01*
Y69135D01*
X249076Y69260D01*
X248992Y69370D01*
X248909Y69468D01*
X248826Y69565D01*
X248743Y69634D01*
X248673Y69689D01*
X248632Y69717D01*
X248618Y69731D01*
X248479Y69828D01*
X248327Y69897D01*
X248188Y69939D01*
X248063Y69981D01*
X247966Y69995D01*
X247869Y70008D01*
X247800D01*
X247550Y69995D01*
X247342Y69939D01*
X247162Y69856D01*
X246995Y69759D01*
X246857Y69634D01*
X246746Y69509D01*
X246663Y69357D01*
X246579Y69218D01*
X246524Y69065D01*
X246482Y68913D01*
X246455Y68788D01*
X246441Y68663D01*
X246427Y68566D01*
X246413Y68483D01*
Y68427D01*
Y68414D01*
Y64156D01*
X245220D01*
Y68649D01*
X245248Y69051D01*
X245317Y69398D01*
X245401Y69689D01*
X245511Y69939D01*
X245622Y70147D01*
X245664Y70216D01*
X245706Y70286D01*
X245747Y70327D01*
X245775Y70369D01*
X245789Y70397D01*
X245803D01*
X245914Y70508D01*
X246038Y70605D01*
X246302Y70757D01*
X246565Y70868D01*
X246829Y70938D01*
X247065Y70993D01*
X247162Y71007D01*
X247245D01*
X247328Y71021D01*
X247425D01*
X247633Y71007D01*
X247841Y70979D01*
X248036Y70938D01*
X248202Y70896D01*
X248341Y70841D01*
X248451Y70799D01*
X248521Y70771D01*
X248549Y70757D01*
X248743Y70660D01*
X248895Y70549D01*
X249034Y70438D01*
X249131Y70341D01*
X249200Y70258D01*
X249256Y70189D01*
X249284Y70133D01*
X249298Y70119D01*
X249422Y70272D01*
X249547Y70411D01*
X249700Y70535D01*
X249852Y70646D01*
X250019Y70730D01*
X250199Y70799D01*
X250532Y70910D01*
X250837Y70979D01*
X250976Y70993D01*
X251087Y71007D01*
X251184Y71021D01*
X251322D01*
X251516Y71007D01*
D02*
G37*
G36*
X325823Y71007D02*
X325962Y70979D01*
X326073Y70924D01*
X326170Y70882D01*
X326253Y70827D01*
X326309Y70771D01*
X326350Y70743D01*
X326364Y70730D01*
X326447Y70619D01*
X326517Y70508D01*
X326558Y70397D01*
X326600Y70300D01*
X326614Y70203D01*
X326628Y70133D01*
Y70078D01*
Y70064D01*
X326614Y69925D01*
X326586Y69800D01*
X326544Y69689D01*
X326489Y69592D01*
X326447Y69509D01*
X326406Y69454D01*
X326378Y69412D01*
X326364Y69398D01*
X326253Y69301D01*
X326142Y69232D01*
X326031Y69190D01*
X325920Y69162D01*
X325823Y69135D01*
X325754Y69121D01*
X325685D01*
X325546Y69135D01*
X325421Y69162D01*
X325296Y69204D01*
X325199Y69260D01*
X325130Y69315D01*
X325074Y69357D01*
X325033Y69384D01*
X325019Y69398D01*
X324922Y69509D01*
X324852Y69620D01*
X324811Y69731D01*
X324769Y69842D01*
X324756Y69925D01*
X324742Y69995D01*
Y70050D01*
Y70064D01*
X324756Y70203D01*
X324783Y70327D01*
X324825Y70452D01*
X324880Y70549D01*
X324936Y70619D01*
X324977Y70674D01*
X325005Y70716D01*
X325019Y70730D01*
X325130Y70827D01*
X325241Y70896D01*
X325352Y70951D01*
X325449Y70979D01*
X325546Y71007D01*
X325615Y71021D01*
X325685D01*
X325823Y71007D01*
D02*
G37*
G36*
X305035Y70605D02*
X305270Y70743D01*
X305520Y70841D01*
X305784Y70924D01*
X306033Y70965D01*
X306255Y70993D01*
X306352Y71007D01*
X306435Y71021D01*
X306602D01*
X306796Y71007D01*
X306990Y70993D01*
X307337Y70910D01*
X307656Y70799D01*
X307919Y70674D01*
X308127Y70535D01*
X308211Y70480D01*
X308280Y70424D01*
X308349Y70383D01*
X308391Y70341D01*
X308405Y70327D01*
X308419Y70314D01*
X308543Y70175D01*
X308654Y70036D01*
X308765Y69884D01*
X308848Y69745D01*
X308973Y69440D01*
X309056Y69162D01*
X309112Y68927D01*
X309126Y68816D01*
X309140Y68733D01*
X309153Y68649D01*
Y68594D01*
Y68566D01*
Y68552D01*
X309140Y68261D01*
X309098Y67984D01*
X309029Y67720D01*
X308932Y67498D01*
X308821Y67290D01*
X308710Y67096D01*
X308571Y66930D01*
X308446Y66777D01*
X308307Y66652D01*
X308183Y66528D01*
X308072Y66444D01*
X307961Y66361D01*
X307864Y66306D01*
X307794Y66264D01*
X307753Y66250D01*
X307739Y66236D01*
X307919Y66195D01*
X308086Y66125D01*
X308224Y66070D01*
X308335Y66000D01*
X308432Y65945D01*
X308516Y65890D01*
X308557Y65862D01*
X308571Y65848D01*
X308682Y65737D01*
X308765Y65640D01*
X308821Y65529D01*
X308862Y65446D01*
X308890Y65363D01*
X308904Y65293D01*
Y65252D01*
Y65238D01*
X308890Y65044D01*
X308848Y64877D01*
X308765Y64738D01*
X308682Y64614D01*
X308571Y64503D01*
X308446Y64419D01*
X308321Y64350D01*
X308183Y64295D01*
X307933Y64211D01*
X307808Y64184D01*
X307697Y64170D01*
X307600D01*
X307531Y64156D01*
X307351D01*
X307212Y64170D01*
X307073Y64184D01*
X306948Y64211D01*
X306824Y64225D01*
X306726Y64239D01*
X306671Y64253D01*
X306643D01*
X306463Y64295D01*
X306311Y64322D01*
X306172Y64336D01*
X306075Y64350D01*
X306005Y64364D01*
X305908D01*
X305700Y64350D01*
X305520Y64322D01*
X305354Y64295D01*
X305215Y64239D01*
X305104Y64170D01*
X305007Y64100D01*
X304924Y64031D01*
X304868Y63962D01*
X304813Y63879D01*
X304785Y63809D01*
X304729Y63671D01*
Y63615D01*
X304716Y63587D01*
Y63560D01*
Y63546D01*
X304729Y63393D01*
X304785Y63268D01*
X304868Y63144D01*
X304951Y63046D01*
X305035Y62963D01*
X305118Y62908D01*
X305173Y62866D01*
X305187Y62852D01*
X305381Y62755D01*
X305589Y62686D01*
X305797Y62630D01*
X306005Y62603D01*
X306199Y62575D01*
X306338Y62561D01*
X306477D01*
X306643Y62575D01*
X306810Y62589D01*
X307157Y62672D01*
X307475Y62783D01*
X307780Y62908D01*
X307919Y62977D01*
X308044Y63033D01*
X308141Y63088D01*
X308238Y63144D01*
X308321Y63185D01*
X308377Y63227D01*
X308405Y63241D01*
X308419Y63254D01*
X309056Y62312D01*
X308890Y62187D01*
X308696Y62090D01*
X308502Y61993D01*
X308321Y61909D01*
X308155Y61840D01*
X308030Y61785D01*
X307975Y61771D01*
X307933Y61757D01*
X307919Y61743D01*
X307905D01*
X307628Y61660D01*
X307378Y61604D01*
X307143Y61563D01*
X306935Y61535D01*
X306768Y61521D01*
X306630Y61507D01*
X306518D01*
X306061Y61535D01*
X305645Y61604D01*
X305451Y61646D01*
X305284Y61687D01*
X305118Y61743D01*
X304979Y61798D01*
X304840Y61854D01*
X304729Y61909D01*
X304632Y61951D01*
X304549Y61993D01*
X304480Y62034D01*
X304438Y62062D01*
X304410Y62090D01*
X304397D01*
X304244Y62200D01*
X304119Y62312D01*
X304008Y62436D01*
X303911Y62561D01*
X303828Y62686D01*
X303759Y62825D01*
X303662Y63060D01*
X303592Y63268D01*
X303578Y63366D01*
X303564Y63449D01*
X303551Y63504D01*
Y63560D01*
Y63587D01*
Y63601D01*
X303578Y63892D01*
X303634Y64156D01*
X303731Y64378D01*
X303828Y64572D01*
X303939Y64711D01*
X304036Y64822D01*
X304091Y64877D01*
X304119Y64905D01*
X304341Y65071D01*
X304591Y65182D01*
X304854Y65265D01*
X305104Y65335D01*
X305326Y65363D01*
X305423Y65376D01*
X305506D01*
X305576Y65390D01*
X305784D01*
X305922Y65376D01*
X306199Y65335D01*
X306338Y65321D01*
X306435Y65293D01*
X306505Y65279D01*
X306532D01*
X306726Y65252D01*
X306907Y65224D01*
X307045Y65210D01*
X307170Y65196D01*
X307253Y65182D01*
X307489D01*
X307572Y65196D01*
X307725Y65224D01*
X307836Y65265D01*
X307905Y65307D01*
X307961Y65349D01*
X307975Y65390D01*
X307989Y65418D01*
Y65432D01*
X307975Y65501D01*
X307947Y65571D01*
X307836Y65668D01*
X307739Y65723D01*
X307711Y65751D01*
X307697D01*
X307489Y65820D01*
X307406Y65848D01*
X307337Y65862D01*
X307281Y65876D01*
X307240Y65890D01*
X307212D01*
X306227Y66000D01*
X305853Y66056D01*
X305520Y66167D01*
X305243Y66292D01*
X304993Y66430D01*
X304799Y66555D01*
X304660Y66666D01*
X304618Y66708D01*
X304577Y66749D01*
X304563Y66763D01*
X304549Y66777D01*
X304438Y66916D01*
X304341Y67055D01*
X304175Y67346D01*
X304064Y67623D01*
X303995Y67900D01*
X303939Y68136D01*
X303925Y68233D01*
Y68330D01*
X303911Y68400D01*
Y68455D01*
Y68483D01*
Y68497D01*
X303925Y68843D01*
X303981Y69149D01*
X304064Y69412D01*
X304147Y69634D01*
X304230Y69814D01*
X304313Y69939D01*
X304369Y70022D01*
X304383Y70050D01*
X303648Y70591D01*
X304438Y71326D01*
X305035Y70605D01*
D02*
G37*
G36*
X349275Y72297D02*
Y70896D01*
X350051D01*
Y69953D01*
X349275D01*
Y66125D01*
X349247Y65792D01*
X349192Y65501D01*
X349108Y65252D01*
X348997Y65030D01*
X348900Y64849D01*
X348817Y64725D01*
X348762Y64641D01*
X348734Y64627D01*
Y64614D01*
X348512Y64419D01*
X348290Y64281D01*
X348054Y64170D01*
X347846Y64100D01*
X347652Y64059D01*
X347514Y64045D01*
X347458Y64031D01*
X347375D01*
X347056Y64045D01*
X346751Y64059D01*
X346473Y64087D01*
X346224Y64128D01*
X346016Y64156D01*
X345933Y64170D01*
X345863Y64184D01*
X345808Y64198D01*
X345766D01*
X345752Y64211D01*
X345738D01*
X345919Y65279D01*
X346099Y65196D01*
X346279Y65141D01*
X346446Y65099D01*
X346584Y65071D01*
X346709Y65057D01*
X346792Y65044D01*
X346876D01*
X347098Y65057D01*
X347292Y65099D01*
X347444Y65155D01*
X347583Y65224D01*
X347680Y65279D01*
X347749Y65335D01*
X347791Y65376D01*
X347805Y65390D01*
X347902Y65543D01*
X347971Y65737D01*
X348013Y65931D01*
X348041Y66125D01*
X348068Y66306D01*
X348082Y66458D01*
Y66514D01*
Y66555D01*
Y66583D01*
Y66597D01*
Y69953D01*
X346224D01*
Y70896D01*
X348082D01*
Y72768D01*
X349275Y72297D01*
D02*
G37*
G36*
X344157D02*
Y70896D01*
X344934D01*
Y69953D01*
X344157D01*
Y66125D01*
X344130Y65792D01*
X344074Y65501D01*
X343991Y65252D01*
X343880Y65030D01*
X343783Y64849D01*
X343700Y64725D01*
X343644Y64641D01*
X343616Y64627D01*
Y64614D01*
X343395Y64419D01*
X343173Y64281D01*
X342937Y64170D01*
X342729Y64100D01*
X342535Y64059D01*
X342396Y64045D01*
X342341Y64031D01*
X342257D01*
X341938Y64045D01*
X341633Y64059D01*
X341356Y64087D01*
X341106Y64128D01*
X340898Y64156D01*
X340815Y64170D01*
X340746Y64184D01*
X340690Y64198D01*
X340649D01*
X340635Y64211D01*
X340621D01*
X340801Y65279D01*
X340981Y65196D01*
X341162Y65141D01*
X341328Y65099D01*
X341467Y65071D01*
X341592Y65057D01*
X341675Y65044D01*
X341758D01*
X341980Y65057D01*
X342174Y65099D01*
X342327Y65155D01*
X342465Y65224D01*
X342562Y65279D01*
X342632Y65335D01*
X342673Y65376D01*
X342687Y65390D01*
X342784Y65543D01*
X342854Y65737D01*
X342895Y65931D01*
X342923Y66125D01*
X342951Y66306D01*
X342965Y66458D01*
Y66514D01*
Y66555D01*
Y66583D01*
Y66597D01*
Y69953D01*
X341106D01*
Y70896D01*
X342965D01*
Y72768D01*
X344157Y72297D01*
D02*
G37*
G36*
X298225D02*
Y70896D01*
X299002D01*
Y69953D01*
X298225D01*
Y66125D01*
X298197Y65792D01*
X298142Y65501D01*
X298059Y65252D01*
X297948Y65030D01*
X297851Y64849D01*
X297768Y64725D01*
X297712Y64641D01*
X297684Y64627D01*
Y64614D01*
X297462Y64419D01*
X297241Y64281D01*
X297005Y64170D01*
X296797Y64100D01*
X296603Y64059D01*
X296464Y64045D01*
X296408Y64031D01*
X296325D01*
X296006Y64045D01*
X295701Y64059D01*
X295424Y64087D01*
X295174Y64128D01*
X294966Y64156D01*
X294883Y64170D01*
X294814Y64184D01*
X294758Y64198D01*
X294716D01*
X294703Y64211D01*
X294689D01*
X294869Y65279D01*
X295049Y65196D01*
X295230Y65141D01*
X295396Y65099D01*
X295535Y65071D01*
X295660Y65057D01*
X295743Y65044D01*
X295826D01*
X296048Y65057D01*
X296242Y65099D01*
X296395Y65155D01*
X296533Y65224D01*
X296630Y65279D01*
X296700Y65335D01*
X296741Y65376D01*
X296755Y65390D01*
X296852Y65543D01*
X296922Y65737D01*
X296963Y65931D01*
X296991Y66125D01*
X297019Y66306D01*
X297033Y66458D01*
Y66514D01*
Y66555D01*
Y66583D01*
Y66597D01*
Y69953D01*
X295174D01*
Y70896D01*
X297033D01*
Y72768D01*
X298225Y72297D01*
D02*
G37*
G36*
X286548Y66472D02*
X286520Y66056D01*
X286451Y65695D01*
X286368Y65376D01*
X286257Y65127D01*
X286201Y65016D01*
X286146Y64919D01*
X286104Y64836D01*
X286063Y64780D01*
X286021Y64725D01*
X285993Y64683D01*
X285965Y64669D01*
Y64655D01*
X285855Y64544D01*
X285730Y64447D01*
X285452Y64295D01*
X285175Y64184D01*
X284898Y64114D01*
X284648Y64059D01*
X284551Y64045D01*
X284454D01*
X284384Y64031D01*
X284274D01*
X284052Y64045D01*
X283844Y64087D01*
X283636Y64128D01*
X283455Y64198D01*
X283303Y64253D01*
X283178Y64295D01*
X283109Y64336D01*
X283081Y64350D01*
X282873Y64475D01*
X282693Y64600D01*
X282554Y64724D01*
X282443Y64849D01*
X282360Y64946D01*
X282304Y65016D01*
X282276Y65071D01*
X282263Y65085D01*
Y64156D01*
X281070D01*
Y70896D01*
X282263D01*
Y66167D01*
X282332Y66000D01*
X282443Y65848D01*
X282540Y65709D01*
X282651Y65598D01*
X282762Y65501D01*
X282845Y65432D01*
X282901Y65390D01*
X282928Y65376D01*
X283109Y65265D01*
X283303Y65182D01*
X283483Y65127D01*
X283650Y65085D01*
X283802Y65057D01*
X283913Y65044D01*
X284010D01*
X284246Y65057D01*
X284454Y65113D01*
X284634Y65182D01*
X284787Y65293D01*
X284911Y65404D01*
X285023Y65529D01*
X285120Y65682D01*
X285189Y65820D01*
X285244Y65959D01*
X285286Y66111D01*
X285314Y66236D01*
X285328Y66361D01*
X285341Y66458D01*
X285355Y66528D01*
Y66583D01*
Y66597D01*
Y70896D01*
X286548D01*
Y66472D01*
D02*
G37*
G36*
X264747Y71007D02*
X265024Y70979D01*
X265288Y70924D01*
X265537Y70868D01*
X265773Y70799D01*
X265981Y70716D01*
X266175Y70619D01*
X266356Y70535D01*
X266508Y70438D01*
X266647Y70341D01*
X266772Y70258D01*
X266855Y70189D01*
X266938Y70133D01*
X266994Y70078D01*
X267021Y70050D01*
X267035Y70036D01*
X267202Y69842D01*
X267340Y69648D01*
X267465Y69440D01*
X267576Y69218D01*
X267659Y69010D01*
X267743Y68788D01*
X267853Y68386D01*
X267881Y68192D01*
X267909Y68011D01*
X267937Y67859D01*
X267950Y67720D01*
X267964Y67609D01*
Y67526D01*
Y67470D01*
Y67457D01*
X267950Y67165D01*
X267923Y66902D01*
X267881Y66638D01*
X267826Y66403D01*
X267756Y66181D01*
X267673Y65973D01*
X267604Y65778D01*
X267507Y65612D01*
X267423Y65460D01*
X267354Y65321D01*
X267271Y65210D01*
X267202Y65113D01*
X267146Y65044D01*
X267104Y64988D01*
X267077Y64960D01*
X267063Y64946D01*
X266883Y64780D01*
X266702Y64641D01*
X266522Y64517D01*
X266328Y64419D01*
X266134Y64322D01*
X265953Y64253D01*
X265593Y64142D01*
X265426Y64114D01*
X265274Y64087D01*
X265135Y64059D01*
X265010Y64045D01*
X264927Y64031D01*
X264788D01*
X264525Y64045D01*
X264275Y64059D01*
X263804Y64128D01*
X263596Y64170D01*
X263402Y64225D01*
X263221Y64281D01*
X263055Y64350D01*
X262902Y64406D01*
X262778Y64461D01*
X262653Y64517D01*
X262570Y64558D01*
X262486Y64600D01*
X262431Y64627D01*
X262403Y64655D01*
X262389D01*
X262875Y65668D01*
X263027Y65557D01*
X263180Y65460D01*
X263471Y65307D01*
X263748Y65196D01*
X263998Y65127D01*
X264206Y65071D01*
X264289Y65057D01*
X264359D01*
X264414Y65044D01*
X264497D01*
X264691Y65057D01*
X264872Y65071D01*
X265191Y65141D01*
X265468Y65238D01*
X265704Y65349D01*
X265884Y65460D01*
X266009Y65557D01*
X266092Y65626D01*
X266106Y65654D01*
X266120D01*
X266314Y65917D01*
X266453Y66195D01*
X266564Y66500D01*
X266633Y66791D01*
X266675Y67054D01*
X266688Y67165D01*
Y67263D01*
X266702Y67346D01*
Y67401D01*
Y67443D01*
Y67457D01*
X266675Y67873D01*
X266619Y68247D01*
X266522Y68566D01*
X266411Y68830D01*
X266369Y68941D01*
X266314Y69038D01*
X266259Y69121D01*
X266217Y69190D01*
X266189Y69246D01*
X266161Y69287D01*
X266134Y69301D01*
Y69315D01*
X266023Y69440D01*
X265898Y69551D01*
X265773Y69634D01*
X265648Y69717D01*
X265385Y69842D01*
X265135Y69925D01*
X264913Y69967D01*
X264816Y69995D01*
X264733D01*
X264664Y70008D01*
X264400D01*
X264234Y69981D01*
X264081Y69953D01*
X263943Y69925D01*
X263818Y69897D01*
X263734Y69870D01*
X263665Y69856D01*
X263651Y69842D01*
X263485Y69787D01*
X263346Y69717D01*
X263235Y69662D01*
X263152Y69606D01*
X263083Y69565D01*
X263041Y69523D01*
X263013Y69509D01*
X262999Y69495D01*
X262389Y70341D01*
X262514Y70424D01*
X262667Y70508D01*
X262819Y70577D01*
X262958Y70646D01*
X263097Y70702D01*
X263207Y70743D01*
X263277Y70771D01*
X263291Y70785D01*
X263305D01*
X263526Y70868D01*
X263734Y70924D01*
X263929Y70965D01*
X264095Y70993D01*
X264248Y71007D01*
X264345Y71021D01*
X264442D01*
X264747Y71007D01*
D02*
G37*
G36*
X321996Y64156D02*
X320983D01*
X317641Y73420D01*
X318653D01*
X321996Y64156D01*
D02*
G37*
G36*
X315228D02*
X314216D01*
X310873Y73420D01*
X311886D01*
X315228Y64156D01*
D02*
G37*
G36*
X302677Y69884D02*
X301748D01*
Y64156D01*
X300555D01*
Y70896D01*
X302677D01*
Y69884D01*
D02*
G37*
G36*
X243181Y64156D02*
X242169D01*
X238827Y73420D01*
X239839D01*
X243181Y64156D01*
D02*
G37*
G36*
X330844Y71007D02*
X331149Y70951D01*
X331426Y70868D01*
X331648Y70785D01*
X331828Y70702D01*
X331967Y70619D01*
X332050Y70563D01*
X332064Y70549D01*
X332078D01*
X332189Y70452D01*
X332272Y70355D01*
X332425Y70147D01*
X332522Y69939D01*
X332605Y69731D01*
X332647Y69537D01*
X332660Y69398D01*
X332674Y69343D01*
Y69301D01*
Y69273D01*
Y69260D01*
X332660Y69024D01*
X332647Y68927D01*
X332619Y68830D01*
X332605Y68760D01*
X332591Y68705D01*
X332577Y68663D01*
Y68649D01*
X332494Y68455D01*
X332383Y68289D01*
X332341Y68219D01*
X332300Y68164D01*
X332286Y68136D01*
X332272Y68122D01*
X332106Y67942D01*
X331939Y67803D01*
X331870Y67748D01*
X331814Y67720D01*
X331787Y67692D01*
X331773Y67678D01*
X331648Y67595D01*
X331482Y67512D01*
X331287Y67415D01*
X331107Y67318D01*
X330941Y67235D01*
X330802Y67165D01*
X330747Y67151D01*
X330705Y67124D01*
X330677Y67110D01*
X330663D01*
X330469Y67013D01*
X330303Y66916D01*
X330164Y66819D01*
X330039Y66722D01*
X329928Y66624D01*
X329845Y66528D01*
X329776Y66444D01*
X329720Y66347D01*
X329637Y66195D01*
X329595Y66070D01*
X329582Y65987D01*
Y65973D01*
Y65959D01*
X329595Y65792D01*
X329623Y65654D01*
X329679Y65529D01*
X329748Y65432D01*
X329845Y65335D01*
X329928Y65265D01*
X330136Y65155D01*
X330344Y65099D01*
X330511Y65057D01*
X330594Y65044D01*
X330691D01*
X330816Y65057D01*
X330941Y65071D01*
X331204Y65141D01*
X331468Y65252D01*
X331717Y65376D01*
X331953Y65487D01*
X332050Y65543D01*
X332133Y65598D01*
X332203Y65640D01*
X332258Y65668D01*
X332286Y65695D01*
X332300D01*
X332716Y64558D01*
X332369Y64378D01*
X332009Y64253D01*
X331676Y64156D01*
X331371Y64100D01*
X331232Y64073D01*
X331107Y64059D01*
X330996Y64045D01*
X330899D01*
X330830Y64031D01*
X330719D01*
X330317Y64059D01*
X329970Y64114D01*
X329665Y64184D01*
X329415Y64281D01*
X329221Y64378D01*
X329138Y64419D01*
X329068Y64447D01*
X329027Y64489D01*
X328985Y64503D01*
X328971Y64530D01*
X328958D01*
X328847Y64627D01*
X328750Y64738D01*
X328583Y64974D01*
X328472Y65210D01*
X328403Y65432D01*
X328347Y65640D01*
X328334Y65806D01*
X328320Y65876D01*
Y65917D01*
Y65945D01*
Y65959D01*
X328334Y66209D01*
X328375Y66430D01*
X328431Y66624D01*
X328500Y66791D01*
X328569Y66930D01*
X328625Y67027D01*
X328666Y67096D01*
X328680Y67110D01*
X328833Y67276D01*
X329013Y67429D01*
X329207Y67568D01*
X329388Y67692D01*
X329568Y67790D01*
X329706Y67859D01*
X329762Y67887D01*
X329790Y67914D01*
X329817Y67928D01*
X329831D01*
X330677Y68316D01*
X330802Y68386D01*
X330913Y68455D01*
X331024Y68524D01*
X331107Y68608D01*
X331232Y68774D01*
X331315Y68927D01*
X331371Y69065D01*
X331398Y69176D01*
X331412Y69260D01*
Y69287D01*
X331398Y69398D01*
X331371Y69509D01*
X331315Y69592D01*
X331260Y69662D01*
X331218Y69717D01*
X331163Y69759D01*
X331135Y69787D01*
X331121Y69800D01*
X331010Y69870D01*
X330885Y69925D01*
X330774Y69953D01*
X330663Y69981D01*
X330566Y69995D01*
X330483Y70008D01*
X330414D01*
X330150Y69981D01*
X329887Y69925D01*
X329651Y69828D01*
X329429Y69731D01*
X329249Y69620D01*
X329110Y69523D01*
X329055Y69495D01*
X329013Y69468D01*
X328999Y69440D01*
X328985D01*
X328639Y70549D01*
X329041Y70702D01*
X329401Y70827D01*
X329720Y70910D01*
X329984Y70965D01*
X330109Y70979D01*
X330206Y70993D01*
X330289Y71007D01*
X330358Y71021D01*
X330497D01*
X330844Y71007D01*
D02*
G37*
G36*
X325823Y65917D02*
X325962Y65890D01*
X326073Y65834D01*
X326170Y65792D01*
X326253Y65737D01*
X326309Y65682D01*
X326350Y65654D01*
X326364Y65640D01*
X326447Y65529D01*
X326517Y65418D01*
X326558Y65307D01*
X326600Y65210D01*
X326614Y65113D01*
X326628Y65044D01*
Y64988D01*
Y64974D01*
X326614Y64836D01*
X326586Y64711D01*
X326544Y64600D01*
X326489Y64503D01*
X326447Y64419D01*
X326406Y64364D01*
X326378Y64322D01*
X326364Y64309D01*
X326253Y64211D01*
X326142Y64142D01*
X326031Y64100D01*
X325920Y64073D01*
X325823Y64045D01*
X325754Y64031D01*
X325685D01*
X325546Y64045D01*
X325421Y64073D01*
X325296Y64114D01*
X325199Y64170D01*
X325130Y64225D01*
X325074Y64267D01*
X325033Y64295D01*
X325019Y64309D01*
X324922Y64419D01*
X324852Y64530D01*
X324811Y64641D01*
X324769Y64752D01*
X324756Y64836D01*
X324742Y64905D01*
Y64960D01*
Y64974D01*
X324756Y65113D01*
X324783Y65238D01*
X324825Y65363D01*
X324880Y65460D01*
X324936Y65529D01*
X324977Y65584D01*
X325005Y65626D01*
X325019Y65640D01*
X325130Y65737D01*
X325241Y65806D01*
X325352Y65862D01*
X325449Y65890D01*
X325546Y65917D01*
X325615Y65931D01*
X325685D01*
X325823Y65917D01*
D02*
G37*
G36*
X271015Y65917D02*
X271154Y65890D01*
X271265Y65834D01*
X271362Y65792D01*
X271445Y65737D01*
X271501Y65682D01*
X271542Y65654D01*
X271556Y65640D01*
X271639Y65529D01*
X271709Y65418D01*
X271750Y65307D01*
X271792Y65210D01*
X271806Y65113D01*
X271820Y65044D01*
Y64988D01*
Y64974D01*
X271806Y64836D01*
X271778Y64711D01*
X271737Y64600D01*
X271681Y64503D01*
X271639Y64419D01*
X271598Y64364D01*
X271570Y64322D01*
X271556Y64309D01*
X271445Y64211D01*
X271334Y64142D01*
X271223Y64100D01*
X271112Y64073D01*
X271015Y64045D01*
X270946Y64031D01*
X270877D01*
X270738Y64045D01*
X270613Y64073D01*
X270488Y64114D01*
X270391Y64170D01*
X270322Y64225D01*
X270266Y64267D01*
X270225Y64295D01*
X270211Y64309D01*
X270114Y64419D01*
X270045Y64530D01*
X270003Y64641D01*
X269961Y64752D01*
X269947Y64836D01*
X269934Y64905D01*
Y64960D01*
Y64974D01*
X269947Y65113D01*
X269975Y65238D01*
X270017Y65363D01*
X270072Y65460D01*
X270128Y65529D01*
X270169Y65584D01*
X270197Y65626D01*
X270211Y65640D01*
X270322Y65737D01*
X270433Y65806D01*
X270544Y65862D01*
X270641Y65890D01*
X270738Y65917D01*
X270807Y65931D01*
X270877D01*
X271015Y65917D01*
D02*
G37*
G36*
X258783Y71007D02*
X259019Y70979D01*
X259241Y70938D01*
X259463Y70868D01*
X259657Y70799D01*
X259837Y70716D01*
X260004Y70633D01*
X260156Y70535D01*
X260295Y70452D01*
X260406Y70355D01*
X260517Y70272D01*
X260600Y70203D01*
X260670Y70133D01*
X260711Y70092D01*
X260739Y70064D01*
X260753Y70050D01*
X260905Y69870D01*
X261030Y69662D01*
X261141Y69468D01*
X261238Y69260D01*
X261308Y69038D01*
X261377Y68830D01*
X261474Y68441D01*
X261516Y68247D01*
X261543Y68081D01*
X261557Y67928D01*
X261571Y67803D01*
X261585Y67692D01*
Y67609D01*
Y67554D01*
Y67540D01*
X261571Y67249D01*
X261543Y66971D01*
X261516Y66708D01*
X261460Y66458D01*
X261405Y66236D01*
X261335Y66028D01*
X261252Y65834D01*
X261183Y65654D01*
X261113Y65501D01*
X261030Y65363D01*
X260961Y65251D01*
X260905Y65155D01*
X260850Y65071D01*
X260808Y65016D01*
X260794Y64988D01*
X260781Y64974D01*
X260628Y64808D01*
X260448Y64669D01*
X260267Y64544D01*
X260087Y64433D01*
X259907Y64336D01*
X259713Y64267D01*
X259352Y64156D01*
X259186Y64114D01*
X259033Y64087D01*
X258894Y64059D01*
X258770Y64045D01*
X258673Y64031D01*
X258534D01*
X258284Y64045D01*
X258035Y64073D01*
X257813Y64114D01*
X257591Y64184D01*
X257397Y64253D01*
X257216Y64322D01*
X257050Y64406D01*
X256897Y64503D01*
X256759Y64586D01*
X256648Y64669D01*
X256551Y64738D01*
X256467Y64822D01*
X256398Y64877D01*
X256357Y64919D01*
X256329Y64946D01*
X256315Y64960D01*
X256162Y65141D01*
X256038Y65349D01*
X255927Y65543D01*
X255830Y65765D01*
X255746Y65973D01*
X255691Y66195D01*
X255580Y66611D01*
X255552Y66791D01*
X255524Y66971D01*
X255511Y67138D01*
X255497Y67276D01*
X255483Y67387D01*
Y67470D01*
Y67526D01*
Y67540D01*
X255497Y67845D01*
X255511Y68122D01*
X255552Y68386D01*
X255608Y68635D01*
X255663Y68857D01*
X255732Y69065D01*
X255816Y69260D01*
X255885Y69426D01*
X255954Y69578D01*
X256038Y69717D01*
X256107Y69828D01*
X256162Y69925D01*
X256218Y69995D01*
X256246Y70050D01*
X256273Y70078D01*
X256287Y70092D01*
X256440Y70258D01*
X256620Y70397D01*
X256786Y70521D01*
X256981Y70633D01*
X257161Y70716D01*
X257355Y70799D01*
X257716Y70910D01*
X257882Y70938D01*
X258035Y70965D01*
X258173Y70993D01*
X258298Y71007D01*
X258395Y71021D01*
X258534D01*
X258783Y71007D01*
D02*
G37*
G36*
X336821Y71007D02*
X336987Y70993D01*
X337306Y70910D01*
X337584Y70813D01*
X337820Y70688D01*
X338014Y70563D01*
X338152Y70452D01*
X338208Y70411D01*
X338249Y70369D01*
X338263Y70355D01*
X338277Y70341D01*
Y70896D01*
X339470D01*
Y61507D01*
X338277D01*
Y64517D01*
X338208Y64447D01*
X338125Y64378D01*
X338027Y64322D01*
X337930Y64267D01*
X337833Y64225D01*
X337750Y64198D01*
X337681Y64184D01*
X337667Y64170D01*
X337487Y64128D01*
X337306Y64087D01*
X337154Y64059D01*
X337015Y64045D01*
X336904D01*
X336807Y64031D01*
X336738D01*
X336460Y64045D01*
X336197Y64073D01*
X335961Y64114D01*
X335739Y64184D01*
X335531Y64253D01*
X335337Y64336D01*
X335171Y64433D01*
X335018Y64517D01*
X334879Y64614D01*
X334755Y64697D01*
X334658Y64780D01*
X334574Y64849D01*
X334505Y64919D01*
X334463Y64960D01*
X334436Y64988D01*
X334422Y65002D01*
X334283Y65196D01*
X334144Y65390D01*
X334047Y65598D01*
X333950Y65806D01*
X333867Y66014D01*
X333798Y66222D01*
X333701Y66611D01*
X333673Y66791D01*
X333645Y66971D01*
X333631Y67110D01*
X333617Y67249D01*
X333604Y67346D01*
Y67429D01*
Y67484D01*
Y67498D01*
X333617Y67817D01*
X333631Y68108D01*
X333673Y68386D01*
X333728Y68635D01*
X333784Y68871D01*
X333853Y69093D01*
X333936Y69287D01*
X334006Y69454D01*
X334075Y69620D01*
X334158Y69745D01*
X334228Y69856D01*
X334283Y69953D01*
X334338Y70022D01*
X334366Y70078D01*
X334394Y70106D01*
X334408Y70119D01*
X334560Y70272D01*
X334741Y70411D01*
X334907Y70535D01*
X335101Y70646D01*
X335282Y70730D01*
X335462Y70799D01*
X335822Y70910D01*
X335989Y70951D01*
X336141Y70979D01*
X336280Y70993D01*
X336405Y71007D01*
X336502Y71021D01*
X336641D01*
X336821Y71007D01*
D02*
G37*
G36*
X217553Y59524D02*
X217775Y59510D01*
X217997Y59468D01*
X218191Y59413D01*
X218371Y59358D01*
X218524Y59302D01*
X218662Y59233D01*
X218801Y59163D01*
X218912Y59080D01*
X218995Y59011D01*
X219078Y58955D01*
X219148Y58900D01*
X219189Y58844D01*
X219231Y58803D01*
X219245Y58789D01*
X219258Y58775D01*
X218704Y57915D01*
X218510Y58095D01*
X218302Y58234D01*
X218080Y58331D01*
X217872Y58401D01*
X217677Y58442D01*
X217539Y58456D01*
X217483Y58470D01*
X217400D01*
X217137Y58456D01*
X216901Y58401D01*
X216693Y58331D01*
X216513Y58234D01*
X216374Y58123D01*
X216249Y57998D01*
X216152Y57874D01*
X216069Y57735D01*
X216000Y57596D01*
X215958Y57457D01*
X215916Y57333D01*
X215902Y57222D01*
X215889Y57125D01*
X215875Y57055D01*
Y57000D01*
Y56986D01*
X215889Y56736D01*
X215944Y56528D01*
X216027Y56334D01*
X216124Y56182D01*
X216249Y56043D01*
X216374Y55932D01*
X216527Y55835D01*
X216665Y55766D01*
X216818Y55696D01*
X216970Y55655D01*
X217095Y55627D01*
X217220Y55613D01*
X217317Y55599D01*
X217400Y55585D01*
X217525D01*
Y54559D01*
X217428D01*
X217137Y54531D01*
X216859Y54476D01*
X216637Y54406D01*
X216443Y54309D01*
X216291Y54212D01*
X216180Y54143D01*
X216110Y54088D01*
X216083Y54060D01*
X215916Y53866D01*
X215791Y53658D01*
X215694Y53450D01*
X215639Y53242D01*
X215597Y53075D01*
X215583Y52923D01*
X215569Y52867D01*
Y52839D01*
Y52812D01*
Y52798D01*
X215583Y52493D01*
X215639Y52229D01*
X215736Y52007D01*
X215847Y51813D01*
X215972Y51647D01*
X216124Y51508D01*
X216291Y51397D01*
X216443Y51300D01*
X216610Y51231D01*
X216776Y51189D01*
X216929Y51147D01*
X217054Y51120D01*
X217164Y51106D01*
X217262Y51092D01*
X217331D01*
X217497Y51106D01*
X217664Y51120D01*
X217969Y51203D01*
X218232Y51314D01*
X218454Y51439D01*
X218634Y51563D01*
X218773Y51660D01*
X218856Y51744D01*
X218870Y51758D01*
X218884Y51771D01*
X219494Y50801D01*
X219356Y50676D01*
X219203Y50579D01*
X219051Y50482D01*
X218898Y50399D01*
X218773Y50329D01*
X218662Y50287D01*
X218593Y50260D01*
X218565Y50246D01*
X218343Y50177D01*
X218121Y50121D01*
X217927Y50079D01*
X217733Y50052D01*
X217581Y50038D01*
X217470Y50024D01*
X217359D01*
X217095Y50038D01*
X216832Y50052D01*
X216596Y50093D01*
X216374Y50135D01*
X216180Y50191D01*
X215986Y50246D01*
X215819Y50301D01*
X215667Y50371D01*
X215528Y50440D01*
X215403Y50496D01*
X215306Y50551D01*
X215223Y50606D01*
X215154Y50648D01*
X215112Y50690D01*
X215084Y50704D01*
X215070Y50717D01*
X214932Y50856D01*
X214793Y51009D01*
X214696Y51161D01*
X214599Y51314D01*
X214515Y51480D01*
X214446Y51647D01*
X214349Y51966D01*
X214294Y52257D01*
X214280Y52382D01*
X214266Y52493D01*
X214252Y52576D01*
Y52645D01*
Y52687D01*
Y52701D01*
X214266Y53020D01*
X214321Y53297D01*
X214405Y53561D01*
X214488Y53769D01*
X214571Y53949D01*
X214654Y54074D01*
X214710Y54157D01*
X214724Y54184D01*
X214918Y54406D01*
X215126Y54587D01*
X215334Y54739D01*
X215528Y54864D01*
X215708Y54961D01*
X215861Y55017D01*
X215902Y55044D01*
X215944Y55058D01*
X215972Y55072D01*
X215986D01*
X215778Y55169D01*
X215583Y55280D01*
X215417Y55419D01*
X215278Y55544D01*
X215154Y55669D01*
X215056Y55766D01*
X215001Y55835D01*
X214987Y55863D01*
X214848Y56098D01*
X214737Y56334D01*
X214668Y56556D01*
X214613Y56778D01*
X214585Y56958D01*
X214557Y57111D01*
Y57166D01*
Y57208D01*
Y57222D01*
Y57236D01*
X214571Y57416D01*
X214585Y57596D01*
X214682Y57915D01*
X214807Y58193D01*
X214946Y58442D01*
X215084Y58622D01*
X215209Y58775D01*
X215264Y58817D01*
X215306Y58858D01*
X215320Y58872D01*
X215334Y58886D01*
X215486Y58997D01*
X215639Y59108D01*
X215958Y59260D01*
X216291Y59385D01*
X216610Y59454D01*
X216887Y59510D01*
X216998Y59524D01*
X217109D01*
X217192Y59538D01*
X217303D01*
X217553Y59524D01*
D02*
G37*
G36*
X204225D02*
X204503Y59482D01*
X204766Y59413D01*
X204988Y59358D01*
X205154Y59288D01*
X205293Y59219D01*
X205376Y59177D01*
X205390Y59163D01*
X205404D01*
X205612Y59025D01*
X205792Y58858D01*
X205931Y58692D01*
X206042Y58539D01*
X206125Y58401D01*
X206181Y58290D01*
X206208Y58220D01*
X206222Y58206D01*
Y58193D01*
X205404Y57527D01*
X205321Y57666D01*
X205224Y57804D01*
X205127Y57915D01*
X205016Y58012D01*
X204932Y58082D01*
X204849Y58151D01*
X204794Y58179D01*
X204780Y58193D01*
X204613Y58290D01*
X204447Y58359D01*
X204281Y58401D01*
X204142Y58442D01*
X204017Y58456D01*
X203920Y58470D01*
X203837D01*
X203587Y58456D01*
X203365Y58414D01*
X203185Y58345D01*
X203019Y58276D01*
X202880Y58165D01*
X202769Y58068D01*
X202672Y57943D01*
X202603Y57832D01*
X202547Y57707D01*
X202492Y57582D01*
X202464Y57485D01*
X202450Y57388D01*
X202436Y57305D01*
X202422Y57236D01*
Y57194D01*
Y57180D01*
X202436Y57000D01*
X202464Y56806D01*
X202505Y56598D01*
X202561Y56403D01*
X202714Y56001D01*
X202880Y55641D01*
X202963Y55474D01*
X203046Y55308D01*
X203130Y55169D01*
X203199Y55058D01*
X203254Y54961D01*
X203296Y54878D01*
X203324Y54836D01*
X203338Y54823D01*
X206222Y50399D01*
Y50149D01*
X200550D01*
Y51286D01*
X204170D01*
X202103Y54559D01*
X201923Y54850D01*
X201770Y55128D01*
X201646Y55391D01*
X201521Y55641D01*
X201424Y55863D01*
X201354Y56084D01*
X201285Y56279D01*
X201230Y56459D01*
X201188Y56625D01*
X201160Y56764D01*
X201133Y56889D01*
X201119Y57000D01*
X201105Y57069D01*
Y57139D01*
Y57166D01*
Y57180D01*
X201119Y57388D01*
X201133Y57582D01*
X201216Y57929D01*
X201341Y58220D01*
X201479Y58470D01*
X201618Y58664D01*
X201743Y58803D01*
X201784Y58844D01*
X201826Y58886D01*
X201840Y58914D01*
X201854D01*
X201992Y59025D01*
X202159Y59122D01*
X202478Y59274D01*
X202824Y59385D01*
X203157Y59454D01*
X203310Y59482D01*
X203449Y59510D01*
X203573Y59524D01*
X203684D01*
X203781Y59538D01*
X203906D01*
X204225Y59524D01*
D02*
G37*
G36*
X287061Y50024D02*
X286465D01*
X286049Y50634D01*
X285952Y50537D01*
X285841Y50454D01*
X285619Y50315D01*
X285508Y50260D01*
X285425Y50218D01*
X285369Y50204D01*
X285355Y50191D01*
X285175Y50135D01*
X285009Y50093D01*
X284856Y50066D01*
X284704Y50052D01*
X284593Y50038D01*
X284496Y50024D01*
X284412D01*
X284149Y50038D01*
X283885Y50066D01*
X283650Y50107D01*
X283428Y50177D01*
X283220Y50246D01*
X283025Y50329D01*
X282859Y50412D01*
X282693Y50509D01*
X282554Y50593D01*
X282429Y50676D01*
X282332Y50759D01*
X282235Y50828D01*
X282166Y50898D01*
X282124Y50939D01*
X282096Y50967D01*
X282082Y50981D01*
X281930Y51175D01*
X281791Y51369D01*
X281680Y51591D01*
X281583Y51799D01*
X281486Y52021D01*
X281417Y52243D01*
X281320Y52673D01*
X281278Y52867D01*
X281250Y53047D01*
X281236Y53214D01*
X281223Y53352D01*
X281209Y53463D01*
Y53561D01*
Y53616D01*
Y53630D01*
X281223Y53893D01*
X281250Y54157D01*
X281292Y54406D01*
X281347Y54628D01*
X281403Y54850D01*
X281486Y55044D01*
X281555Y55225D01*
X281639Y55391D01*
X281722Y55544D01*
X281791Y55682D01*
X281874Y55793D01*
X281930Y55890D01*
X281985Y55960D01*
X282027Y56015D01*
X282055Y56043D01*
X282069Y56057D01*
X282235Y56223D01*
X282415Y56376D01*
X282596Y56501D01*
X282776Y56611D01*
X282970Y56709D01*
X283150Y56778D01*
X283344Y56847D01*
X283511Y56889D01*
X283677Y56930D01*
X283830Y56958D01*
X283969Y56986D01*
X284079Y57000D01*
X284177Y57014D01*
X284315D01*
X284482Y57000D01*
X284648Y56986D01*
X284814Y56944D01*
X284953Y56917D01*
X285064Y56875D01*
X285161Y56833D01*
X285217Y56820D01*
X285244Y56806D01*
X285397Y56736D01*
X285536Y56653D01*
X285647Y56584D01*
X285730Y56528D01*
X285785Y56473D01*
X285841Y56431D01*
X285855Y56403D01*
X285868Y56390D01*
Y59663D01*
X287061D01*
Y50024D01*
D02*
G37*
G36*
X209592Y59205D02*
X209786Y58983D01*
X209994Y58775D01*
X210189Y58595D01*
X210369Y58442D01*
X210508Y58317D01*
X210563Y58276D01*
X210605Y58234D01*
X210632Y58220D01*
X210646Y58206D01*
X210938Y57984D01*
X211215Y57790D01*
X211478Y57624D01*
X211700Y57485D01*
X211894Y57374D01*
X212033Y57305D01*
X212089Y57277D01*
X212130Y57249D01*
X212144Y57236D01*
X212158D01*
Y56057D01*
X210286Y57222D01*
Y50149D01*
X209024D01*
Y59413D01*
X209412D01*
X209592Y59205D01*
D02*
G37*
G36*
X291957Y57000D02*
X292165Y56986D01*
X292359Y56944D01*
X292539Y56917D01*
X292692Y56875D01*
X292803Y56833D01*
X292886Y56820D01*
X292900Y56806D01*
X292914D01*
X293122Y56736D01*
X293316Y56653D01*
X293468Y56570D01*
X293607Y56501D01*
X293704Y56431D01*
X293787Y56376D01*
X293829Y56348D01*
X293843Y56334D01*
X293344Y55336D01*
X293219Y55447D01*
X293094Y55544D01*
X292817Y55682D01*
X292525Y55793D01*
X292248Y55876D01*
X291998Y55918D01*
X291887Y55932D01*
X291790D01*
X291721Y55946D01*
X291610D01*
X291346Y55932D01*
X291125Y55876D01*
X290917Y55793D01*
X290750Y55696D01*
X290611Y55571D01*
X290487Y55433D01*
X290390Y55280D01*
X290306Y55128D01*
X290251Y54975D01*
X290209Y54823D01*
X290168Y54684D01*
X290154Y54559D01*
X290140Y54462D01*
X290126Y54379D01*
Y54323D01*
Y54309D01*
X290306Y54365D01*
X290473Y54406D01*
X290611Y54434D01*
X290750Y54462D01*
X290847D01*
X290930Y54476D01*
X291000D01*
X291249Y54462D01*
X291499Y54448D01*
X291943Y54365D01*
X292151Y54309D01*
X292331Y54254D01*
X292511Y54185D01*
X292664Y54115D01*
X292803Y54046D01*
X292927Y53976D01*
X293038Y53921D01*
X293122Y53866D01*
X293191Y53824D01*
X293246Y53782D01*
X293274Y53769D01*
X293288Y53755D01*
X293441Y53616D01*
X293579Y53477D01*
X293704Y53339D01*
X293815Y53186D01*
X293898Y53033D01*
X293968Y52895D01*
X294079Y52617D01*
X294148Y52382D01*
X294162Y52285D01*
X294176Y52188D01*
X294189Y52118D01*
Y52063D01*
Y52035D01*
Y52021D01*
X294162Y51716D01*
X294092Y51439D01*
X294009Y51203D01*
X293898Y50995D01*
X293787Y50828D01*
X293704Y50704D01*
X293635Y50620D01*
X293607Y50593D01*
X293385Y50399D01*
X293149Y50260D01*
X292914Y50163D01*
X292706Y50093D01*
X292511Y50052D01*
X292373Y50038D01*
X292317Y50024D01*
X292234D01*
X291957Y50038D01*
X291707Y50066D01*
X291471Y50107D01*
X291249Y50163D01*
X291055Y50232D01*
X290875Y50315D01*
X290709Y50385D01*
X290556Y50482D01*
X290431Y50565D01*
X290320Y50634D01*
X290223Y50718D01*
X290154Y50787D01*
X290084Y50842D01*
X290043Y50884D01*
X290029Y50912D01*
X290015Y50925D01*
X289946Y50759D01*
X289876Y50606D01*
X289779Y50496D01*
X289696Y50399D01*
X289627Y50329D01*
X289557Y50274D01*
X289516Y50246D01*
X289502Y50232D01*
X289349Y50163D01*
X289183Y50107D01*
X289003Y50079D01*
X288822Y50052D01*
X288656Y50038D01*
X288531Y50024D01*
X288406D01*
Y50620D01*
X288503Y50676D01*
X288587Y50759D01*
X288711Y50925D01*
X288809Y51120D01*
X288864Y51314D01*
X288906Y51508D01*
X288920Y51660D01*
X288933Y51716D01*
Y51758D01*
Y51785D01*
Y51799D01*
Y54212D01*
X288947Y54476D01*
X288961Y54725D01*
X288989Y54947D01*
X289044Y55155D01*
X289086Y55349D01*
X289141Y55530D01*
X289211Y55682D01*
X289266Y55821D01*
X289336Y55946D01*
X289391Y56043D01*
X289460Y56140D01*
X289502Y56209D01*
X289544Y56265D01*
X289585Y56306D01*
X289599Y56320D01*
X289613Y56334D01*
X289752Y56459D01*
X289890Y56556D01*
X290057Y56653D01*
X290223Y56722D01*
X290584Y56847D01*
X290930Y56930D01*
X291097Y56958D01*
X291249Y56972D01*
X291388Y57000D01*
X291513D01*
X291610Y57014D01*
X291749D01*
X291957Y57000D01*
D02*
G37*
G36*
X223918Y53339D02*
X221228D01*
Y54434D01*
X223918D01*
Y53339D01*
D02*
G37*
G36*
X353838Y50024D02*
X353435D01*
X351397Y56376D01*
X349192Y50024D01*
X348789D01*
X345919Y59371D01*
X347222D01*
X349122Y52950D01*
X351119Y59371D01*
X351563D01*
X353588Y52936D01*
X355446Y59371D01*
X356750D01*
X353838Y50024D01*
D02*
G37*
G36*
X240394Y50024D02*
X239992D01*
X237953Y56376D01*
X235748Y50024D01*
X235346D01*
X232475Y59371D01*
X233779D01*
X235679Y52950D01*
X237676Y59371D01*
X238120D01*
X240144Y52936D01*
X242003Y59371D01*
X243306D01*
X240394Y50024D01*
D02*
G37*
G36*
X322689Y52188D02*
X322578Y51910D01*
X322481Y51647D01*
X322398Y51425D01*
X322328Y51231D01*
X322273Y51064D01*
X322217Y50953D01*
X322204Y50884D01*
X322190Y50856D01*
X322121Y50648D01*
X322065Y50454D01*
X322037Y50274D01*
X322010Y50107D01*
X321996Y49969D01*
X321982Y49872D01*
Y49802D01*
Y49774D01*
X322010Y49594D01*
X322065Y49428D01*
X322148Y49289D01*
X322245Y49164D01*
X322356Y49067D01*
X322439Y48998D01*
X322495Y48942D01*
X322523Y48928D01*
X322731Y48804D01*
X322953Y48720D01*
X323175Y48651D01*
X323369Y48609D01*
X323549Y48582D01*
X323688Y48568D01*
X323812D01*
Y47500D01*
X323480Y47514D01*
X323161Y47569D01*
X322883Y47639D01*
X322634Y47722D01*
X322439Y47791D01*
X322356Y47833D01*
X322273Y47861D01*
X322217Y47888D01*
X322176Y47916D01*
X322162Y47930D01*
X322148D01*
X321885Y48096D01*
X321677Y48277D01*
X321510Y48457D01*
X321372Y48637D01*
X321274Y48790D01*
X321205Y48901D01*
X321177Y48984D01*
X321163Y48998D01*
Y49012D01*
X318293Y56889D01*
X319513D01*
X321302Y51660D01*
X323299Y56889D01*
X324520D01*
X322689Y52188D01*
D02*
G37*
G36*
X264053Y56598D02*
X264289Y56736D01*
X264539Y56833D01*
X264802Y56917D01*
X265052Y56958D01*
X265274Y56986D01*
X265371Y57000D01*
X265454Y57014D01*
X265621D01*
X265815Y57000D01*
X266009Y56986D01*
X266356Y56903D01*
X266675Y56792D01*
X266938Y56667D01*
X267146Y56528D01*
X267229Y56473D01*
X267299Y56417D01*
X267368Y56376D01*
X267410Y56334D01*
X267423Y56320D01*
X267437Y56306D01*
X267562Y56168D01*
X267673Y56029D01*
X267784Y55876D01*
X267867Y55738D01*
X267992Y55433D01*
X268075Y55155D01*
X268131Y54920D01*
X268145Y54809D01*
X268158Y54725D01*
X268172Y54642D01*
Y54587D01*
Y54559D01*
Y54545D01*
X268158Y54254D01*
X268117Y53976D01*
X268048Y53713D01*
X267950Y53491D01*
X267840Y53283D01*
X267729Y53089D01*
X267590Y52923D01*
X267465Y52770D01*
X267326Y52645D01*
X267202Y52520D01*
X267091Y52437D01*
X266980Y52354D01*
X266883Y52298D01*
X266813Y52257D01*
X266772Y52243D01*
X266758Y52229D01*
X266938Y52188D01*
X267104Y52118D01*
X267243Y52063D01*
X267354Y51993D01*
X267451Y51938D01*
X267534Y51882D01*
X267576Y51855D01*
X267590Y51841D01*
X267701Y51730D01*
X267784Y51633D01*
X267840Y51522D01*
X267881Y51439D01*
X267909Y51355D01*
X267923Y51286D01*
Y51244D01*
Y51231D01*
X267909Y51036D01*
X267867Y50870D01*
X267784Y50731D01*
X267701Y50606D01*
X267590Y50496D01*
X267465Y50412D01*
X267340Y50343D01*
X267202Y50287D01*
X266952Y50204D01*
X266827Y50177D01*
X266716Y50163D01*
X266619D01*
X266550Y50149D01*
X266369D01*
X266231Y50163D01*
X266092Y50177D01*
X265967Y50204D01*
X265842Y50218D01*
X265745Y50232D01*
X265690Y50246D01*
X265662D01*
X265482Y50287D01*
X265329Y50315D01*
X265191Y50329D01*
X265094Y50343D01*
X265024Y50357D01*
X264927D01*
X264719Y50343D01*
X264539Y50315D01*
X264372Y50287D01*
X264234Y50232D01*
X264123Y50163D01*
X264026Y50093D01*
X263943Y50024D01*
X263887Y49955D01*
X263832Y49872D01*
X263804Y49802D01*
X263748Y49664D01*
Y49608D01*
X263734Y49580D01*
Y49552D01*
Y49539D01*
X263748Y49386D01*
X263804Y49261D01*
X263887Y49137D01*
X263970Y49039D01*
X264053Y48956D01*
X264137Y48901D01*
X264192Y48859D01*
X264206Y48845D01*
X264400Y48748D01*
X264608Y48679D01*
X264816Y48623D01*
X265024Y48596D01*
X265218Y48568D01*
X265357Y48554D01*
X265496D01*
X265662Y48568D01*
X265829Y48582D01*
X266175Y48665D01*
X266494Y48776D01*
X266799Y48901D01*
X266938Y48970D01*
X267063Y49026D01*
X267160Y49081D01*
X267257Y49137D01*
X267340Y49178D01*
X267396Y49220D01*
X267423Y49233D01*
X267437Y49247D01*
X268075Y48304D01*
X267909Y48179D01*
X267715Y48082D01*
X267521Y47985D01*
X267340Y47902D01*
X267174Y47833D01*
X267049Y47777D01*
X266994Y47764D01*
X266952Y47750D01*
X266938Y47736D01*
X266924D01*
X266647Y47653D01*
X266397Y47597D01*
X266161Y47555D01*
X265953Y47528D01*
X265787Y47514D01*
X265648Y47500D01*
X265537D01*
X265080Y47528D01*
X264664Y47597D01*
X264470Y47639D01*
X264303Y47680D01*
X264137Y47736D01*
X263998Y47791D01*
X263859Y47847D01*
X263748Y47902D01*
X263651Y47944D01*
X263568Y47985D01*
X263499Y48027D01*
X263457Y48055D01*
X263429Y48082D01*
X263416D01*
X263263Y48193D01*
X263138Y48304D01*
X263027Y48429D01*
X262930Y48554D01*
X262847Y48679D01*
X262778Y48818D01*
X262680Y49053D01*
X262611Y49261D01*
X262597Y49358D01*
X262583Y49442D01*
X262570Y49497D01*
Y49552D01*
Y49580D01*
Y49594D01*
X262597Y49885D01*
X262653Y50149D01*
X262750Y50371D01*
X262847Y50565D01*
X262958Y50704D01*
X263055Y50814D01*
X263110Y50870D01*
X263138Y50898D01*
X263360Y51064D01*
X263610Y51175D01*
X263873Y51258D01*
X264123Y51328D01*
X264345Y51355D01*
X264442Y51369D01*
X264525D01*
X264594Y51383D01*
X264802D01*
X264941Y51369D01*
X265218Y51328D01*
X265357Y51314D01*
X265454Y51286D01*
X265523Y51272D01*
X265551D01*
X265745Y51244D01*
X265926Y51217D01*
X266064Y51203D01*
X266189Y51189D01*
X266272Y51175D01*
X266508D01*
X266591Y51189D01*
X266744Y51217D01*
X266855Y51258D01*
X266924Y51300D01*
X266980Y51342D01*
X266994Y51383D01*
X267007Y51411D01*
Y51425D01*
X266994Y51494D01*
X266966Y51563D01*
X266855Y51660D01*
X266758Y51716D01*
X266730Y51744D01*
X266716D01*
X266508Y51813D01*
X266425Y51841D01*
X266356Y51855D01*
X266300Y51869D01*
X266259Y51882D01*
X266231D01*
X265246Y51993D01*
X264872Y52049D01*
X264539Y52160D01*
X264261Y52285D01*
X264012Y52423D01*
X263818Y52548D01*
X263679Y52659D01*
X263637Y52701D01*
X263596Y52742D01*
X263582Y52756D01*
X263568Y52770D01*
X263457Y52909D01*
X263360Y53047D01*
X263194Y53339D01*
X263083Y53616D01*
X263013Y53893D01*
X262958Y54129D01*
X262944Y54226D01*
Y54323D01*
X262930Y54393D01*
Y54448D01*
Y54476D01*
Y54490D01*
X262944Y54836D01*
X262999Y55142D01*
X263083Y55405D01*
X263166Y55627D01*
X263249Y55807D01*
X263332Y55932D01*
X263388Y56015D01*
X263402Y56043D01*
X262667Y56584D01*
X263457Y57319D01*
X264053Y56598D01*
D02*
G37*
G36*
X342507Y57000D02*
X342729Y56972D01*
X342937Y56930D01*
X343145Y56875D01*
X343506Y56722D01*
X343672Y56653D01*
X343811Y56570D01*
X343949Y56473D01*
X344074Y56403D01*
X344171Y56320D01*
X344254Y56251D01*
X344324Y56196D01*
X344379Y56154D01*
X344407Y56126D01*
X344421Y56112D01*
X344601Y55918D01*
X344754Y55710D01*
X344892Y55488D01*
X345003Y55266D01*
X345100Y55044D01*
X345184Y54823D01*
X345253Y54601D01*
X345308Y54393D01*
X345350Y54198D01*
X345378Y54018D01*
X345406Y53852D01*
X345419Y53713D01*
Y53602D01*
X345433Y53505D01*
Y53450D01*
Y53436D01*
X345419Y53144D01*
X345392Y52867D01*
X345336Y52604D01*
X345281Y52354D01*
X345211Y52132D01*
X345128Y51924D01*
X345031Y51730D01*
X344934Y51563D01*
X344851Y51397D01*
X344754Y51272D01*
X344670Y51147D01*
X344601Y51050D01*
X344546Y50981D01*
X344490Y50925D01*
X344463Y50898D01*
X344449Y50884D01*
X344282Y50731D01*
X344102Y50606D01*
X343922Y50482D01*
X343741Y50385D01*
X343561Y50301D01*
X343381Y50232D01*
X343034Y50135D01*
X342882Y50093D01*
X342743Y50066D01*
X342618Y50052D01*
X342507Y50038D01*
X342424Y50024D01*
X342299D01*
X341980Y50038D01*
X341675Y50066D01*
X341398Y50107D01*
X341162Y50163D01*
X340968Y50204D01*
X340829Y50246D01*
X340774Y50260D01*
X340732Y50274D01*
X340718Y50288D01*
X340704D01*
X340496Y50371D01*
X340330Y50440D01*
X340177Y50523D01*
X340052Y50606D01*
X339969Y50676D01*
X339900Y50731D01*
X339858Y50759D01*
X339844Y50773D01*
X340357Y51633D01*
X340482Y51522D01*
X340621Y51439D01*
X340912Y51286D01*
X341189Y51189D01*
X341467Y51106D01*
X341703Y51064D01*
X341800Y51050D01*
X341897D01*
X341966Y51036D01*
X342063D01*
X342382Y51064D01*
X342673Y51120D01*
X342923Y51203D01*
X343131Y51314D01*
X343311Y51411D01*
X343436Y51494D01*
X343506Y51550D01*
X343533Y51577D01*
X343644Y51702D01*
X343741Y51841D01*
X343908Y52132D01*
X344019Y52437D01*
X344088Y52728D01*
X344143Y52992D01*
X344157Y53117D01*
Y53214D01*
X344171Y53297D01*
Y53352D01*
Y53394D01*
Y53408D01*
X339317D01*
X339262Y53658D01*
X339248Y53782D01*
X339234Y53893D01*
X339220Y53990D01*
Y54060D01*
Y54115D01*
Y54129D01*
X339234Y54365D01*
X339248Y54587D01*
X339290Y54795D01*
X339345Y55003D01*
X339400Y55183D01*
X339470Y55349D01*
X339553Y55502D01*
X339622Y55641D01*
X339692Y55766D01*
X339775Y55876D01*
X339844Y55974D01*
X339900Y56057D01*
X339955Y56112D01*
X339983Y56154D01*
X340011Y56182D01*
X340025Y56196D01*
X340191Y56334D01*
X340357Y56473D01*
X340538Y56570D01*
X340718Y56667D01*
X340912Y56750D01*
X341092Y56820D01*
X341467Y56917D01*
X341633Y56944D01*
X341786Y56972D01*
X341925Y56986D01*
X342049Y57000D01*
X342146Y57014D01*
X342285D01*
X342507Y57000D01*
D02*
G37*
G36*
X307392D02*
X307614Y56972D01*
X307822Y56930D01*
X308030Y56875D01*
X308391Y56722D01*
X308557Y56653D01*
X308696Y56570D01*
X308834Y56473D01*
X308959Y56403D01*
X309056Y56320D01*
X309140Y56251D01*
X309209Y56196D01*
X309265Y56154D01*
X309292Y56126D01*
X309306Y56112D01*
X309486Y55918D01*
X309639Y55710D01*
X309778Y55488D01*
X309888Y55266D01*
X309986Y55044D01*
X310069Y54823D01*
X310138Y54601D01*
X310194Y54393D01*
X310235Y54198D01*
X310263Y54018D01*
X310291Y53852D01*
X310305Y53713D01*
Y53602D01*
X310319Y53505D01*
Y53450D01*
Y53436D01*
X310305Y53144D01*
X310277Y52867D01*
X310221Y52604D01*
X310166Y52354D01*
X310097Y52132D01*
X310013Y51924D01*
X309916Y51730D01*
X309819Y51563D01*
X309736Y51397D01*
X309639Y51272D01*
X309556Y51147D01*
X309486Y51050D01*
X309431Y50981D01*
X309375Y50925D01*
X309348Y50898D01*
X309334Y50884D01*
X309167Y50731D01*
X308987Y50606D01*
X308807Y50482D01*
X308626Y50385D01*
X308446Y50301D01*
X308266Y50232D01*
X307919Y50135D01*
X307767Y50093D01*
X307628Y50066D01*
X307503Y50052D01*
X307392Y50038D01*
X307309Y50024D01*
X307184D01*
X306865Y50038D01*
X306560Y50066D01*
X306283Y50107D01*
X306047Y50163D01*
X305853Y50204D01*
X305714Y50246D01*
X305659Y50260D01*
X305617Y50274D01*
X305603Y50288D01*
X305589D01*
X305381Y50371D01*
X305215Y50440D01*
X305062Y50523D01*
X304937Y50606D01*
X304854Y50676D01*
X304785Y50731D01*
X304743Y50759D01*
X304729Y50773D01*
X305243Y51633D01*
X305367Y51522D01*
X305506Y51439D01*
X305797Y51286D01*
X306075Y51189D01*
X306352Y51106D01*
X306588Y51064D01*
X306685Y51050D01*
X306782D01*
X306851Y51036D01*
X306948D01*
X307267Y51064D01*
X307559Y51120D01*
X307808Y51203D01*
X308016Y51314D01*
X308197Y51411D01*
X308321Y51494D01*
X308391Y51550D01*
X308419Y51577D01*
X308529Y51702D01*
X308626Y51841D01*
X308793Y52132D01*
X308904Y52437D01*
X308973Y52728D01*
X309029Y52992D01*
X309043Y53117D01*
Y53214D01*
X309056Y53297D01*
Y53352D01*
Y53394D01*
Y53408D01*
X304202D01*
X304147Y53658D01*
X304133Y53782D01*
X304119Y53893D01*
X304105Y53990D01*
Y54060D01*
Y54115D01*
Y54129D01*
X304119Y54365D01*
X304133Y54587D01*
X304175Y54795D01*
X304230Y55003D01*
X304286Y55183D01*
X304355Y55349D01*
X304438Y55502D01*
X304508Y55641D01*
X304577Y55766D01*
X304660Y55876D01*
X304729Y55974D01*
X304785Y56057D01*
X304840Y56112D01*
X304868Y56154D01*
X304896Y56182D01*
X304910Y56196D01*
X305076Y56334D01*
X305243Y56473D01*
X305423Y56570D01*
X305603Y56667D01*
X305797Y56750D01*
X305978Y56820D01*
X306352Y56917D01*
X306518Y56944D01*
X306671Y56972D01*
X306810Y56986D01*
X306935Y57000D01*
X307032Y57014D01*
X307170D01*
X307392Y57000D01*
D02*
G37*
G36*
X279933Y52465D02*
X279905Y52049D01*
X279836Y51688D01*
X279753Y51369D01*
X279642Y51120D01*
X279586Y51009D01*
X279531Y50912D01*
X279489Y50828D01*
X279447Y50773D01*
X279406Y50717D01*
X279378Y50676D01*
X279350Y50662D01*
Y50648D01*
X279239Y50537D01*
X279115Y50440D01*
X278837Y50287D01*
X278560Y50177D01*
X278283Y50107D01*
X278033Y50052D01*
X277936Y50038D01*
X277839D01*
X277769Y50024D01*
X277658D01*
X277437Y50038D01*
X277229Y50079D01*
X277020Y50121D01*
X276840Y50191D01*
X276688Y50246D01*
X276563Y50287D01*
X276493Y50329D01*
X276466Y50343D01*
X276258Y50468D01*
X276077Y50593D01*
X275939Y50717D01*
X275828Y50842D01*
X275744Y50939D01*
X275689Y51009D01*
X275661Y51064D01*
X275648Y51078D01*
Y50149D01*
X274455D01*
Y56889D01*
X275648D01*
Y52160D01*
X275717Y51993D01*
X275828Y51841D01*
X275925Y51702D01*
X276036Y51591D01*
X276147Y51494D01*
X276230Y51425D01*
X276285Y51383D01*
X276313Y51369D01*
X276493Y51258D01*
X276688Y51175D01*
X276868Y51120D01*
X277034Y51078D01*
X277187Y51050D01*
X277298Y51036D01*
X277395D01*
X277631Y51050D01*
X277839Y51106D01*
X278019Y51175D01*
X278172Y51286D01*
X278296Y51397D01*
X278407Y51522D01*
X278504Y51674D01*
X278574Y51813D01*
X278629Y51952D01*
X278671Y52104D01*
X278699Y52229D01*
X278712Y52354D01*
X278726Y52451D01*
X278740Y52520D01*
Y52576D01*
Y52590D01*
Y56889D01*
X279933D01*
Y52465D01*
D02*
G37*
G36*
X258853Y57000D02*
X259075Y56972D01*
X259283Y56930D01*
X259491Y56875D01*
X259851Y56722D01*
X260018Y56653D01*
X260156Y56570D01*
X260295Y56473D01*
X260420Y56403D01*
X260517Y56320D01*
X260600Y56251D01*
X260670Y56196D01*
X260725Y56154D01*
X260753Y56126D01*
X260767Y56112D01*
X260947Y55918D01*
X261099Y55710D01*
X261238Y55488D01*
X261349Y55266D01*
X261446Y55044D01*
X261529Y54823D01*
X261599Y54601D01*
X261654Y54393D01*
X261696Y54198D01*
X261724Y54018D01*
X261751Y53852D01*
X261765Y53713D01*
Y53602D01*
X261779Y53505D01*
Y53450D01*
Y53436D01*
X261765Y53144D01*
X261737Y52867D01*
X261682Y52604D01*
X261626Y52354D01*
X261557Y52132D01*
X261474Y51924D01*
X261377Y51730D01*
X261280Y51563D01*
X261197Y51397D01*
X261099Y51272D01*
X261016Y51147D01*
X260947Y51050D01*
X260891Y50981D01*
X260836Y50925D01*
X260808Y50898D01*
X260794Y50884D01*
X260628Y50731D01*
X260448Y50606D01*
X260267Y50482D01*
X260087Y50385D01*
X259907Y50301D01*
X259727Y50232D01*
X259380Y50135D01*
X259227Y50093D01*
X259089Y50066D01*
X258964Y50052D01*
X258853Y50038D01*
X258770Y50024D01*
X258645D01*
X258326Y50038D01*
X258021Y50066D01*
X257743Y50107D01*
X257508Y50163D01*
X257313Y50204D01*
X257175Y50246D01*
X257119Y50260D01*
X257078Y50274D01*
X257064Y50287D01*
X257050D01*
X256842Y50371D01*
X256675Y50440D01*
X256523Y50523D01*
X256398Y50606D01*
X256315Y50676D01*
X256246Y50731D01*
X256204Y50759D01*
X256190Y50773D01*
X256703Y51633D01*
X256828Y51522D01*
X256967Y51439D01*
X257258Y51286D01*
X257535Y51189D01*
X257813Y51106D01*
X258048Y51064D01*
X258146Y51050D01*
X258243D01*
X258312Y51036D01*
X258409D01*
X258728Y51064D01*
X259019Y51120D01*
X259269Y51203D01*
X259477Y51314D01*
X259657Y51411D01*
X259782Y51494D01*
X259851Y51550D01*
X259879Y51577D01*
X259990Y51702D01*
X260087Y51841D01*
X260254Y52132D01*
X260364Y52437D01*
X260434Y52728D01*
X260489Y52992D01*
X260503Y53117D01*
Y53214D01*
X260517Y53297D01*
Y53352D01*
Y53394D01*
Y53408D01*
X255663D01*
X255608Y53658D01*
X255594Y53782D01*
X255580Y53893D01*
X255566Y53990D01*
Y54060D01*
Y54115D01*
Y54129D01*
X255580Y54365D01*
X255594Y54587D01*
X255635Y54795D01*
X255691Y55003D01*
X255746Y55183D01*
X255816Y55349D01*
X255899Y55502D01*
X255968Y55641D01*
X256038Y55766D01*
X256121Y55876D01*
X256190Y55974D01*
X256246Y56057D01*
X256301Y56112D01*
X256329Y56154D01*
X256357Y56182D01*
X256370Y56196D01*
X256537Y56334D01*
X256703Y56473D01*
X256884Y56570D01*
X257064Y56667D01*
X257258Y56750D01*
X257438Y56820D01*
X257813Y56917D01*
X257979Y56944D01*
X258132Y56972D01*
X258270Y56986D01*
X258395Y57000D01*
X258492Y57014D01*
X258631D01*
X258853Y57000D01*
D02*
G37*
G36*
X335101Y57000D02*
X335323Y56972D01*
X335531Y56917D01*
X335725Y56861D01*
X335892Y56778D01*
X336058Y56695D01*
X336197Y56611D01*
X336322Y56515D01*
X336433Y56417D01*
X336530Y56334D01*
X336599Y56251D01*
X336668Y56168D01*
X336710Y56112D01*
X336752Y56057D01*
X336766Y56029D01*
X336779Y56015D01*
X337168Y56889D01*
X337972D01*
Y50149D01*
X336779D01*
Y55142D01*
X336682Y55266D01*
X336571Y55391D01*
X336460Y55488D01*
X336349Y55585D01*
X336252Y55655D01*
X336169Y55710D01*
X336114Y55738D01*
X336100Y55752D01*
X335933Y55835D01*
X335781Y55890D01*
X335628Y55946D01*
X335504Y55974D01*
X335392Y55988D01*
X335309Y56001D01*
X335240D01*
X334977Y55988D01*
X334755Y55932D01*
X334560Y55863D01*
X334408Y55779D01*
X334297Y55696D01*
X334214Y55627D01*
X334172Y55571D01*
X334158Y55557D01*
X334103Y55474D01*
X334047Y55363D01*
X333964Y55142D01*
X333909Y54892D01*
X333867Y54642D01*
X333839Y54420D01*
Y54323D01*
X333825Y54240D01*
Y54157D01*
Y54101D01*
Y54074D01*
Y54060D01*
Y50149D01*
X332633D01*
Y54309D01*
Y54559D01*
X332660Y54781D01*
X332688Y55003D01*
X332730Y55197D01*
X332771Y55391D01*
X332841Y55557D01*
X332979Y55876D01*
X333146Y56140D01*
X333340Y56348D01*
X333534Y56528D01*
X333742Y56681D01*
X333950Y56792D01*
X334144Y56875D01*
X334338Y56930D01*
X334505Y56972D01*
X334644Y57000D01*
X334755Y57014D01*
X334852D01*
X335101Y57000D01*
D02*
G37*
G36*
X318113Y58234D02*
X315172D01*
Y50149D01*
X313910D01*
Y58234D01*
X310846D01*
Y59371D01*
X318113D01*
Y58234D01*
D02*
G37*
G36*
X269837Y57000D02*
X270058Y56958D01*
X270253Y56903D01*
X270447Y56820D01*
X270627Y56736D01*
X270780Y56639D01*
X270932Y56528D01*
X271057Y56417D01*
X271168Y56293D01*
X271265Y56196D01*
X271348Y56084D01*
X271418Y56001D01*
X271473Y55918D01*
X271515Y55863D01*
X271528Y55821D01*
X271542Y55807D01*
Y56889D01*
X272735D01*
Y50149D01*
X271542D01*
Y54004D01*
X271528Y54296D01*
X271473Y54573D01*
X271390Y54809D01*
X271307Y55017D01*
X271223Y55183D01*
X271140Y55308D01*
X271085Y55377D01*
X271071Y55405D01*
X270974Y55516D01*
X270891Y55599D01*
X270696Y55752D01*
X270516Y55863D01*
X270336Y55932D01*
X270183Y55974D01*
X270072Y55987D01*
X269989Y56001D01*
X269961D01*
X269809Y55987D01*
X269670Y55960D01*
X269531Y55918D01*
X269421Y55863D01*
X269310Y55807D01*
X269240Y55766D01*
X269185Y55738D01*
X269171Y55724D01*
X268672Y56889D01*
X268880Y56930D01*
X269074Y56958D01*
X269240Y56986D01*
X269365Y57000D01*
X269462Y57014D01*
X269601D01*
X269837Y57000D01*
D02*
G37*
G36*
X251322D02*
X251544Y56958D01*
X251738Y56903D01*
X251933Y56820D01*
X252113Y56736D01*
X252265Y56639D01*
X252418Y56528D01*
X252543Y56417D01*
X252654Y56293D01*
X252751Y56196D01*
X252834Y56084D01*
X252903Y56001D01*
X252959Y55918D01*
X253000Y55863D01*
X253014Y55821D01*
X253028Y55807D01*
Y56889D01*
X254221D01*
Y50149D01*
X253028D01*
Y54004D01*
X253014Y54296D01*
X252959Y54573D01*
X252875Y54809D01*
X252792Y55017D01*
X252709Y55183D01*
X252626Y55308D01*
X252570Y55377D01*
X252557Y55405D01*
X252460Y55516D01*
X252376Y55599D01*
X252182Y55752D01*
X252002Y55863D01*
X251821Y55932D01*
X251669Y55974D01*
X251558Y55987D01*
X251475Y56001D01*
X251447D01*
X251294Y55987D01*
X251156Y55960D01*
X251017Y55918D01*
X250906Y55863D01*
X250795Y55807D01*
X250726Y55766D01*
X250671Y55738D01*
X250657Y55724D01*
X250157Y56889D01*
X250365Y56930D01*
X250560Y56958D01*
X250726Y56986D01*
X250851Y57000D01*
X250948Y57014D01*
X251087D01*
X251322Y57000D01*
D02*
G37*
G36*
X248965Y50149D02*
X247952D01*
X244610Y59413D01*
X245622D01*
X248965Y50149D01*
D02*
G37*
G36*
X232295Y58234D02*
X229355D01*
Y50149D01*
X228093D01*
Y58234D01*
X225028D01*
Y59371D01*
X232295D01*
Y58234D01*
D02*
G37*
G36*
X326642Y56515D02*
X326864Y56681D01*
X327127Y56806D01*
X327391Y56889D01*
X327640Y56958D01*
X327876Y56986D01*
X327973Y57000D01*
X328070D01*
X328139Y57014D01*
X328236D01*
X328472Y57000D01*
X328694Y56972D01*
X328902Y56917D01*
X329110Y56847D01*
X329471Y56667D01*
X329637Y56570D01*
X329790Y56473D01*
X329928Y56376D01*
X330053Y56279D01*
X330150Y56182D01*
X330233Y56098D01*
X330303Y56029D01*
X330358Y55974D01*
X330386Y55946D01*
X330400Y55932D01*
X330552Y55724D01*
X330691Y55516D01*
X330816Y55294D01*
X330927Y55072D01*
X331010Y54864D01*
X331079Y54642D01*
X331190Y54240D01*
X331232Y54046D01*
X331260Y53879D01*
X331274Y53727D01*
X331287Y53588D01*
X331301Y53491D01*
Y53408D01*
Y53352D01*
Y53339D01*
X331287Y53061D01*
X331274Y52798D01*
X331232Y52548D01*
X331176Y52326D01*
X331121Y52104D01*
X331052Y51910D01*
X330982Y51730D01*
X330913Y51563D01*
X330844Y51425D01*
X330774Y51286D01*
X330705Y51175D01*
X330649Y51092D01*
X330594Y51023D01*
X330552Y50967D01*
X330539Y50939D01*
X330525Y50925D01*
X330372Y50773D01*
X330206Y50634D01*
X330039Y50509D01*
X329873Y50399D01*
X329693Y50315D01*
X329526Y50246D01*
X329193Y50135D01*
X329041Y50093D01*
X328902Y50066D01*
X328777Y50052D01*
X328666Y50038D01*
X328583Y50024D01*
X328458D01*
X328236Y50038D01*
X328042Y50052D01*
X327682Y50121D01*
X327363Y50218D01*
X327113Y50329D01*
X327002Y50385D01*
X326905Y50440D01*
X326822Y50496D01*
X326753Y50537D01*
X326711Y50579D01*
X326669Y50606D01*
X326655Y50634D01*
X326642D01*
Y50149D01*
X325449D01*
Y59663D01*
X326642D01*
Y56515D01*
D02*
G37*
G36*
X301415Y57000D02*
X301720Y56944D01*
X301997Y56861D01*
X302219Y56778D01*
X302400Y56695D01*
X302538Y56611D01*
X302621Y56556D01*
X302635Y56542D01*
X302649D01*
X302760Y56445D01*
X302843Y56348D01*
X302996Y56140D01*
X303093Y55932D01*
X303176Y55724D01*
X303218Y55530D01*
X303232Y55391D01*
X303246Y55336D01*
Y55294D01*
Y55266D01*
Y55252D01*
X303232Y55017D01*
X303218Y54920D01*
X303190Y54823D01*
X303176Y54753D01*
X303162Y54698D01*
X303148Y54656D01*
Y54642D01*
X303065Y54448D01*
X302954Y54282D01*
X302913Y54212D01*
X302871Y54157D01*
X302857Y54129D01*
X302843Y54115D01*
X302677Y53935D01*
X302511Y53796D01*
X302441Y53741D01*
X302386Y53713D01*
X302358Y53685D01*
X302344Y53671D01*
X302219Y53588D01*
X302053Y53505D01*
X301859Y53408D01*
X301678Y53311D01*
X301512Y53228D01*
X301373Y53158D01*
X301318Y53144D01*
X301276Y53117D01*
X301248Y53103D01*
X301235D01*
X301040Y53006D01*
X300874Y52909D01*
X300735Y52812D01*
X300611Y52715D01*
X300500Y52617D01*
X300416Y52520D01*
X300347Y52437D01*
X300292Y52340D01*
X300208Y52188D01*
X300167Y52063D01*
X300153Y51979D01*
Y51966D01*
Y51952D01*
X300167Y51785D01*
X300194Y51647D01*
X300250Y51522D01*
X300319Y51425D01*
X300416Y51328D01*
X300500Y51258D01*
X300708Y51147D01*
X300916Y51092D01*
X301082Y51050D01*
X301165Y51036D01*
X301262D01*
X301387Y51050D01*
X301512Y51064D01*
X301775Y51133D01*
X302039Y51245D01*
X302289Y51369D01*
X302524Y51480D01*
X302621Y51536D01*
X302705Y51591D01*
X302774Y51633D01*
X302829Y51660D01*
X302857Y51688D01*
X302871D01*
X303287Y50551D01*
X302941Y50371D01*
X302580Y50246D01*
X302247Y50149D01*
X301942Y50093D01*
X301803Y50066D01*
X301678Y50052D01*
X301567Y50038D01*
X301470D01*
X301401Y50024D01*
X301290D01*
X300888Y50052D01*
X300541Y50107D01*
X300236Y50177D01*
X299986Y50274D01*
X299792Y50371D01*
X299709Y50412D01*
X299640Y50440D01*
X299598Y50482D01*
X299557Y50496D01*
X299543Y50523D01*
X299529D01*
X299418Y50620D01*
X299321Y50731D01*
X299154Y50967D01*
X299043Y51203D01*
X298974Y51425D01*
X298919Y51633D01*
X298905Y51799D01*
X298891Y51869D01*
Y51910D01*
Y51938D01*
Y51952D01*
X298905Y52201D01*
X298946Y52423D01*
X299002Y52617D01*
X299071Y52784D01*
X299140Y52923D01*
X299196Y53020D01*
X299238Y53089D01*
X299251Y53103D01*
X299404Y53269D01*
X299584Y53422D01*
X299778Y53561D01*
X299959Y53685D01*
X300139Y53782D01*
X300278Y53852D01*
X300333Y53879D01*
X300361Y53907D01*
X300389Y53921D01*
X300403D01*
X301248Y54309D01*
X301373Y54379D01*
X301484Y54448D01*
X301595Y54517D01*
X301678Y54601D01*
X301803Y54767D01*
X301887Y54920D01*
X301942Y55058D01*
X301970Y55169D01*
X301984Y55252D01*
Y55280D01*
X301970Y55391D01*
X301942Y55502D01*
X301887Y55585D01*
X301831Y55655D01*
X301789Y55710D01*
X301734Y55752D01*
X301706Y55779D01*
X301692Y55793D01*
X301581Y55863D01*
X301457Y55918D01*
X301346Y55946D01*
X301235Y55974D01*
X301138Y55988D01*
X301054Y56001D01*
X300985D01*
X300721Y55974D01*
X300458Y55918D01*
X300222Y55821D01*
X300000Y55724D01*
X299820Y55613D01*
X299681Y55516D01*
X299626Y55488D01*
X299584Y55461D01*
X299570Y55433D01*
X299557D01*
X299210Y56542D01*
X299612Y56695D01*
X299973Y56820D01*
X300292Y56903D01*
X300555Y56958D01*
X300680Y56972D01*
X300777Y56986D01*
X300860Y57000D01*
X300930Y57014D01*
X301068D01*
X301415Y57000D01*
D02*
G37*
G36*
X297546Y52049D02*
X297518Y51688D01*
X297449Y51383D01*
X297338Y51106D01*
X297185Y50884D01*
X297005Y50676D01*
X296811Y50523D01*
X296603Y50385D01*
X296381Y50274D01*
X296173Y50191D01*
X295965Y50135D01*
X295770Y50079D01*
X295590Y50052D01*
X295438Y50038D01*
X295327Y50024D01*
X295230D01*
Y51092D01*
X295410Y51106D01*
X295576Y51133D01*
X295715Y51189D01*
X295826Y51245D01*
X295923Y51300D01*
X295992Y51355D01*
X296034Y51383D01*
X296048Y51397D01*
X296145Y51522D01*
X296228Y51660D01*
X296284Y51799D01*
X296311Y51938D01*
X296339Y52063D01*
X296353Y52160D01*
Y52229D01*
Y52257D01*
Y59663D01*
X297546D01*
Y52049D01*
D02*
G37*
G36*
X105711Y39925D02*
X105729Y39851D01*
Y39722D01*
X105748Y39555D01*
X105766Y39351D01*
Y39129D01*
X105785Y38851D01*
Y38388D01*
X105766Y38259D01*
X105748Y38111D01*
X105711Y37944D01*
X105674Y37759D01*
X105618Y37555D01*
X105544Y37333D01*
X105470Y37111D01*
X105359Y36870D01*
X105229Y36648D01*
X105081Y36407D01*
X104896Y36185D01*
X104692Y35981D01*
X104470Y35777D01*
X104452Y35759D01*
X104415Y35740D01*
X104340Y35685D01*
X104229Y35611D01*
X104100Y35537D01*
X103933Y35463D01*
X103729Y35370D01*
X103507Y35259D01*
X103266Y35166D01*
X102989Y35074D01*
X102692Y35000D01*
X102359Y34926D01*
X102007Y34852D01*
X101619Y34796D01*
X101211Y34778D01*
X100785Y34759D01*
X100767D01*
X100730D01*
X100674D01*
X100600D01*
X100489Y34778D01*
X100378D01*
X100100Y34815D01*
X99767Y34870D01*
X99397Y34963D01*
X99008Y35092D01*
X98600Y35259D01*
X98193Y35463D01*
X97804Y35722D01*
X97434Y36037D01*
X97100Y36426D01*
X96952Y36648D01*
X96823Y36870D01*
X96693Y37129D01*
X96601Y37407D01*
X96526Y37703D01*
X96471Y37999D01*
X96434Y38351D01*
X96415Y38703D01*
Y38833D01*
X96434Y38944D01*
Y39111D01*
X96452Y39314D01*
X96471Y39592D01*
X96489Y39759D01*
X96508Y39944D01*
X105711D01*
Y39925D01*
D02*
G37*
G36*
X112600Y93000D02*
Y33000D01*
X107303D01*
Y41629D01*
X94897D01*
X94990D01*
Y41406D01*
X94971Y41240D01*
Y41055D01*
X94953Y40851D01*
Y40610D01*
X94934Y40370D01*
Y39851D01*
X94916Y39351D01*
X94897Y39129D01*
Y38499D01*
X94916Y38370D01*
Y38185D01*
X94953Y37963D01*
X94971Y37703D01*
X95027Y37425D01*
X95101Y37129D01*
X95175Y36796D01*
X95286Y36463D01*
X95415Y36129D01*
X95564Y35796D01*
X95749Y35444D01*
X95953Y35129D01*
X96193Y34815D01*
X96471Y34518D01*
X96489Y34500D01*
X96545Y34444D01*
X96638Y34370D01*
X96749Y34278D01*
X96915Y34167D01*
X97100Y34037D01*
X97323Y33907D01*
X97582Y33759D01*
X97860Y33611D01*
X98174Y33481D01*
X98526Y33352D01*
X98897Y33241D01*
X99304Y33148D01*
X99730Y33056D01*
X100174Y33019D01*
X100656Y33000D01*
X94897D01*
Y33019D01*
Y33000D01*
X89600D01*
Y93000D01*
X112600D01*
D02*
G37*
G36*
X107303Y33000D02*
X100822D01*
X100934Y33019D01*
X101100D01*
X101267Y33037D01*
X101470Y33056D01*
X101693Y33093D01*
X101933Y33130D01*
X102193Y33185D01*
X102767Y33333D01*
X103359Y33519D01*
X103970Y33778D01*
X104285Y33926D01*
X104600Y34093D01*
X104896Y34296D01*
X105192Y34500D01*
X105489Y34741D01*
X105766Y35000D01*
X106025Y35296D01*
X106266Y35592D01*
X106488Y35944D01*
X106692Y36314D01*
X106859Y36703D01*
X107025Y37129D01*
X107136Y37592D01*
X107229Y38074D01*
X107285Y38610D01*
X107303Y39166D01*
Y33000D01*
D02*
G37*
G36*
X125306Y39036D02*
X125324Y38925D01*
Y38592D01*
X125343Y38370D01*
Y37722D01*
X125324Y37611D01*
X125306Y37462D01*
X125287Y37277D01*
X125232Y37074D01*
X125176Y36851D01*
X125102Y36629D01*
X124991Y36407D01*
X124880Y36185D01*
X124713Y35981D01*
X124528Y35796D01*
X124306Y35648D01*
X124046Y35537D01*
X123750Y35444D01*
X123417Y35426D01*
X123399D01*
X123343D01*
X123250Y35444D01*
X123139Y35463D01*
X123010Y35500D01*
X122880Y35537D01*
X122713Y35611D01*
X122547Y35703D01*
X122399Y35814D01*
X122232Y35963D01*
X122102Y36148D01*
X121954Y36351D01*
X121862Y36611D01*
X121769Y36907D01*
X121713Y37240D01*
X121695Y37629D01*
Y38129D01*
X121713Y38370D01*
Y38629D01*
X121732Y38870D01*
X121750Y39129D01*
X125306D01*
Y39036D01*
D02*
G37*
G36*
X131286Y39092D02*
X131305Y38981D01*
Y38833D01*
X131324Y38648D01*
X131342Y38425D01*
Y38222D01*
X131361Y37999D01*
Y37666D01*
X131342Y37555D01*
Y37425D01*
X131324Y37277D01*
X131286Y36925D01*
X131213Y36555D01*
X131120Y36166D01*
X130972Y35814D01*
X130879Y35648D01*
X130787Y35500D01*
X130750Y35463D01*
X130675Y35389D01*
X130527Y35259D01*
X130324Y35129D01*
X130064Y35000D01*
X129731Y34870D01*
X129342Y34796D01*
X128898Y34759D01*
X128879D01*
X128842D01*
X128787D01*
X128694Y34778D01*
X128490Y34796D01*
X128231Y34852D01*
X127935Y34926D01*
X127639Y35055D01*
X127361Y35222D01*
X127120Y35463D01*
X127102Y35500D01*
X127028Y35592D01*
X126935Y35777D01*
X126880Y35889D01*
X126824Y36018D01*
X126787Y36166D01*
X126731Y36333D01*
X126676Y36518D01*
X126639Y36740D01*
X126602Y36963D01*
X126565Y37222D01*
X126546Y37481D01*
Y37777D01*
X126602Y39129D01*
X131286D01*
Y39092D01*
D02*
G37*
G36*
X138000Y93000D02*
Y33000D01*
X132712D01*
Y40814D01*
X120288D01*
X120399D01*
Y40721D01*
X120380Y40592D01*
Y40258D01*
X120362Y40055D01*
Y39814D01*
X120343Y39573D01*
X120325Y39036D01*
X120306Y38499D01*
Y38240D01*
X120288Y37999D01*
Y37407D01*
X120306Y37277D01*
Y37129D01*
X120325Y36944D01*
X120362Y36759D01*
X120380Y36537D01*
X120473Y36092D01*
X120621Y35611D01*
X120825Y35166D01*
X120936Y34963D01*
X121084Y34759D01*
Y34741D01*
X121121Y34722D01*
X121232Y34592D01*
X121417Y34444D01*
X121658Y34241D01*
X121991Y34056D01*
X122380Y33907D01*
X122824Y33778D01*
X123084Y33759D01*
X123343Y33741D01*
X123380D01*
X123491Y33759D01*
X123658Y33778D01*
X123861Y33815D01*
X124102Y33907D01*
X124361Y34018D01*
X124621Y34167D01*
X124898Y34389D01*
X124935Y34426D01*
X125009Y34500D01*
X125139Y34629D01*
X125269Y34815D01*
X125417Y35018D01*
X125565Y35259D01*
X125695Y35518D01*
X125787Y35796D01*
Y35777D01*
X125806Y35740D01*
X125824Y35666D01*
X125861Y35555D01*
X125898Y35444D01*
X125935Y35296D01*
X126065Y34981D01*
X126231Y34648D01*
X126435Y34296D01*
X126676Y33963D01*
X126954Y33685D01*
X126991Y33648D01*
X127102Y33574D01*
X127287Y33463D01*
X127528Y33333D01*
X127861Y33222D01*
X128231Y33111D01*
X128676Y33037D01*
X129176Y33000D01*
X120288D01*
Y33037D01*
Y33000D01*
X115000D01*
Y93000D01*
X138000D01*
D02*
G37*
G36*
X132712Y33000D02*
X129324D01*
X129435Y33019D01*
X129583Y33037D01*
X129731Y33056D01*
X130101Y33148D01*
X130509Y33296D01*
X130731Y33389D01*
X130935Y33500D01*
X131157Y33648D01*
X131361Y33815D01*
X131564Y34000D01*
X131749Y34204D01*
X131768Y34222D01*
X131786Y34259D01*
X131842Y34333D01*
X131898Y34426D01*
X131972Y34537D01*
X132046Y34685D01*
X132138Y34852D01*
X132231Y35037D01*
X132324Y35240D01*
X132416Y35481D01*
X132490Y35740D01*
X132564Y36018D01*
X132620Y36314D01*
X132675Y36629D01*
X132694Y36963D01*
X132712Y37314D01*
Y33000D01*
D02*
G37*
G36*
X321365Y40599D02*
X321661Y40580D01*
X321957Y40525D01*
X322216Y40451D01*
X322457Y40377D01*
X322661Y40303D01*
X322846Y40210D01*
X323031Y40118D01*
X323179Y40006D01*
X323290Y39914D01*
X323401Y39840D01*
X323494Y39766D01*
X323549Y39692D01*
X323605Y39636D01*
X323624Y39618D01*
X323642Y39599D01*
X322901Y38451D01*
X322642Y38692D01*
X322364Y38877D01*
X322068Y39007D01*
X321790Y39099D01*
X321531Y39155D01*
X321346Y39173D01*
X321272Y39192D01*
X321161D01*
X320809Y39173D01*
X320494Y39099D01*
X320216Y39007D01*
X319976Y38877D01*
X319791Y38729D01*
X319624Y38562D01*
X319494Y38395D01*
X319383Y38210D01*
X319291Y38025D01*
X319235Y37840D01*
X319180Y37673D01*
X319161Y37525D01*
X319142Y37396D01*
X319124Y37303D01*
Y37229D01*
Y37210D01*
X319142Y36877D01*
X319217Y36599D01*
X319328Y36340D01*
X319457Y36136D01*
X319624Y35951D01*
X319791Y35803D01*
X319994Y35673D01*
X320179Y35581D01*
X320383Y35488D01*
X320587Y35433D01*
X320754Y35396D01*
X320920Y35377D01*
X321050Y35359D01*
X321161Y35340D01*
X321328D01*
Y33970D01*
X321198D01*
X320809Y33933D01*
X320439Y33859D01*
X320142Y33766D01*
X319883Y33637D01*
X319680Y33507D01*
X319531Y33414D01*
X319439Y33340D01*
X319402Y33303D01*
X319180Y33044D01*
X319013Y32766D01*
X318883Y32489D01*
X318809Y32211D01*
X318754Y31989D01*
X318735Y31785D01*
X318717Y31711D01*
Y31674D01*
Y31637D01*
Y31618D01*
X318735Y31211D01*
X318809Y30859D01*
X318939Y30563D01*
X319087Y30304D01*
X319254Y30082D01*
X319457Y29896D01*
X319680Y29748D01*
X319883Y29619D01*
X320105Y29526D01*
X320328Y29470D01*
X320531Y29415D01*
X320698Y29378D01*
X320846Y29359D01*
X320976Y29341D01*
X321068D01*
X321291Y29359D01*
X321513Y29378D01*
X321920Y29489D01*
X322272Y29637D01*
X322568Y29804D01*
X322809Y29970D01*
X322994Y30100D01*
X323105Y30211D01*
X323124Y30230D01*
X323142Y30248D01*
X323957Y28952D01*
X323772Y28785D01*
X323568Y28656D01*
X323364Y28526D01*
X323161Y28415D01*
X322994Y28322D01*
X322846Y28267D01*
X322753Y28230D01*
X322716Y28211D01*
X322420Y28119D01*
X322124Y28045D01*
X321865Y27989D01*
X321605Y27952D01*
X321402Y27933D01*
X321253Y27915D01*
X321105D01*
X320754Y27933D01*
X320402Y27952D01*
X320087Y28008D01*
X319791Y28063D01*
X319531Y28137D01*
X319272Y28211D01*
X319050Y28285D01*
X318846Y28378D01*
X318661Y28470D01*
X318494Y28545D01*
X318365Y28619D01*
X318254Y28693D01*
X318161Y28748D01*
X318106Y28804D01*
X318069Y28822D01*
X318050Y28841D01*
X317865Y29026D01*
X317680Y29230D01*
X317550Y29433D01*
X317421Y29637D01*
X317309Y29859D01*
X317217Y30082D01*
X317087Y30507D01*
X317013Y30896D01*
X316995Y31063D01*
X316976Y31211D01*
X316958Y31322D01*
Y31415D01*
Y31470D01*
Y31489D01*
X316976Y31915D01*
X317050Y32285D01*
X317161Y32637D01*
X317272Y32915D01*
X317383Y33155D01*
X317495Y33322D01*
X317569Y33433D01*
X317587Y33470D01*
X317846Y33766D01*
X318124Y34007D01*
X318402Y34211D01*
X318661Y34377D01*
X318902Y34507D01*
X319105Y34581D01*
X319161Y34618D01*
X319217Y34637D01*
X319254Y34655D01*
X319272D01*
X318994Y34785D01*
X318735Y34933D01*
X318513Y35118D01*
X318328Y35285D01*
X318161Y35451D01*
X318032Y35581D01*
X317957Y35673D01*
X317939Y35710D01*
X317754Y36025D01*
X317606Y36340D01*
X317513Y36636D01*
X317439Y36933D01*
X317402Y37173D01*
X317365Y37377D01*
Y37451D01*
Y37507D01*
Y37525D01*
Y37544D01*
X317383Y37784D01*
X317402Y38025D01*
X317532Y38451D01*
X317698Y38821D01*
X317883Y39155D01*
X318069Y39395D01*
X318235Y39599D01*
X318309Y39655D01*
X318365Y39710D01*
X318383Y39729D01*
X318402Y39747D01*
X318606Y39895D01*
X318809Y40043D01*
X319235Y40247D01*
X319680Y40414D01*
X320105Y40506D01*
X320476Y40580D01*
X320624Y40599D01*
X320772D01*
X320883Y40617D01*
X321031D01*
X321365Y40599D01*
D02*
G37*
G36*
X303570D02*
X303940Y40543D01*
X304292Y40451D01*
X304589Y40377D01*
X304811Y40284D01*
X304996Y40191D01*
X305107Y40136D01*
X305126Y40118D01*
X305144D01*
X305422Y39932D01*
X305662Y39710D01*
X305848Y39488D01*
X305996Y39284D01*
X306107Y39099D01*
X306181Y38951D01*
X306218Y38858D01*
X306236Y38840D01*
Y38821D01*
X305144Y37933D01*
X305033Y38118D01*
X304903Y38303D01*
X304774Y38451D01*
X304625Y38581D01*
X304514Y38673D01*
X304403Y38766D01*
X304329Y38803D01*
X304311Y38821D01*
X304088Y38951D01*
X303866Y39044D01*
X303644Y39099D01*
X303459Y39155D01*
X303292Y39173D01*
X303163Y39192D01*
X303052D01*
X302718Y39173D01*
X302422Y39118D01*
X302181Y39025D01*
X301959Y38932D01*
X301774Y38784D01*
X301626Y38655D01*
X301496Y38488D01*
X301404Y38340D01*
X301330Y38173D01*
X301255Y38007D01*
X301218Y37877D01*
X301200Y37747D01*
X301181Y37636D01*
X301163Y37544D01*
Y37488D01*
Y37470D01*
X301181Y37229D01*
X301218Y36970D01*
X301274Y36692D01*
X301348Y36433D01*
X301552Y35896D01*
X301774Y35414D01*
X301885Y35192D01*
X301996Y34970D01*
X302107Y34785D01*
X302200Y34637D01*
X302274Y34507D01*
X302330Y34396D01*
X302367Y34340D01*
X302385Y34322D01*
X306236Y28415D01*
Y28082D01*
X298663D01*
Y29600D01*
X303496D01*
X300737Y33970D01*
X300496Y34359D01*
X300293Y34729D01*
X300126Y35081D01*
X299959Y35414D01*
X299830Y35710D01*
X299737Y36007D01*
X299645Y36266D01*
X299571Y36507D01*
X299515Y36729D01*
X299478Y36914D01*
X299441Y37081D01*
X299422Y37229D01*
X299404Y37322D01*
Y37414D01*
Y37451D01*
Y37470D01*
X299422Y37747D01*
X299441Y38007D01*
X299552Y38470D01*
X299719Y38858D01*
X299904Y39192D01*
X300089Y39451D01*
X300256Y39636D01*
X300311Y39692D01*
X300367Y39747D01*
X300385Y39784D01*
X300404D01*
X300589Y39932D01*
X300811Y40062D01*
X301237Y40266D01*
X301700Y40414D01*
X302144Y40506D01*
X302348Y40543D01*
X302533Y40580D01*
X302700Y40599D01*
X302848D01*
X302978Y40617D01*
X303144D01*
X303570Y40599D01*
D02*
G37*
G36*
X310736Y40173D02*
X310995Y39877D01*
X311273Y39599D01*
X311532Y39358D01*
X311773Y39155D01*
X311958Y38988D01*
X312032Y38932D01*
X312088Y38877D01*
X312125Y38858D01*
X312143Y38840D01*
X312532Y38544D01*
X312902Y38284D01*
X313254Y38062D01*
X313550Y37877D01*
X313810Y37729D01*
X313995Y37636D01*
X314069Y37599D01*
X314125Y37562D01*
X314143Y37544D01*
X314162D01*
Y35970D01*
X311662Y37525D01*
Y28082D01*
X309977D01*
Y40451D01*
X310495D01*
X310736Y40173D01*
D02*
G37*
G36*
X329864Y32341D02*
X326271D01*
Y33803D01*
X329864D01*
Y32341D01*
D02*
G37*
G36*
X351861Y27915D02*
X351324D01*
X348602Y36396D01*
X345658Y27915D01*
X345121D01*
X341288Y40395D01*
X343029D01*
X345566Y31822D01*
X348232Y40395D01*
X348825D01*
X351528Y31804D01*
X354009Y40395D01*
X355750D01*
X351861Y27915D01*
D02*
G37*
G36*
X341048Y38877D02*
X337122D01*
Y28082D01*
X335437D01*
Y38877D01*
X331345D01*
Y40395D01*
X341048D01*
Y38877D01*
D02*
G37*
G36*
X319291Y25434D02*
X319661Y25378D01*
X320013Y25286D01*
X320309Y25212D01*
X320531Y25119D01*
X320717Y25026D01*
X320828Y24971D01*
X320846Y24952D01*
X320865D01*
X321142Y24767D01*
X321383Y24545D01*
X321568Y24323D01*
X321716Y24119D01*
X321827Y23934D01*
X321902Y23786D01*
X321939Y23693D01*
X321957Y23675D01*
Y23656D01*
X320865Y22767D01*
X320754Y22953D01*
X320624Y23138D01*
X320494Y23286D01*
X320346Y23416D01*
X320235Y23508D01*
X320124Y23601D01*
X320050Y23638D01*
X320031Y23656D01*
X319809Y23786D01*
X319587Y23878D01*
X319365Y23934D01*
X319180Y23990D01*
X319013Y24008D01*
X318883Y24027D01*
X318772D01*
X318439Y24008D01*
X318143Y23953D01*
X317902Y23860D01*
X317680Y23767D01*
X317495Y23619D01*
X317346Y23490D01*
X317217Y23323D01*
X317124Y23175D01*
X317050Y23008D01*
X316976Y22841D01*
X316939Y22712D01*
X316921Y22582D01*
X316902Y22471D01*
X316884Y22379D01*
Y22323D01*
Y22304D01*
X316902Y22064D01*
X316939Y21805D01*
X316995Y21527D01*
X317069Y21268D01*
X317272Y20731D01*
X317495Y20249D01*
X317606Y20027D01*
X317717Y19805D01*
X317828Y19620D01*
X317920Y19471D01*
X317994Y19342D01*
X318050Y19231D01*
X318087Y19175D01*
X318106Y19157D01*
X321957Y13250D01*
Y12917D01*
X314384D01*
Y14435D01*
X319217D01*
X316458Y18805D01*
X316217Y19194D01*
X316013Y19564D01*
X315847Y19916D01*
X315680Y20249D01*
X315550Y20545D01*
X315458Y20842D01*
X315365Y21101D01*
X315291Y21342D01*
X315236Y21564D01*
X315198Y21749D01*
X315161Y21916D01*
X315143Y22064D01*
X315124Y22156D01*
Y22249D01*
Y22286D01*
Y22304D01*
X315143Y22582D01*
X315161Y22841D01*
X315273Y23304D01*
X315439Y23693D01*
X315624Y24027D01*
X315810Y24286D01*
X315976Y24471D01*
X316032Y24527D01*
X316087Y24582D01*
X316106Y24619D01*
X316124D01*
X316310Y24767D01*
X316532Y24897D01*
X316958Y25101D01*
X317421Y25249D01*
X317865Y25341D01*
X318069Y25378D01*
X318254Y25415D01*
X318420Y25434D01*
X318568D01*
X318698Y25452D01*
X318865D01*
X319291Y25434D01*
D02*
G37*
G36*
X327938Y12750D02*
X327086D01*
X322624Y25230D01*
X324438D01*
X327494Y16157D01*
X330660Y25230D01*
X332530D01*
X327938Y12750D01*
D02*
G37*
G36*
X310699Y15268D02*
X310884Y15231D01*
X311032Y15157D01*
X311162Y15101D01*
X311273Y15028D01*
X311347Y14953D01*
X311403Y14916D01*
X311421Y14898D01*
X311532Y14750D01*
X311625Y14602D01*
X311680Y14454D01*
X311736Y14324D01*
X311754Y14194D01*
X311773Y14102D01*
Y14028D01*
Y14009D01*
X311754Y13824D01*
X311717Y13657D01*
X311662Y13509D01*
X311588Y13379D01*
X311532Y13268D01*
X311477Y13194D01*
X311440Y13139D01*
X311421Y13120D01*
X311273Y12991D01*
X311125Y12898D01*
X310977Y12843D01*
X310829Y12806D01*
X310699Y12768D01*
X310606Y12750D01*
X310514D01*
X310329Y12768D01*
X310162Y12806D01*
X309995Y12861D01*
X309866Y12935D01*
X309773Y13009D01*
X309699Y13065D01*
X309643Y13102D01*
X309625Y13120D01*
X309495Y13268D01*
X309403Y13417D01*
X309347Y13565D01*
X309292Y13713D01*
X309273Y13824D01*
X309255Y13916D01*
Y13990D01*
Y14009D01*
X309273Y14194D01*
X309310Y14361D01*
X309366Y14527D01*
X309440Y14657D01*
X309514Y14750D01*
X309569Y14824D01*
X309606Y14879D01*
X309625Y14898D01*
X309773Y15028D01*
X309921Y15120D01*
X310069Y15194D01*
X310199Y15231D01*
X310329Y15268D01*
X310421Y15287D01*
X310514D01*
X310699Y15268D01*
D02*
G37*
G36*
X302903Y25434D02*
X303237Y25378D01*
X303552Y25304D01*
X303848Y25193D01*
X304107Y25064D01*
X304366Y24915D01*
X304589Y24767D01*
X304792Y24619D01*
X304977Y24452D01*
X305126Y24304D01*
X305255Y24156D01*
X305366Y24027D01*
X305459Y23915D01*
X305514Y23841D01*
X305551Y23786D01*
X305570Y23767D01*
X305755Y23452D01*
X305922Y23101D01*
X306070Y22749D01*
X306181Y22397D01*
X306292Y22027D01*
X306385Y21656D01*
X306459Y21305D01*
X306514Y20971D01*
X306551Y20656D01*
X306588Y20360D01*
X306607Y20101D01*
X306625Y19879D01*
X306644Y19694D01*
Y19546D01*
Y19471D01*
Y19434D01*
X306625Y18731D01*
X306607Y18083D01*
X306551Y17490D01*
X306496Y16953D01*
X306403Y16472D01*
X306329Y16027D01*
X306236Y15639D01*
X306144Y15305D01*
X306051Y15009D01*
X305959Y14768D01*
X305866Y14565D01*
X305792Y14398D01*
X305737Y14268D01*
X305681Y14194D01*
X305662Y14139D01*
X305644Y14120D01*
X305440Y13879D01*
X305218Y13676D01*
X304996Y13491D01*
X304755Y13324D01*
X304496Y13194D01*
X304255Y13083D01*
X304014Y12991D01*
X303774Y12917D01*
X303552Y12861D01*
X303329Y12824D01*
X303144Y12787D01*
X302978Y12768D01*
X302848D01*
X302755Y12750D01*
X302663D01*
X302311Y12768D01*
X301978Y12824D01*
X301663Y12917D01*
X301367Y13009D01*
X301107Y13139D01*
X300848Y13287D01*
X300626Y13435D01*
X300441Y13602D01*
X300256Y13768D01*
X300107Y13916D01*
X299978Y14065D01*
X299867Y14194D01*
X299793Y14305D01*
X299737Y14379D01*
X299700Y14435D01*
X299682Y14454D01*
X299496Y14787D01*
X299348Y15157D01*
X299200Y15527D01*
X299089Y15916D01*
X298904Y16712D01*
X298848Y17083D01*
X298793Y17453D01*
X298756Y17805D01*
X298719Y18138D01*
X298700Y18434D01*
X298682Y18675D01*
X298663Y18879D01*
Y19046D01*
Y19138D01*
Y19175D01*
X298682Y19805D01*
X298700Y20379D01*
X298756Y20916D01*
X298811Y21397D01*
X298885Y21842D01*
X298978Y22249D01*
X299070Y22601D01*
X299145Y22915D01*
X299237Y23193D01*
X299330Y23416D01*
X299422Y23619D01*
X299496Y23767D01*
X299552Y23897D01*
X299608Y23971D01*
X299626Y24027D01*
X299645Y24045D01*
X299830Y24286D01*
X300052Y24508D01*
X300274Y24693D01*
X300496Y24860D01*
X300737Y24989D01*
X300978Y25101D01*
X301218Y25212D01*
X301459Y25286D01*
X301681Y25341D01*
X301885Y25378D01*
X302070Y25415D01*
X302237Y25434D01*
X302367Y25452D01*
X302552D01*
X302903Y25434D01*
D02*
G37*
G36*
X176206Y39036D02*
X176224Y38925D01*
Y38592D01*
X176243Y38370D01*
Y37722D01*
X176224Y37611D01*
X176206Y37462D01*
X176187Y37277D01*
X176132Y37074D01*
X176076Y36851D01*
X176002Y36629D01*
X175891Y36407D01*
X175780Y36185D01*
X175613Y35981D01*
X175428Y35796D01*
X175206Y35648D01*
X174947Y35537D01*
X174650Y35444D01*
X174317Y35426D01*
X174298D01*
X174243D01*
X174150Y35444D01*
X174039Y35463D01*
X173910Y35500D01*
X173780Y35537D01*
X173613Y35611D01*
X173447Y35703D01*
X173299Y35814D01*
X173132Y35963D01*
X173002Y36148D01*
X172854Y36351D01*
X172762Y36611D01*
X172669Y36907D01*
X172614Y37240D01*
X172595Y37629D01*
Y38129D01*
X172614Y38370D01*
Y38629D01*
X172632Y38870D01*
X172651Y39129D01*
X176206D01*
Y39036D01*
D02*
G37*
G36*
X182187Y39092D02*
X182205Y38981D01*
Y38833D01*
X182224Y38648D01*
X182242Y38425D01*
Y38222D01*
X182261Y37999D01*
Y37666D01*
X182242Y37555D01*
Y37425D01*
X182224Y37277D01*
X182187Y36925D01*
X182113Y36555D01*
X182020Y36166D01*
X181872Y35814D01*
X181779Y35648D01*
X181687Y35500D01*
X181650Y35463D01*
X181576Y35389D01*
X181427Y35259D01*
X181224Y35129D01*
X180965Y35000D01*
X180631Y34870D01*
X180242Y34796D01*
X179798Y34759D01*
X179779D01*
X179742D01*
X179687D01*
X179594Y34778D01*
X179391Y34796D01*
X179131Y34852D01*
X178835Y34926D01*
X178539Y35055D01*
X178261Y35222D01*
X178020Y35463D01*
X178002Y35500D01*
X177928Y35592D01*
X177835Y35777D01*
X177780Y35889D01*
X177724Y36018D01*
X177687Y36166D01*
X177631Y36333D01*
X177576Y36518D01*
X177539Y36740D01*
X177502Y36963D01*
X177465Y37222D01*
X177446Y37481D01*
Y37777D01*
X177502Y39129D01*
X182187D01*
Y39092D01*
D02*
G37*
G36*
X189000Y33000D02*
X183612D01*
Y40814D01*
X171299D01*
Y40721D01*
X171280Y40592D01*
Y40258D01*
X171262Y40055D01*
Y39814D01*
X171243Y39573D01*
X171225Y39036D01*
X171206Y38499D01*
Y38240D01*
X171188Y37999D01*
Y37407D01*
X171206Y37277D01*
Y37129D01*
X171225Y36944D01*
X171262Y36759D01*
X171280Y36537D01*
X171373Y36092D01*
X171521Y35611D01*
X171725Y35166D01*
X171836Y34963D01*
X171984Y34759D01*
Y34741D01*
X172021Y34722D01*
X172132Y34592D01*
X172317Y34444D01*
X172558Y34241D01*
X172891Y34056D01*
X173280Y33907D01*
X173724Y33778D01*
X173984Y33759D01*
X174243Y33741D01*
X174280D01*
X174391Y33759D01*
X174558Y33778D01*
X174761Y33815D01*
X175002Y33907D01*
X175261Y34018D01*
X175521Y34167D01*
X175798Y34389D01*
X175835Y34426D01*
X175910Y34500D01*
X176039Y34629D01*
X176169Y34815D01*
X176317Y35018D01*
X176465Y35259D01*
X176595Y35518D01*
X176687Y35796D01*
Y35777D01*
X176706Y35740D01*
X176724Y35666D01*
X176761Y35555D01*
X176798Y35444D01*
X176835Y35296D01*
X176965Y34981D01*
X177132Y34648D01*
X177335Y34296D01*
X177576Y33963D01*
X177854Y33685D01*
X177891Y33648D01*
X178002Y33574D01*
X178187Y33463D01*
X178428Y33333D01*
X178761Y33222D01*
X179131Y33111D01*
X179576Y33037D01*
X180076Y33000D01*
X171188D01*
Y33037D01*
Y33000D01*
X165800D01*
Y62000D01*
X189000D01*
Y33000D01*
D02*
G37*
G36*
X183612D02*
X180224D01*
X180335Y33019D01*
X180483Y33037D01*
X180631Y33056D01*
X181001Y33148D01*
X181409Y33296D01*
X181631Y33389D01*
X181835Y33500D01*
X182057Y33648D01*
X182261Y33815D01*
X182464Y34000D01*
X182649Y34204D01*
X182668Y34222D01*
X182687Y34259D01*
X182742Y34333D01*
X182798Y34426D01*
X182872Y34537D01*
X182946Y34685D01*
X183038Y34852D01*
X183131Y35037D01*
X183223Y35240D01*
X183316Y35481D01*
X183390Y35740D01*
X183464Y36018D01*
X183520Y36314D01*
X183575Y36629D01*
X183594Y36963D01*
X183612Y37314D01*
Y33000D01*
D02*
G37*
G36*
X154307Y36203D02*
X148882Y37963D01*
X154307Y39870D01*
Y36203D01*
D02*
G37*
G36*
X158140Y34870D02*
X155548Y35722D01*
Y40314D01*
X158140Y41203D01*
Y34870D01*
D02*
G37*
G36*
X189000Y62000D02*
X163400D01*
Y33000D01*
X158140D01*
Y43092D01*
X145660Y38092D01*
Y37648D01*
D01*
Y33000D01*
X140400D01*
Y62000D01*
X140240D01*
Y93000D01*
X189000D01*
Y62000D01*
D02*
G37*
G36*
X158140Y33000D02*
X145660D01*
D01*
Y37648D01*
X158140Y33000D01*
D02*
G37*
G36*
X81968Y37592D02*
X74321D01*
Y38907D01*
X81968D01*
Y37592D01*
D02*
G37*
G36*
X87200Y33000D02*
X81968D01*
Y38907D01*
X69266D01*
X72969D01*
Y37611D01*
X72950D01*
X72895D01*
X72802D01*
X72691Y37592D01*
X72543D01*
X72376Y37574D01*
X72191Y37537D01*
X71988Y37499D01*
X71543Y37407D01*
X71099Y37259D01*
X70654Y37037D01*
X70451Y36907D01*
X70265Y36759D01*
X70247Y36740D01*
X70228Y36722D01*
X70173Y36666D01*
X70117Y36611D01*
X69951Y36407D01*
X69766Y36148D01*
X69580Y35833D01*
X69414Y35444D01*
X69303Y35000D01*
X69284Y34759D01*
X69266Y34500D01*
Y34370D01*
X69284Y34241D01*
X69303Y34056D01*
X69321Y33833D01*
X69377Y33574D01*
X69432Y33296D01*
X69525Y33000D01*
X70710Y33463D01*
Y33481D01*
X70673Y33537D01*
X70654Y33630D01*
X70617Y33759D01*
X70580Y33889D01*
X70562Y34056D01*
X70525Y34370D01*
Y34481D01*
X70562Y34629D01*
X70599Y34796D01*
X70673Y34981D01*
X70765Y35185D01*
X70914Y35389D01*
X71099Y35574D01*
X71117Y35592D01*
X71191Y35648D01*
X71321Y35722D01*
X71488Y35796D01*
X71691Y35889D01*
X71932Y35963D01*
X72191Y36018D01*
X72506Y36037D01*
X72524D01*
X72543D01*
X72654D01*
X72802Y36018D01*
X72969Y36000D01*
Y34167D01*
X74321D01*
Y36000D01*
X81968D01*
Y33000D01*
X69266D01*
D01*
X64200D01*
Y93000D01*
X87200D01*
Y33000D01*
D02*
G37*
%LPC*%
G36*
X277173Y70008D02*
X276937D01*
X276757Y69981D01*
X276438Y69911D01*
X276147Y69800D01*
X275911Y69689D01*
X275731Y69565D01*
X275592Y69454D01*
X275509Y69384D01*
X275481Y69370D01*
Y69357D01*
X275370Y69232D01*
X275273Y69093D01*
X275121Y68816D01*
X275009Y68511D01*
X274940Y68233D01*
X274885Y67970D01*
X274871Y67859D01*
Y67776D01*
X274857Y67692D01*
Y67637D01*
Y67595D01*
Y67581D01*
Y67332D01*
X274885Y67110D01*
X274912Y66888D01*
X274940Y66694D01*
X274982Y66514D01*
X275023Y66361D01*
X275079Y66222D01*
X275121Y66084D01*
X275176Y65973D01*
X275231Y65890D01*
X275273Y65806D01*
X275315Y65737D01*
X275342Y65695D01*
X275370Y65654D01*
X275398Y65640D01*
Y65626D01*
X275509Y65529D01*
X275620Y65432D01*
X275897Y65293D01*
X276175Y65182D01*
X276466Y65113D01*
X276715Y65071D01*
X276840Y65057D01*
X276937D01*
X277020Y65044D01*
X277131D01*
X277229Y65057D01*
X277339Y65085D01*
X277561Y65155D01*
X277658Y65196D01*
X277742Y65238D01*
X277797Y65251D01*
X277811Y65265D01*
X277964Y65349D01*
X278061Y65418D01*
X278144Y65473D01*
X278199Y65515D01*
X278227Y65557D01*
X278241Y65584D01*
X278255Y65598D01*
Y69468D01*
X278199Y69523D01*
X278130Y69592D01*
X277964Y69703D01*
X277880Y69745D01*
X277811Y69787D01*
X277769Y69800D01*
X277756Y69814D01*
X277617Y69884D01*
X277492Y69925D01*
X277381Y69967D01*
X277298Y69981D01*
X277229Y69995D01*
X277173Y70008D01*
D02*
G37*
G36*
X306616Y70064D02*
X306505D01*
X306297Y70050D01*
X306116Y69995D01*
X305950Y69925D01*
X305811Y69842D01*
X305700Y69759D01*
X305617Y69689D01*
X305562Y69634D01*
X305548Y69620D01*
X305409Y69454D01*
X305312Y69273D01*
X305243Y69093D01*
X305201Y68927D01*
X305159Y68774D01*
X305145Y68663D01*
Y68580D01*
Y68566D01*
Y68552D01*
X305159Y68289D01*
X305201Y68053D01*
X305257Y67859D01*
X305326Y67692D01*
X305395Y67554D01*
X305451Y67457D01*
X305492Y67401D01*
X305506Y67373D01*
X305659Y67221D01*
X305811Y67124D01*
X305978Y67041D01*
X306144Y66985D01*
X306283Y66957D01*
X306394Y66943D01*
X306477Y66930D01*
X306505D01*
X306740Y66943D01*
X306948Y66999D01*
X307115Y67068D01*
X307267Y67165D01*
X307392Y67249D01*
X307475Y67318D01*
X307531Y67373D01*
X307545Y67387D01*
X307670Y67568D01*
X307767Y67762D01*
X307822Y67956D01*
X307878Y68136D01*
X307905Y68303D01*
X307919Y68441D01*
Y68524D01*
Y68538D01*
Y68552D01*
X307905Y68774D01*
X307864Y68982D01*
X307794Y69162D01*
X307725Y69315D01*
X307656Y69454D01*
X307586Y69537D01*
X307545Y69606D01*
X307531Y69620D01*
X307378Y69773D01*
X307212Y69884D01*
X307032Y69953D01*
X306865Y70008D01*
X306726Y70036D01*
X306616Y70064D01*
D02*
G37*
G36*
X258617Y70050D02*
X258367D01*
X258215Y70022D01*
X257938Y69939D01*
X257702Y69814D01*
X257494Y69662D01*
X257327Y69468D01*
X257175Y69260D01*
X257064Y69024D01*
X256967Y68802D01*
X256897Y68566D01*
X256842Y68330D01*
X256800Y68122D01*
X256773Y67928D01*
X256759Y67776D01*
X256745Y67651D01*
Y67568D01*
Y67554D01*
Y67540D01*
X256759Y67124D01*
X256814Y66749D01*
X256897Y66430D01*
X256981Y66167D01*
X257036Y66056D01*
X257078Y65959D01*
X257119Y65876D01*
X257147Y65806D01*
X257189Y65751D01*
X257202Y65709D01*
X257230Y65695D01*
Y65682D01*
X257327Y65557D01*
X257424Y65460D01*
X257521Y65363D01*
X257632Y65293D01*
X257854Y65168D01*
X258062Y65085D01*
X258243Y65044D01*
X258395Y65016D01*
X258451Y65002D01*
X258534D01*
X258700Y65016D01*
X258853Y65030D01*
X259130Y65113D01*
X259366Y65238D01*
X259574Y65404D01*
X259740Y65584D01*
X259879Y65806D01*
X260004Y66028D01*
X260101Y66278D01*
X260170Y66514D01*
X260226Y66736D01*
X260267Y66957D01*
X260295Y67138D01*
X260309Y67304D01*
X260323Y67429D01*
Y67512D01*
Y67540D01*
X260295Y67956D01*
X260240Y68316D01*
X260170Y68635D01*
X260073Y68899D01*
X260032Y68996D01*
X259990Y69093D01*
X259948Y69176D01*
X259907Y69246D01*
X259879Y69301D01*
X259851Y69343D01*
X259837Y69357D01*
Y69370D01*
X259740Y69495D01*
X259643Y69592D01*
X259532Y69689D01*
X259435Y69759D01*
X259213Y69884D01*
X259005Y69967D01*
X258811Y70008D01*
X258673Y70036D01*
X258617Y70050D01*
D02*
G37*
G36*
X337126Y70008D02*
X336876D01*
X336682Y69981D01*
X336502Y69953D01*
X336336Y69911D01*
X336183Y69870D01*
X336044Y69814D01*
X335809Y69717D01*
X335628Y69606D01*
X335504Y69509D01*
X335434Y69440D01*
X335406Y69426D01*
Y69412D01*
X335309Y69287D01*
X335226Y69162D01*
X335087Y68871D01*
X334990Y68566D01*
X334935Y68261D01*
X334893Y67984D01*
X334879Y67859D01*
Y67762D01*
X334865Y67678D01*
Y67609D01*
Y67568D01*
Y67554D01*
Y67332D01*
X334893Y67110D01*
X334963Y66722D01*
X335074Y66389D01*
X335212Y66097D01*
X335379Y65862D01*
X335573Y65654D01*
X335767Y65487D01*
X335975Y65363D01*
X336183Y65252D01*
X336391Y65182D01*
X336585Y65127D01*
X336752Y65085D01*
X336890Y65057D01*
X337001Y65044D01*
X337098D01*
X337223Y65057D01*
X337348Y65071D01*
X337473Y65099D01*
X337584Y65127D01*
X337667Y65155D01*
X337750Y65168D01*
X337792Y65196D01*
X337806D01*
X337930Y65252D01*
X338027Y65307D01*
X338111Y65363D01*
X338180Y65418D01*
X338222Y65460D01*
X338249Y65487D01*
X338277Y65501D01*
Y65515D01*
Y69426D01*
X338194Y69509D01*
X338097Y69578D01*
X337917Y69717D01*
X337833Y69759D01*
X337764Y69800D01*
X337722Y69814D01*
X337709Y69828D01*
X337584Y69884D01*
X337459Y69939D01*
X337348Y69967D01*
X337265Y69981D01*
X337182Y69995D01*
X337126Y70008D01*
D02*
G37*
G36*
X284787Y56001D02*
X284551D01*
X284371Y55974D01*
X284052Y55904D01*
X283761Y55793D01*
X283525Y55682D01*
X283344Y55557D01*
X283206Y55447D01*
X283123Y55377D01*
X283095Y55363D01*
Y55349D01*
X282984Y55225D01*
X282887Y55086D01*
X282734Y54809D01*
X282623Y54503D01*
X282554Y54226D01*
X282498Y53963D01*
X282485Y53852D01*
Y53769D01*
X282471Y53685D01*
Y53630D01*
Y53588D01*
Y53574D01*
Y53325D01*
X282498Y53103D01*
X282526Y52881D01*
X282554Y52687D01*
X282596Y52506D01*
X282637Y52354D01*
X282693Y52215D01*
X282734Y52077D01*
X282790Y51966D01*
X282845Y51882D01*
X282887Y51799D01*
X282928Y51730D01*
X282956Y51688D01*
X282984Y51647D01*
X283012Y51633D01*
Y51619D01*
X283123Y51522D01*
X283234Y51425D01*
X283511Y51286D01*
X283788Y51175D01*
X284079Y51106D01*
X284329Y51064D01*
X284454Y51050D01*
X284551D01*
X284634Y51036D01*
X284745D01*
X284842Y51050D01*
X284953Y51078D01*
X285175Y51147D01*
X285272Y51189D01*
X285355Y51231D01*
X285411Y51245D01*
X285425Y51258D01*
X285577Y51342D01*
X285674Y51411D01*
X285758Y51466D01*
X285813Y51508D01*
X285841Y51550D01*
X285855Y51577D01*
X285868Y51591D01*
Y55461D01*
X285813Y55516D01*
X285744Y55585D01*
X285577Y55696D01*
X285494Y55738D01*
X285425Y55779D01*
X285383Y55793D01*
X285369Y55807D01*
X285231Y55876D01*
X285106Y55918D01*
X284995Y55960D01*
X284911Y55974D01*
X284842Y55988D01*
X284787Y56001D01*
D02*
G37*
G36*
X291083Y53588D02*
X290833D01*
X290709Y53574D01*
X290445Y53533D01*
X290320Y53505D01*
X290223Y53477D01*
X290154Y53463D01*
X290126D01*
Y51827D01*
X290265Y51674D01*
X290403Y51550D01*
X290542Y51425D01*
X290681Y51328D01*
X290819Y51245D01*
X290944Y51175D01*
X291208Y51078D01*
X291416Y51009D01*
X291513Y50995D01*
X291596Y50981D01*
X291665Y50967D01*
X291749D01*
X291971Y50981D01*
X292165Y51009D01*
X292331Y51064D01*
X292470Y51133D01*
X292595Y51203D01*
X292692Y51300D01*
X292775Y51397D01*
X292844Y51494D01*
X292886Y51591D01*
X292927Y51674D01*
X292983Y51841D01*
Y51910D01*
X292997Y51966D01*
Y51993D01*
Y52007D01*
X292969Y52243D01*
X292914Y52451D01*
X292817Y52645D01*
X292706Y52798D01*
X292609Y52936D01*
X292511Y53033D01*
X292456Y53089D01*
X292428Y53117D01*
X292192Y53269D01*
X291943Y53394D01*
X291693Y53477D01*
X291457Y53533D01*
X291249Y53561D01*
X291166Y53574D01*
X291083Y53588D01*
D02*
G37*
G36*
X265634Y56057D02*
X265523D01*
X265315Y56043D01*
X265135Y55987D01*
X264969Y55918D01*
X264830Y55835D01*
X264719Y55752D01*
X264636Y55682D01*
X264580Y55627D01*
X264567Y55613D01*
X264428Y55447D01*
X264331Y55266D01*
X264261Y55086D01*
X264220Y54920D01*
X264178Y54767D01*
X264164Y54656D01*
Y54573D01*
Y54559D01*
Y54545D01*
X264178Y54282D01*
X264220Y54046D01*
X264275Y53852D01*
X264345Y53685D01*
X264414Y53547D01*
X264470Y53450D01*
X264511Y53394D01*
X264525Y53366D01*
X264678Y53214D01*
X264830Y53117D01*
X264996Y53033D01*
X265163Y52978D01*
X265302Y52950D01*
X265413Y52936D01*
X265496Y52923D01*
X265523D01*
X265759Y52936D01*
X265967Y52992D01*
X266134Y53061D01*
X266286Y53158D01*
X266411Y53242D01*
X266494Y53311D01*
X266550Y53366D01*
X266564Y53380D01*
X266688Y53561D01*
X266786Y53755D01*
X266841Y53949D01*
X266896Y54129D01*
X266924Y54296D01*
X266938Y54434D01*
Y54517D01*
Y54531D01*
Y54545D01*
X266924Y54767D01*
X266883Y54975D01*
X266813Y55155D01*
X266744Y55308D01*
X266675Y55447D01*
X266605Y55530D01*
X266564Y55599D01*
X266550Y55613D01*
X266397Y55766D01*
X266231Y55876D01*
X266050Y55946D01*
X265884Y56001D01*
X265745Y56029D01*
X265634Y56057D01*
D02*
G37*
G36*
X342299Y56001D02*
X342230D01*
X341925Y55974D01*
X341647Y55918D01*
X341425Y55835D01*
X341231Y55738D01*
X341079Y55641D01*
X340968Y55557D01*
X340898Y55502D01*
X340871Y55474D01*
X340718Y55280D01*
X340607Y55086D01*
X340524Y54878D01*
X340468Y54698D01*
X340441Y54531D01*
X340413Y54406D01*
Y54309D01*
Y54296D01*
Y54282D01*
X344143D01*
X344102Y54545D01*
X344033Y54781D01*
X343936Y54975D01*
X343825Y55155D01*
X343727Y55294D01*
X343644Y55405D01*
X343589Y55461D01*
X343561Y55488D01*
X343353Y55655D01*
X343131Y55779D01*
X342895Y55876D01*
X342687Y55932D01*
X342507Y55974D01*
X342355Y55988D01*
X342299Y56001D01*
D02*
G37*
G36*
X307184D02*
X307115D01*
X306810Y55974D01*
X306532Y55918D01*
X306311Y55835D01*
X306116Y55738D01*
X305964Y55641D01*
X305853Y55557D01*
X305784Y55502D01*
X305756Y55474D01*
X305603Y55280D01*
X305492Y55086D01*
X305409Y54878D01*
X305354Y54698D01*
X305326Y54531D01*
X305298Y54406D01*
Y54309D01*
Y54296D01*
Y54282D01*
X309029D01*
X308987Y54545D01*
X308918Y54781D01*
X308821Y54975D01*
X308710Y55155D01*
X308613Y55294D01*
X308529Y55405D01*
X308474Y55461D01*
X308446Y55488D01*
X308238Y55655D01*
X308016Y55779D01*
X307780Y55876D01*
X307572Y55932D01*
X307392Y55974D01*
X307240Y55988D01*
X307184Y56001D01*
D02*
G37*
G36*
X258645Y56001D02*
X258575D01*
X258270Y55974D01*
X257993Y55918D01*
X257771Y55835D01*
X257577Y55738D01*
X257424Y55641D01*
X257313Y55557D01*
X257244Y55502D01*
X257216Y55474D01*
X257064Y55280D01*
X256953Y55086D01*
X256870Y54878D01*
X256814Y54698D01*
X256786Y54531D01*
X256759Y54406D01*
Y54309D01*
Y54296D01*
Y54282D01*
X260489D01*
X260448Y54545D01*
X260378Y54781D01*
X260281Y54975D01*
X260170Y55155D01*
X260073Y55294D01*
X259990Y55405D01*
X259935Y55460D01*
X259907Y55488D01*
X259699Y55655D01*
X259477Y55779D01*
X259241Y55876D01*
X259033Y55932D01*
X258853Y55974D01*
X258700Y55987D01*
X258645Y56001D01*
D02*
G37*
G36*
X327987Y56001D02*
X327890D01*
X327751Y55988D01*
X327612Y55974D01*
X327363Y55890D01*
X327141Y55779D01*
X326974Y55655D01*
X326822Y55530D01*
X326725Y55419D01*
X326655Y55336D01*
X326642Y55322D01*
Y55308D01*
Y51577D01*
X326697Y51508D01*
X326766Y51425D01*
X326933Y51300D01*
X327016Y51258D01*
X327085Y51217D01*
X327141Y51203D01*
X327155Y51189D01*
X327293Y51133D01*
X327418Y51092D01*
X327529Y51064D01*
X327626Y51050D01*
X327709Y51036D01*
X327765Y51023D01*
X327820D01*
X328028Y51036D01*
X328209Y51050D01*
X328555Y51133D01*
X328847Y51245D01*
X329096Y51397D01*
X329318Y51591D01*
X329498Y51785D01*
X329637Y52007D01*
X329762Y52243D01*
X329859Y52465D01*
X329928Y52687D01*
X329970Y52881D01*
X329998Y53075D01*
X330025Y53228D01*
X330039Y53352D01*
Y53422D01*
Y53450D01*
X330012Y53852D01*
X329942Y54198D01*
X329859Y54517D01*
X329748Y54781D01*
X329693Y54892D01*
X329637Y54989D01*
X329595Y55086D01*
X329554Y55155D01*
X329512Y55211D01*
X329485Y55252D01*
X329457Y55266D01*
Y55280D01*
X329346Y55405D01*
X329221Y55516D01*
X329096Y55613D01*
X328958Y55696D01*
X328694Y55821D01*
X328445Y55918D01*
X328223Y55960D01*
X328139Y55974D01*
X328056Y55988D01*
X327987Y56001D01*
D02*
G37*
G36*
X107303Y59571D02*
X94990D01*
Y57886D01*
X105785D01*
Y52313D01*
X94990D01*
X107303D01*
Y59571D01*
D02*
G37*
G36*
Y50850D02*
X94990D01*
Y43591D01*
X96508D01*
Y49165D01*
X99934D01*
Y45202D01*
X101359D01*
Y49165D01*
X105785D01*
Y43591D01*
X101146D01*
X107303D01*
Y50850D01*
D02*
G37*
G36*
X132712Y49850D02*
X120399D01*
Y42240D01*
X121917D01*
Y48165D01*
X125343D01*
Y43832D01*
X126769D01*
Y48165D01*
X132712D01*
Y49850D01*
D02*
G37*
G36*
X302681Y24027D02*
X302589D01*
X302311Y24008D01*
X302052Y23953D01*
X301848Y23878D01*
X301663Y23786D01*
X301515Y23693D01*
X301404Y23619D01*
X301330Y23564D01*
X301311Y23545D01*
X301144Y23360D01*
X300978Y23138D01*
X300867Y22897D01*
X300756Y22675D01*
X300681Y22471D01*
X300626Y22304D01*
X300607Y22193D01*
X300589Y22175D01*
Y22156D01*
X300552Y21971D01*
X300515Y21767D01*
X300441Y21323D01*
X300404Y20842D01*
X300385Y20379D01*
X300367Y20157D01*
Y19953D01*
X300348Y19768D01*
Y19601D01*
Y19471D01*
Y19379D01*
Y19305D01*
Y19286D01*
Y18768D01*
X300367Y18305D01*
X300404Y17860D01*
X300441Y17453D01*
X300478Y17101D01*
X300533Y16768D01*
X300589Y16490D01*
X300644Y16231D01*
X300700Y16009D01*
X300756Y15805D01*
X300811Y15657D01*
X300848Y15527D01*
X300885Y15435D01*
X300922Y15361D01*
X300941Y15324D01*
Y15305D01*
X301052Y15101D01*
X301181Y14935D01*
X301330Y14787D01*
X301478Y14657D01*
X301626Y14546D01*
X301793Y14454D01*
X302089Y14324D01*
X302367Y14231D01*
X302589Y14194D01*
X302663Y14176D01*
X302792D01*
X302996Y14194D01*
X303181Y14231D01*
X303348Y14305D01*
X303514Y14398D01*
X303663Y14509D01*
X303792Y14657D01*
X303922Y14805D01*
X304051Y14972D01*
X304255Y15361D01*
X304422Y15787D01*
X304570Y16250D01*
X304681Y16731D01*
X304774Y17212D01*
X304848Y17675D01*
X304885Y18101D01*
X304922Y18490D01*
X304940Y18657D01*
Y18823D01*
X304959Y18953D01*
Y19064D01*
Y19157D01*
Y19231D01*
Y19268D01*
Y19286D01*
Y19712D01*
X304940Y20120D01*
X304903Y20490D01*
X304848Y20860D01*
X304811Y21175D01*
X304737Y21490D01*
X304663Y21767D01*
X304589Y22027D01*
X304496Y22267D01*
X304403Y22490D01*
X304311Y22693D01*
X304200Y22878D01*
X303996Y23175D01*
X303774Y23434D01*
X303552Y23638D01*
X303329Y23786D01*
X303144Y23878D01*
X302959Y23953D01*
X302811Y23990D01*
X302681Y24027D01*
D02*
G37*
G36*
X187136Y83740D02*
Y83647D01*
X186951D01*
X186840Y83666D01*
X186673D01*
X186507Y83685D01*
X186136Y83703D01*
X185729D01*
X185359Y83722D01*
X185192Y83740D01*
X179452D01*
D01*
X184599D01*
X184488Y83722D01*
X184340D01*
X184174Y83703D01*
X183988Y83685D01*
X183581Y83629D01*
X183137Y83555D01*
X182655Y83444D01*
X182137Y83296D01*
X181637Y83111D01*
X181155Y82870D01*
X180693Y82573D01*
X180285Y82222D01*
X180118Y82037D01*
X179952Y81814D01*
X179804Y81574D01*
X179674Y81333D01*
X179582Y81074D01*
X179507Y80777D01*
X179470Y80481D01*
X179452Y80148D01*
Y80315D01*
Y71334D01*
Y79963D01*
X179489Y79759D01*
X179526Y79500D01*
X179600Y79185D01*
X179711Y78833D01*
X179841Y78463D01*
X180044Y78074D01*
X180304Y77685D01*
X180618Y77315D01*
X180804Y77130D01*
X180989Y76963D01*
X181211Y76796D01*
X181452Y76648D01*
X181729Y76500D01*
X182007Y76389D01*
X182303Y76278D01*
X182637Y76185D01*
X182988Y76111D01*
X183377Y76056D01*
X183785Y76019D01*
X184211Y76000D01*
X184359D01*
X184470Y76019D01*
X184636D01*
X184859Y76037D01*
X185118Y76056D01*
X185451Y76074D01*
Y71334D01*
X185269D01*
X187136D01*
Y83740D01*
D02*
G37*
G36*
X164676Y83647D02*
X159102D01*
D01*
X164676D01*
D02*
G37*
G36*
X158232Y80315D02*
Y80259D01*
D01*
Y80315D01*
D02*
G37*
G36*
X166361Y83647D02*
X164676D01*
Y72852D01*
X159102D01*
Y71334D01*
X166361D01*
Y83647D01*
D02*
G37*
G36*
X149362D02*
X142104D01*
Y82129D01*
X147677D01*
Y78704D01*
X143715D01*
Y77278D01*
X147677D01*
Y72852D01*
X142104D01*
Y71334D01*
X149362D01*
Y83647D01*
D02*
G37*
G36*
X177526D02*
X168879D01*
Y71130D01*
Y74889D01*
X168897Y74759D01*
X168916Y74611D01*
X168934Y74426D01*
X168971Y74223D01*
X169027Y74019D01*
X169157Y73537D01*
X169249Y73297D01*
X169379Y73056D01*
X169508Y72815D01*
X169657Y72593D01*
X169842Y72371D01*
X170045Y72167D01*
X170064Y72149D01*
X170101Y72130D01*
X170175Y72075D01*
X170268Y72001D01*
X170379Y71926D01*
X170527Y71834D01*
X170693Y71741D01*
X170879Y71649D01*
X171101Y71556D01*
X171342Y71464D01*
X171601Y71371D01*
X171879Y71297D01*
X172193Y71223D01*
X172508Y71167D01*
X172860Y71149D01*
X173230Y71130D01*
X173434D01*
X173564Y71149D01*
X173749Y71167D01*
X173952Y71186D01*
X174175Y71223D01*
X174397Y71260D01*
X174915Y71371D01*
X175452Y71556D01*
X175711Y71686D01*
X175952Y71815D01*
X176193Y71964D01*
X176415Y72149D01*
X176434Y72167D01*
X176471Y72204D01*
X176526Y72260D01*
X176582Y72334D01*
X176674Y72445D01*
X176767Y72575D01*
X176859Y72723D01*
X176971Y72908D01*
X177082Y73093D01*
X177174Y73315D01*
X177267Y73556D01*
X177360Y73815D01*
X177415Y74111D01*
X177471Y74408D01*
X177508Y74741D01*
X177526Y75093D01*
Y83647D01*
D02*
G37*
G36*
X154769Y83870D02*
X154584D01*
X154436Y83851D01*
X154269D01*
X154084Y83833D01*
X153880Y83814D01*
X153640Y83796D01*
X153177Y83703D01*
X152714Y83592D01*
X152492Y83518D01*
X152269Y83425D01*
X152084Y83314D01*
X151918Y83203D01*
X152418Y81740D01*
X152436Y81759D01*
X152473Y81777D01*
X152566Y81833D01*
X152677Y81888D01*
X152825Y81962D01*
X152992Y82037D01*
X153214Y82129D01*
X153455Y82203D01*
X153492Y82222D01*
X153566Y82240D01*
X153695Y82277D01*
X153862Y82333D01*
X154066Y82370D01*
X154269Y82407D01*
X154492Y82425D01*
X154714Y82444D01*
X154862D01*
X155010Y82425D01*
X155214Y82388D01*
X155417Y82314D01*
X155658Y82240D01*
X155862Y82111D01*
X156065Y81944D01*
X156084Y81925D01*
X156139Y81851D01*
X156214Y81759D01*
X156306Y81611D01*
X156399Y81426D01*
X156473Y81203D01*
X156528Y80963D01*
X156547Y80685D01*
Y80666D01*
Y80611D01*
X156528Y80518D01*
Y80407D01*
X156473Y80129D01*
X156380Y79833D01*
Y79815D01*
X156343Y79777D01*
X156306Y79703D01*
X156250Y79611D01*
X156084Y79389D01*
X155880Y79185D01*
X155862Y79166D01*
X155806Y79130D01*
X155732Y79074D01*
X155603Y79000D01*
X155436Y78889D01*
X155214Y78778D01*
X154936Y78629D01*
X154603Y78463D01*
X153584Y77981D01*
X153566D01*
X153529Y77963D01*
X153473Y77926D01*
X153380Y77870D01*
X153158Y77741D01*
X152899Y77574D01*
X152603Y77352D01*
X152306Y77111D01*
X152047Y76833D01*
X151825Y76537D01*
X151807Y76500D01*
X151751Y76389D01*
X151658Y76204D01*
X151566Y75963D01*
X151473Y75667D01*
X151381Y75315D01*
X151325Y74908D01*
X151307Y74445D01*
Y74315D01*
X151325Y74223D01*
X151344Y74093D01*
X151362Y73963D01*
X151455Y73630D01*
X151584Y73260D01*
X151677Y73074D01*
X151788Y72871D01*
X151918Y72667D01*
X152066Y72463D01*
X152232Y72278D01*
X152436Y72093D01*
X152455Y72075D01*
X152492Y72056D01*
X152547Y72001D01*
X152640Y71945D01*
X152751Y71871D01*
X152880Y71797D01*
X153047Y71704D01*
X153214Y71612D01*
X153418Y71519D01*
X153640Y71427D01*
X153899Y71353D01*
X154158Y71278D01*
X154436Y71223D01*
X154732Y71167D01*
X155065Y71149D01*
X155399Y71130D01*
X151307D01*
X158232D01*
D01*
X155565D01*
X155676Y71149D01*
X155825D01*
X155973Y71167D01*
X156158Y71186D01*
X156362Y71223D01*
X156806Y71315D01*
X157269Y71445D01*
X157750Y71630D01*
X158195Y71890D01*
X157584Y73445D01*
X157565Y73426D01*
X157491Y73389D01*
X157399Y73315D01*
X157269Y73241D01*
X157102Y73149D01*
X156899Y73056D01*
X156676Y72963D01*
X156417Y72871D01*
X156380D01*
X156306Y72834D01*
X156158Y72797D01*
X155991Y72760D01*
X155806Y72723D01*
X155584Y72686D01*
X155380Y72667D01*
X155158Y72649D01*
X154991D01*
X154825Y72686D01*
X154584Y72723D01*
X154343Y72778D01*
X154084Y72871D01*
X153825Y73000D01*
X153584Y73186D01*
X153566Y73204D01*
X153492Y73278D01*
X153399Y73408D01*
X153269Y73556D01*
X153158Y73760D01*
X153066Y73982D01*
X152992Y74241D01*
X152973Y74537D01*
Y74574D01*
Y74648D01*
X152992Y74759D01*
X153010Y74926D01*
X153047Y75093D01*
X153121Y75297D01*
X153195Y75500D01*
X153306Y75704D01*
X153325Y75722D01*
X153380Y75796D01*
X153492Y75908D01*
X153640Y76056D01*
X153862Y76222D01*
X154010Y76315D01*
X154158Y76426D01*
X154325Y76537D01*
X154529Y76648D01*
X154751Y76759D01*
X154991Y76870D01*
X155973Y77333D01*
X155991D01*
X156028Y77352D01*
X156084Y77389D01*
X156177Y77444D01*
X156399Y77555D01*
X156658Y77722D01*
X156954Y77926D01*
X157250Y78167D01*
X157510Y78426D01*
X157732Y78722D01*
Y78741D01*
X157750Y78759D01*
X157806Y78870D01*
X157899Y79037D01*
X157973Y79278D01*
X158065Y79555D01*
X158158Y79889D01*
X158213Y80259D01*
X158232Y80666D01*
Y80796D01*
X158213Y80889D01*
X158195Y81018D01*
X158176Y81148D01*
X158102Y81462D01*
X157991Y81833D01*
X157824Y82203D01*
X157713Y82388D01*
X157584Y82592D01*
X157436Y82777D01*
X157269Y82944D01*
X157250Y82962D01*
X157232Y82981D01*
X157176Y83036D01*
X157084Y83092D01*
X156991Y83166D01*
X156880Y83240D01*
X156750Y83314D01*
X156584Y83407D01*
X156232Y83573D01*
X155806Y83722D01*
X155306Y83833D01*
X155047Y83851D01*
X154769Y83870D01*
D02*
G37*
%LPD*%
G36*
X184785Y82203D02*
X184914D01*
X185062Y82185D01*
X185247Y82166D01*
X185451Y82129D01*
Y77593D01*
X185359D01*
X185285Y77574D01*
X185118D01*
X184914Y77555D01*
X184711Y77537D01*
X184544D01*
X184396Y77519D01*
X184211D01*
X184044Y77537D01*
X183840Y77555D01*
X183618Y77593D01*
X183340Y77648D01*
X183063Y77722D01*
X182766Y77833D01*
X182470Y77963D01*
X182192Y78111D01*
X181915Y78315D01*
X181692Y78555D01*
X181489Y78833D01*
X181322Y79148D01*
X181229Y79537D01*
X181192Y79963D01*
Y79981D01*
Y80055D01*
X181211Y80166D01*
X181248Y80315D01*
X181285Y80481D01*
X181378Y80685D01*
X181470Y80889D01*
X181618Y81092D01*
X181785Y81296D01*
X182007Y81500D01*
X182285Y81703D01*
X182600Y81870D01*
X182988Y82018D01*
X183433Y82129D01*
X183951Y82203D01*
X184248Y82222D01*
X184674D01*
X184785Y82203D01*
D02*
G37*
G36*
X175841Y75223D02*
Y75204D01*
Y75167D01*
Y75111D01*
X175823Y75037D01*
X175804Y74834D01*
X175749Y74574D01*
X175674Y74278D01*
X175545Y73963D01*
X175378Y73667D01*
X175138Y73371D01*
X175100Y73334D01*
X175008Y73260D01*
X174841Y73149D01*
X174638Y73019D01*
X174360Y72871D01*
X174027Y72760D01*
X173656Y72686D01*
X173249Y72649D01*
X173138D01*
X173045Y72667D01*
X172934D01*
X172823Y72686D01*
X172545Y72741D01*
X172230Y72815D01*
X171897Y72945D01*
X171582Y73112D01*
X171286Y73352D01*
X171249Y73389D01*
X171175Y73482D01*
X171064Y73630D01*
X170916Y73852D01*
X170786Y74130D01*
X170675Y74463D01*
X170601Y74834D01*
X170564Y75259D01*
Y83647D01*
X175841D01*
Y75223D01*
D02*
G37*
%LPC*%
G36*
X81968Y86994D02*
X69654D01*
Y85309D01*
X80450D01*
Y79736D01*
X81968D01*
Y86994D01*
D02*
G37*
G36*
X82135Y79421D02*
D01*
Y74829D01*
X69654Y79421D01*
Y69515D01*
X82135Y73977D01*
Y71329D01*
Y79421D01*
D02*
G37*
G36*
X81968Y68163D02*
X69654D01*
Y66478D01*
X80450D01*
Y60904D01*
X81968D01*
Y68163D01*
D02*
G37*
G36*
Y54257D02*
X72802D01*
X72969D01*
Y52665D01*
X74413D01*
X74395Y52646D01*
X74339Y52628D01*
X74265Y52572D01*
X74154Y52498D01*
X74043Y52405D01*
X73895Y52294D01*
X73765Y52165D01*
X73598Y52017D01*
X73450Y51850D01*
X73302Y51646D01*
X73173Y51442D01*
X73061Y51202D01*
X72950Y50943D01*
X72876Y50683D01*
X72821Y50387D01*
X72802Y50072D01*
Y49887D01*
X72821Y49757D01*
X72839Y49591D01*
X72876Y49369D01*
X72913Y49110D01*
X72969Y48832D01*
D01*
X74524Y49498D01*
X74506Y49517D01*
X74469Y49591D01*
X74413Y49683D01*
X74339Y49832D01*
X74265Y49980D01*
X74209Y50165D01*
X74173Y50350D01*
X74154Y50554D01*
Y50591D01*
X74173Y50702D01*
X74191Y50850D01*
X74247Y51054D01*
X74339Y51294D01*
X74487Y51535D01*
X74691Y51794D01*
X74802Y51905D01*
X74950Y52035D01*
X74987Y52054D01*
X75080Y52128D01*
X75246Y52239D01*
X75469Y52350D01*
X75746Y52461D01*
X76061Y52572D01*
X76431Y52646D01*
X76820Y52665D01*
X81968D01*
Y50554D01*
Y54257D01*
D02*
G37*
G36*
X82135Y48276D02*
X77487D01*
X77357Y48258D01*
X77209D01*
X77024Y48239D01*
X76802Y48202D01*
X76561Y48165D01*
X76302Y48110D01*
X76024Y48035D01*
X75728Y47943D01*
X75432Y47832D01*
X75135Y47702D01*
X74839Y47554D01*
X74543Y47369D01*
X74265Y47165D01*
X74006Y46925D01*
X73987Y46906D01*
X73950Y46869D01*
X73895Y46795D01*
X73821Y46702D01*
X73728Y46591D01*
X73617Y46462D01*
X73524Y46295D01*
X73395Y46110D01*
X73284Y45925D01*
X73191Y45702D01*
X72987Y45221D01*
X72913Y44943D01*
X72858Y44665D01*
X72821Y44369D01*
X72802Y44073D01*
Y43888D01*
X72821Y43758D01*
X72839Y43591D01*
X72858Y43406D01*
X72895Y43203D01*
X72932Y42980D01*
X73061Y42481D01*
X73154Y42240D01*
X73265Y41981D01*
X73395Y41740D01*
X73524Y41499D01*
X73710Y41277D01*
X73895Y41055D01*
X73913Y41036D01*
X73950Y40999D01*
X74006Y40962D01*
X74080Y40888D01*
X74191Y40814D01*
X74321Y40721D01*
X74469Y40610D01*
X74635Y40518D01*
X74821Y40425D01*
X75024Y40314D01*
X75246Y40222D01*
X75487Y40147D01*
X75765Y40073D01*
X76043Y40018D01*
X76339Y39999D01*
X76654Y39981D01*
X82135D01*
Y44258D01*
X82116Y44369D01*
X82098Y44517D01*
X82079Y44684D01*
X82042Y44869D01*
X81987Y45073D01*
X81857Y45536D01*
X81764Y45777D01*
X81653Y46017D01*
X81524Y46258D01*
X81357Y46499D01*
X81190Y46739D01*
X80987Y46961D01*
X80968Y46980D01*
X80931Y47017D01*
X80857Y47091D01*
X80764Y47165D01*
X80635Y47258D01*
X80468Y47369D01*
X80302Y47498D01*
X80079Y47610D01*
X79857Y47739D01*
X79598Y47869D01*
X79320Y47980D01*
X79024Y48073D01*
X78691Y48147D01*
X78339Y48221D01*
X77968Y48258D01*
X77579Y48276D01*
X82135D01*
D02*
G37*
%LPD*%
G36*
X78728Y74385D02*
X69654Y71329D01*
Y77551D01*
X78728Y74385D01*
D02*
G37*
G36*
X76450Y41573D02*
X76431D01*
X76413D01*
X76283D01*
X76117Y41610D01*
X75894Y41647D01*
X75654Y41721D01*
X75376Y41832D01*
X75117Y41981D01*
X74858Y42184D01*
X74821Y42221D01*
X74746Y42314D01*
X74635Y42462D01*
X74506Y42666D01*
X74376Y42925D01*
X74265Y43221D01*
X74191Y43591D01*
X74154Y43999D01*
Y44092D01*
X74173Y44166D01*
X74191Y44369D01*
X74247Y44610D01*
X74321Y44888D01*
X74450Y45202D01*
X74617Y45499D01*
X74839Y45777D01*
X74876Y45813D01*
X74950Y45888D01*
X75098Y45999D01*
X75283Y46128D01*
X75524Y46276D01*
X75783Y46406D01*
X76098Y46499D01*
X76450Y46554D01*
Y41573D01*
D02*
G37*
G36*
X77876Y46573D02*
X78005D01*
X78172Y46554D01*
X78524Y46480D01*
X78913Y46388D01*
X79320Y46239D01*
X79709Y46017D01*
X79894Y45888D01*
X80061Y45739D01*
X80098Y45702D01*
X80172Y45610D01*
X80283Y45443D01*
X80413Y45202D01*
X80561Y44925D01*
X80672Y44591D01*
X80746Y44203D01*
X80783Y43777D01*
Y43647D01*
X80764Y43555D01*
Y43425D01*
X80746Y43295D01*
X80690Y42980D01*
X80579Y42610D01*
X80450Y42240D01*
X80246Y41851D01*
X80135Y41666D01*
X79987Y41499D01*
X81135Y40814D01*
X81153Y40833D01*
X81190Y40888D01*
X81264Y40981D01*
X81357Y41092D01*
X81468Y41258D01*
X81579Y41462D01*
X81672Y41684D01*
X81783Y41962D01*
Y41981D01*
X81801Y41999D01*
X81820Y42055D01*
X81838Y42129D01*
X81894Y42314D01*
X81949Y42573D01*
X82023Y42888D01*
X82079Y43258D01*
X82116Y43666D01*
X82135Y44092D01*
Y39981D01*
X76839D01*
X76968Y39999D01*
X77117Y40018D01*
X77283Y40036D01*
X77617Y40110D01*
Y46591D01*
X77635D01*
X77691D01*
X77765D01*
X77876Y46573D01*
D02*
G37*
D10*
X197250Y45000D02*
X355500D01*
D15*
X42500Y37500D02*
X57500D01*
X25000Y30000D02*
Y45000D01*
X17500Y37500D02*
X32500D01*
D16*
X0Y250000D02*
X500000Y250000D01*
X0Y0D02*
Y250000D01*
X500000Y0D02*
Y250000D01*
X0Y0D02*
X500000Y0D01*
D52*
X311500Y177250D02*
G03*
X291500Y211891I-40000J0D01*
G01*
X291500D02*
G03*
X271500Y177250I20000J-34641D01*
G01*
X239000Y142359D02*
G03*
X259000Y177000I-20000J34641D01*
G01*
X219000D02*
G03*
X239000Y142359I40000J0D01*
G01*
X82500Y176750D02*
G03*
X102500Y142109I40000J0D01*
G01*
D02*
G03*
X122500Y176750I-20000J34641D01*
G01*
X155000Y211641D02*
G03*
X135000Y177000I20000J-34641D01*
G01*
X175000D02*
G03*
X155000Y211641I-40000J0D01*
G01*
X8250Y176750D02*
X24250D01*
X311500Y177250D02*
X355500D01*
X259000D02*
X271500D01*
X57500Y176750D02*
X82500D01*
X122500Y177000D02*
X135000D01*
X175000D02*
X219000D01*
D65*
X75694Y32034D02*
D03*
D66*
X101096Y32031D02*
D03*
D67*
X126503Y32008D02*
D03*
D68*
X151907Y32005D02*
D03*
D69*
X177375Y32000D02*
D03*
M02*
