M48
;Layer_Color=9474304
;FILE_FORMAT=4:4
METRIC,LZ
;TYPE=PLATED
T1F00S00C0.3000
T2F00S00C0.8000
T3F00S00C0.9000
T4F00S00C1.1430
T5F00S00C1.7000
;TYPE=NON_PLATED
T6F00S00C2.0000
%
T01
X002032Y0009652
X0021336
X00194995Y00106699
X00195014Y0012192
X0020066Y00135436
X001875Y00135
X00216082Y00135004
X002275Y000775
X00235Y000775
X002425
X002875Y0005
Y000375
Y00025
X00315576Y00012192
X001625Y0005
X00134339Y0005461
X000725Y0006
Y00045
Y00075
Y0009
Y00105
Y0012
Y00135
Y0015
Y00165
X000725Y00225
X000875
X001025
X0012Y002375
X001425Y0021
X0013924Y001494
X0012954
X001Y001
X000875
X000575Y00225
X000425Y002375
T02
X0004064Y0005616
Y0009116
Y0013998
Y0017498
T03
X004064Y0001524
X004318
X004572
X001778
X001524
X00127
X001016
X000762
X000508
X000254
T04
X0036068Y0010668
Y0013208
Y0015748
X004826
Y0013208
Y0010668
T05
X0042164Y00057023
Y00207137
T06
X0025Y00025
X00475Y00225
X00025
M30
